<?xml version="1.0" encoding="iso-8859-1"?><svg id="Layer_3" enable-background="new 0 0 64 64" height="512" viewBox="0 0 64 64" width="512" xmlns="http://www.w3.org/2000/svg"><path d="m62 11h-3v-8c0-1.103-.897-2-2-2h-4c-1.103 0-2 .897-2 2v8h-38v-8c0-1.103-.897-2-2-2h-4c-1.103 0-2 .897-2 2v8h-3c-.552 0-1 .447-1 1v8c0 .553.448 1 1 1h3v8h-3c-.552 0-1 .447-1 1v8c0 .553.448 1 1 1h3v10h-2v2h12v-2h-2v-10h11.38l-3.2 16h-3.18c-.552 0-1 .447-1 1v6c0 .553.448 1 1 1h28c.552 0 1-.447 1-1v-6c0-.553-.448-1-1-1h-3.18l-3.2-16h11.38v10h-2v2h12v-2h-2v-10h3c.552 0 1-.447 1-1v-8c0-.553-.448-1-1-1h-3v-8h3c.552 0 1-.447 1-1v-8c0-.553-.448-1-1-1zm-24.38 18-.639-3.196c-.094-.467-.504-.804-.981-.804h-8c-.477 0-.887.337-.98.804l-.64 3.196h-13.38v-8h38v8zm1.96 20h-15.16l.8-4h13.56zm-13.96-6 .8-4h11.16l.8 4zm1.2-6 .8-4h8.76l.8 4zm1.2-6 .8-4h6.36l.8 4zm3.394-12 6-6h7.172l-6 6zm-2.828 0h-7.172l6-6h7.172zm-10 0h-8.172l6-6h8.172zm22.828 0 6-6h7.172l-6 6zm11.586-16h4v8h-4zm-46 0h4v8h-4zm-4 10h10.586l-6 6h-4.586zm4 8h4v8h-4zm-4 10h9.586l-6 6h-.586-3zm8 18h-4v-10h4zm1-12h-2.586l6-6h10.566l-1.2 6zm33 24h-26v-4h26zm-21.78-6 .8-4h15.96l.8 4zm14.8-24h16.566l-6 6h-9.366zm18.98 18h-4v-10h4zm4-12h-3-6-.586l6-6h3.586zm-4-8h-4v-8h4zm4-10h-9.586l6-6h3.586z"/></svg>