<?xml version="1.0" encoding="iso-8859-1"?>
<!-- Generator: Adobe Illustrator 19.0.0, SVG Export Plug-In . SVG Version: 6.00 Build 0)  -->
<svg version="1.1" fill="white" id="Capa_1" xmlns="http://www.w3.org/2000/svg" xmlns:xlink="http://www.w3.org/1999/xlink" x="0px" y="0px"
	 viewBox="0 0 496 496" style="enable-background:new 0 0 496 496;" xml:space="preserve">
<g>
	<g>
		<g>
			<path d="M248,104c-39.704,0-72,32.296-72,72s32.296,72,72,72s72-32.296,72-72S287.704,104,248,104z M256,231.36V216h-16v15.36
				c-24.472-3.528-43.832-22.888-47.36-47.36H208v-16h-15.36c3.528-24.472,22.888-43.832,47.36-47.36V136h16v-15.36
				c24.472,3.528,43.832,22.888,47.36,47.36H288v16h15.36C299.832,208.472,280.472,227.832,256,231.36z"/>
			<polygon points="256,152 240,152 240,184 272,184 272,168 256,168 			"/>
			<path d="M368,120.64V86.528c9.288-3.312,16-12.112,16-22.528v-9.176C388.96,55.536,394.208,56,400,56V40
				c-22.92,0-37.2-7.304-53.736-15.76C324.056,12.872,298.872,0,248,0s-76.056,12.872-98.264,24.24C133.2,32.696,118.92,40,96,40v16
				c5.792,0,11.04-0.464,16-1.176V64c0,10.416,6.712,19.216,16,22.528v34.112c-27.088,3.904-48,27.208-48,55.36v112
				c0,28.152,20.912,51.456,48,55.36v82.112c-9.288,3.312-16,12.112-16,22.528v48h72v-16h128v16h72v-48
				c0-10.416-6.712-19.216-16-22.528V343.36c27.088-3.904,48-27.208,48-55.36V176C416,147.848,395.088,124.544,368,120.64z M96,288
				V176c0-19.312,13.768-35.472,32-39.192v190.384C109.768,323.472,96,307.312,96,288z M368,480h-40v-16H168v16h-40v-32
				c0-4.416,3.584-8,8-8h224c4.416,0,8,3.584,8,8V480z M224.248,336c-9.8,7.296-16.248,18.872-16.248,32c0,22.056,17.944,40,40,40
				c22.056,0,40-17.944,40-40c0-13.128-6.448-24.704-16.248-32H272v-56h48v-16H144V88h48h8h152v176h-16v16h16v144H144V280h80v56
				H224.248z M248,344c13.232,0,24,10.768,24,24s-10.768,24-24,24s-24-10.768-24-24S234.768,344,248,344z M240,328.808V280h16
				v48.808c-2.584-0.528-5.264-0.808-8-0.808C245.264,328,242.584,328.28,240,328.808z M200,72V56c0-4.416,3.584-8,8-8h80
				c4.416,0,8,3.584,8,8v16H200z M360,72h-48V56c0-13.232-10.768-24-24-24h-80c-13.232,0-24,10.768-24,24v16h-48
				c-4.416,0-8-3.584-8-8V51.192c10.504-3.304,19.648-7.912,29.024-12.704C177.624,27.944,200.976,16,248,16
				s70.376,11.944,90.976,22.488c9.376,4.792,18.52,9.4,29.024,12.704V64C368,68.416,364.416,72,360,72z M400,288
				c0,19.312-13.768,35.472-32,39.192V136.808c18.232,3.72,32,19.872,32,39.192V288z"/>
		</g>
	</g>
</g>
<g>
</g>
<g>
</g>
<g>
</g>
<g>
</g>
<g>
</g>
<g>
</g>
<g>
</g>
<g>
</g>
<g>
</g>
<g>
</g>
<g>
</g>
<g>
</g>
<g>
</g>
<g>
</g>
<g>
</g>
</svg>
