<?xml version="1.0" encoding="iso-8859-1"?>
<!-- Generator: Adobe Illustrator 21.0.0, SVG Export Plug-In . SVG Version: 6.00 Build 0)  -->
<svg xmlns="http://www.w3.org/2000/svg" xmlns:xlink="http://www.w3.org/1999/xlink" version="1.1" id="Capa_1" x="0px" y="0px" viewBox="0 0 512 512" style="enable-background:new 0 0 512 512;" xml:space="preserve" width="512" height="512">
<path style="fill-rule:evenodd;clip-rule:evenodd;" d="M497,337.493h-20.959c-5.4-59.896-35.032-114.524-81.202-151.858  c-0.938-37.801-31.065-62.396-67.691-62.396c-3.891-8.027-9.101-15.307-15.344-21.55c-38.783-38.784-103.386-27.082-126.953,21.55  c-36.64,0-66.772,24.616-67.691,62.431c-46.259,37.41-75.809,91.857-81.203,151.824H15c-8.284,0-15,6.716-15,15v66  c0,8.284,6.716,15,15,15h482c8.284,0,15-6.716,15-15v-66C512,344.208,505.284,337.493,497,337.493z M364.859,187.241v78.997  c0,8.284,6.716,15,15,15c8.284,0,15-6.716,15-15v-39.866c28.672,30.292,46.768,69.069,51.151,111.121H335  c0-59.258,0.516-125.145-0.102-184.013C351.803,155.502,364.859,169.986,364.859,187.241z M207.001,157.492  c0-26.919,22.08-48.999,48.999-48.999c26.917,0,48.999,22.084,48.999,48.999v180h-97.999V157.492z M117.141,226.352v39.885  c0,8.284,6.716,15,15,15c8.284,0,15-6.716,15-15v-78.997c0-17.256,13.055-31.739,29.961-33.762  C175.767,212.099,177,278.233,177,337.493H65.991C70.382,295.491,88.534,256.622,117.141,226.352z M482,403.493H30v-36h452V403.493z  "/>















</svg>
