<svg xmlns="http://www.w3.org/2000/svg" data-name="Layer 1" viewBox="0 0 357.422 274.232">
  <path fill="white" d="M271.026 250.016a18.075 18.075 0 0 0-4.818-2.14 62.676 62.676 0 0 0-5.293-1.252 71.468 71.468 0 0 1-4.501-1.03c-1.395-.369-2.525-.935-3.392-1.695-.867-.761-1.3-1.881-1.3-3.36v-.031c0-1.585.729-2.815 2.187-3.692 1.458-.877 3.519-1.315 6.181-1.315 1.775 0 3.629.332 5.563.998 1.933.666 3.788 1.622 5.562 2.868l3.677-7.354a27.27 27.27 0 0 0-7.195-3.565c-2.579-.835-5.114-1.252-7.607-1.252-5.41 0-9.594 1.23-12.552 3.692s-4.438 5.943-4.438 10.444v.031c0 2.79.47 5.02 1.411 6.688.94 1.669 2.182 2.953 3.725 3.851a17.705 17.705 0 0 0 5.071 1.966 80.31 80.31 0 0 0 5.452 1.03c1.5.232 2.89.518 4.168.855 1.278.338 2.308.861 3.09 1.569s1.173 1.728 1.173 3.059v.031c0 1.755-.782 3.112-2.346 4.073-1.564.962-3.761 1.442-6.593 1.442-2.452 0-4.839-.396-7.164-1.188-2.325-.793-4.374-1.918-6.149-3.376l-4.025 7.163a23.608 23.608 0 0 0 4.977 3.091 27.283 27.283 0 0 0 5.912 1.949c2.102.444 4.252.666 6.45.666 5.579 0 9.9-1.221 12.964-3.661s4.596-5.88 4.596-10.317v-.063c0-2.599-.434-4.712-1.3-6.339-.867-1.627-2.028-2.905-3.486-3.836Zm-222.779-2.504-8.812-19.842h-9.097l13.567 28.305v17.782h8.685v-17.782l13.566-28.305h-9.097l-8.812 19.842ZM86.08 227.67h-3.138v46.087h30.873v-8.368H91.627v-10.333h18.702v-8.368H91.627v-10.651h22.188v-8.367H86.08Zm15.465-132.483h-.002c.414-3.051-.341-5.205-2.923-6.751-6.4-3.832-12.807-7.652-19.647-11.737 1.142-1.059 2.308-2.216 3.552-3.283 8.852-7.594 17.747-15.139 26.553-22.787 1.319-1.145 3.162-2.728 3.196-4.146.265-11.098.147-22.206.147-33.437H4.681c0 10.38.162 20.353-.082 30.316-.093 3.808 1.197 4.826 4.865 4.788 15.83-.164 31.663-.069 47.495-.047 1.726.002 3.452.147 6.414.282-2.262 1.929-3.468 3.023-4.741 4.033-13.058 10.35-26.155 20.652-39.151 31.08-1.268 1.018-2.925 2.958-2.715 4.181 1.342 7.822 3.156 15.562 4.874 23.605 2.896-.615 5.139-1.13 7.397-1.564 13.585-2.612 26.859-2.212 39.526 4.093 11.552 5.75 17.117 15.646 15.999 28.504-1.483 17.051-12.684 27.764-30.896 29.62-16.268 1.657-31.823-1.694-47.169-6.589-1.831-.584-3.671-1.139-6.351-1.969 0 10.469.312 20.104-.127 29.704-.232 5.074 1.687 7.531 6.217 9.177 20.346 7.391 41.183 10.129 62.357 5.107 20.901-4.957 37.575-16.113 46.644-36.473.814-1.827 1.014-4.771.093-6.401-12.227-21.622-17.13-44.644-13.785-69.306Zm232.377-71.93V0h-14.368v23.257h-23.379v14.002h23.501v23.257h14.368V37.259h23.378V23.257h-23.5Zm-25.752 85.819c.217 55.025-44.327 100.487-98.641 100.673-56.348.194-101.05-43.939-101.261-99.972-.21-55.656 44.285-100.191 100.303-100.394 54.511-.198 99.382 44.716 99.599 99.693Zm-39.757.576c0-33.357-27.194-60.678-60.256-60.535-33.38.144-60.236 27.184-60.16 60.571.076 33.485 26.954 60.245 60.442 60.178 33.059-.066 59.974-27.088 59.974-60.214Zm-54.826 145.111 11.014 18.994h-10.523l-10.39-18.543h-5.268v18.543h-8.685v-46.119h20.191c2.557 0 4.791.57 6.704 1.712 1.912 1.14 3.397 2.747 4.454 4.817 1.056 2.071 1.585 4.49 1.585 7.259s-.534 5.189-1.601 7.259c-1.067 2.071-2.551 3.676-4.453 4.818h-.001c-.944.562-1.963.986-3.027 1.26Zm-1.108-9.406c.814-.993 1.231-2.303 1.252-3.931 0-1.627-.407-2.937-1.22-3.931-.814-.992-1.907-1.489-3.281-1.489h-10.809v10.84h10.809c1.352 0 2.435-.496 3.249-1.489Zm-59.055-17.687 17.623 46.087h-9.351l-2.588-7.386h-16.884l-2.588 7.386h-9.351l17.624-46.087h-.001 5.516Zm2.753 30.334-5.51-15.722-5.51 15.722h11.02Z"/>
</svg>
