<svg xmlns="http://www.w3.org/2000/svg" data-name="Layer 1" viewBox="0 0 389.774 219.429">
  <path fill="#fffdfc" d="M119.279 179.386v8.6h10.3c3.7 0 5.9-1.5 5.9-4.1.1-2.6-1.8-4.5-6.2-4.5h-10Zm28.7 16.3c.7 0 1.3-.3 1.8-.8s.8-1.1.8-1.9c0-.7-.3-1.3-.8-1.8-.4-.5-1.1-.8-1.8-.8s-1.3.3-1.8.8-.8 1.1-.8 1.8.3 1.3.8 1.9c.5.5 1.1.8 1.8.8Zm-1.2-4.4h1.2v.1c.4 0 .7 0 .9.1.3.1.5.4.5.8 0 .3-.1.5-.3.7-.1.1-.3.1-.5.2.3 0 .4.2.6.3.1.2.2.3.2.5v.6h-.5v-.4c0-.4-.1-.6-.3-.8-.1-.1-.3-.1-.7-.1h-.5v1.3h-.6v-3.3Zm-27.2-27.2v8.2h7.8c3.7 0 6.3-1.1 6.3-4.1 0-2.6-1.9-4.1-5.6-4.1h-8.5Zm-27.1 15.3h-10.4v8.6h10.4c3.7 0 6.3-1.5 6.3-4.1s-1.8-4.5-6.3-4.5Zm-33-11.2c0-2.6-1.9-4.1-5.6-4.1h-8.9v8.2h8.2c3.7 0 6.3-1.1 6.3-4.1Zm2.2 15.7c0-2.6-1.9-4.5-6.3-4.5h-10.4v8.6h10.4c3.7 0 6.3-1.5 6.3-4.1ZM376.511 0ZM4.827 3.029Zm91.752 165.157c0-2.6-1.9-4.1-5.6-4.1h-8.9v8.2h8.2c3.7 0 6.3-1.1 6.3-4.1ZM386.746 4.827c-.27-.328-.556-.642-.856-.942.273.273.53.561.778.856.025.03.053.056.078.086ZM1.042 8.101ZM183.699 0H13.263h170.436ZM4.827 3.029Z"/>
  <path fill="#fffdfc" d="M6 13.263v192.902c0 4.005 3.258 7.263 7.263 7.263h170.436V6H13.263C9.258 6 6 9.258 6 13.263Zm87.379 182.123h-19.5v-39.3h18.2v.1c4.5 0 8.2 1.1 10.4 3.4 1.9 1.9 2.6 4.1 2.6 6.7 0 4.5-2.2 7.1-5.2 8.6 4.5 1.9 7.4 4.5 7.4 9.7 0 6.8-5.5 10.6-13.9 10.8Zm52.5-4.5c.6-.6 1.3-.9 2.1-.9s1.6.3 2.1.9c.6.6.9 1.3.9 2.1s-.3 1.6-.9 2.2-1.3.9-2.1.9-1.6-.3-2.1-.9c-.6-.6-.9-1.3-.9-2.2 0-.8.3-1.5.9-2.1Zm-6.2-31.3c1.9 1.9 2.6 4.1 2.6 6.7 0 4.5-2.2 7.1-5.2 8.6 4.5 1.9 7.4 4.5 7.4 9.7 0 6.8-5.5 10.6-13.9 10.8h-19.5v-39.3h18.2v.1c4.5 0 8.2 1.1 10.4 3.4Zm-63.3-120.1.7-1 13.2-18 1.9 1.5c-1.1 1.5-1.5 3.4-1.1 5.2.3 1.6 1.2 3 2.4 4l.5.4 24.1 17.6c5.2 3.7 8.2 9 9.3 15 1 5.6-.2 11.5-3.4 16.3l-.7.9-16 22.1-2.2-1.6s1.1-1.5 1.7-3.6l.2-.6.2-.8c.2-1 .2-2 .2-3l-.1-.7v-.2c-.1-.8-.3-1.5-.6-2.3q0-.1-.1-.2c-.7-1.8-2-3.5-3.5-4.8l-.7-.5-20-14.6c-5.2-3.7-8.2-9-9.3-15-.4-1.1-.4-2.6-.4-3.7 0-4.5 1.2-8.6 3.7-12.4Zm-9 46.1.6-.9 6.1-8.2 2.3-3.4 2.3 1.9s-2.3 3.2.8 6.2l.5.4 15 10.9c2.9 2.3 4.9 5.4 5.9 8.8.3 1 1.3 5.9-.5 10.6-.3.7-.7 1.4-1 2.1l-.6 1-8.5 11.6-2.4-2c.1-.1.2-.2.2-.3.1-.2.2-.3.3-.5.5-.9.5-1.8.3-2.4 0-.2-.1-.3-.1-.5v-.1c0-.1-.1-.2-.2-.3l-.1-.2-.1-.2-.2-.3-.9-.9-.2-.2-15.5-11.1c-3.3-2.6-5.6-6.4-6.3-10.5-.1-.8-.1-1.7-.1-2.5 0-3.3.7-6.3 2.4-9Zm-10 44.8h66.3l2.5 7.9h-17.7l-3.3 11.2h-29.3l-3.3-11.2h-17.7l2.5-7.9Zm-20.6 25.7h18.2v.1c4.5 0 8.2 1.1 10.4 3.4 1.9 1.9 2.6 4.1 2.6 6.7 0 4.5-2.2 7.1-5.2 8.6 4.5 1.9 7.4 4.5 7.4 9.7 0 6.8-5.5 10.6-13.9 10.8h-19.5v-39.3Z"/>
  <path d="M387.509 213.581Zm-.571-208.497c-.066-.084-.124-.175-.193-.258-.025-.03-.053-.056-.078-.086.094.112.18.229.271.343Zm-10.427 214.345ZM82.379 70.586l20 14.6.7.5c1.5 1.3 2.8 3 3.5 4.8q.1.1.1.2c.3.8.5 1.5.6 2.3v.2l.1.7c0 1 0 2-.2 3l-.2.8-.2.6c-.6 2.1-1.7 3.6-1.7 3.6l2.2 1.6 16-22.1.7-.9c3.2-4.8 4.4-10.7 3.4-16.3-1.1-6-4.1-11.3-9.3-15l-24.1-17.6-.5-.4c-1.2-1-2.1-2.4-2.4-4-.4-1.8 0-3.7 1.1-5.2l-1.9-1.5-13.2 18-.7 1c-2.5 3.8-3.7 7.9-3.7 12.4 0 1.1 0 2.6.4 3.7 1.1 6 4.1 11.3 9.3 15Zm28.7 85.5v39.3h19.5c8.4-.2 13.9-4 13.9-10.8 0-5.2-2.9-7.8-7.4-9.7 3-1.5 5.2-4.1 5.2-8.6 0-2.6-.7-4.8-2.6-6.7-2.2-2.3-5.9-3.4-10.4-3.4v-.1h-18.2Zm24.4 27.8c0 2.6-2.2 4.1-5.9 4.1h-10.3v-8.6h10c4.4 0 6.3 1.9 6.2 4.5Zm-1.8-15.7c0 3-2.6 4.1-6.3 4.1h-7.8v-8.2h8.5c3.7 0 5.6 1.5 5.6 4.1Zm-57.8-18.7h29.3l3.3-11.2h17.7l-2.5-7.9h-66.3l-2.5 7.9h17.7l3.3 11.2zm72.1 46.6c.8 0 1.5-.3 2.1-.9s.9-1.4.9-2.2-.3-1.5-.9-2.1c-.5-.6-1.3-.9-2.1-.9s-1.5.3-2.1.9c-.6.6-.9 1.3-.9 2.1 0 .9.3 1.6.9 2.2.5.6 1.3.9 2.1.9Zm-1.8-4.9c.5-.5 1.1-.8 1.8-.8s1.4.3 1.8.8c.5.5.8 1.1.8 1.8 0 .8-.3 1.4-.8 1.9s-1.1.8-1.8.8-1.3-.3-1.8-.8c-.5-.6-.8-1.2-.8-1.9s.3-1.3.8-1.8Zm-74.8-83.6 15.5 11.1.2.2.9.9.2.3.1.2.1.2c.1.1.2.2.2.3v.1c0 .2.1.3.1.5.2.6.2 1.5-.3 2.4-.1.2-.2.3-.3.5 0 .1-.1.2-.2.3l2.4 2 8.5-11.6.6-1c.3-.7.7-1.4 1-2.1 1.8-4.7.8-9.6.5-10.6-1-3.4-3-6.5-5.9-8.8l-15-10.9-.5-.4c-3.1-3-.8-6.2-.8-6.2l-2.3-1.9-2.3 3.4-6.1 8.2-.6.9c-1.7 2.7-2.4 5.7-2.4 9 0 .8 0 1.7.1 2.5.7 4.1 3 7.9 6.3 10.5Zm28.5 67.3c3-1.5 5.2-4.1 5.2-8.6 0-2.6-.7-4.8-2.6-6.7-2.2-2.3-5.9-3.4-10.4-3.4v-.1h-18.2v39.3h19.5c8.4-.2 13.9-4 13.9-10.8 0-5.2-2.9-7.8-7.4-9.7Zm-17.8-10.8h8.9c3.7 0 5.6 1.5 5.6 4.1 0 3-2.6 4.1-6.3 4.1h-8.2v-8.2Zm10.4 23.9h-10.4v-8.6h10.4c4.5 0 6.3 1.9 6.3 4.5s-2.6 4.1-6.3 4.1Zm-36.2 7.4c8.4-.2 13.9-4 13.9-10.8 0-5.2-2.9-7.8-7.4-9.7 3-1.5 5.2-4.1 5.2-8.6 0-2.6-.7-4.8-2.6-6.7-2.2-2.3-5.9-3.4-10.4-3.4v-.1h-18.2v39.3h19.5Zm-11.3-31.3h8.9c3.7 0 5.6 1.5 5.6 4.1 0 3-2.6 4.1-6.3 4.1h-8.2v-8.2Zm0 15.3h10.4c4.4 0 6.3 1.9 6.3 4.5s-2.6 4.1-6.3 4.1h-10.4v-8.6Z"/>
  <path d="M147.379 193.286h.5c.4 0 .6 0 .7.1.2.2.3.4.3.8v.4h.5v-.6c0-.2-.1-.3-.2-.5-.2-.1-.3-.3-.6-.3.2-.1.4-.1.5-.2.2-.2.3-.4.3-.7 0-.4-.2-.7-.5-.8-.2-.1-.5-.1-.9-.1v-.1h-1.2v3.3h.6v-1.3Zm115.5-36.1c-1.4 0-2.8.1-4.3.2-1.4.1-2.7.4-3.9.7-1.2.4-2.1.9-2.8 1.5-.7.6-1.1 1.6-1.1 2.7 0 .8.2 1.6.5 2.1s.7 1 1.3 1.4c.6.4 1.1.6 1.8.8.7.2 1.3.2 2 .2 1.2 0 2.3-.2 3.2-.6.9-.4 1.7-1 2.4-1.7.6-.7 1.1-1.6 1.5-2.5.4-.9.5-1.9.5-3v-1.8h-1.1Zm89.6-4c-.5-1.1-1.1-2.1-1.9-2.9s-1.8-1.5-2.9-2c-1.1-.5-2.3-.8-3.6-.8-1.4 0-2.7.3-3.8.8s-2 1.2-2.8 2-1.3 1.8-1.7 2.9c-.4 1.3-.6 2.5-.6 3.7s.2 2.4.6 3.5c.4 1.1 1 2.1 1.7 2.9.8.8 1.7 1.5 2.8 2s2.4.7 3.8.7c1.3 0 2.5-.2 3.6-.7 1.1-.4 2.1-1.1 2.9-1.9s1.4-1.8 1.9-2.9c.5-1.1.7-2.4.7-3.8 0-1.2-.2-2.4-.7-3.5Zm-113.8-10.4c0-1.2-.2-2.2-.7-3-.4-.8-1-1.5-1.8-2s-1.7-.9-2.8-1.1c-1.1-.2-2.3-.4-3.7-.4h-6.5v12.9h6.3c2.9 0 5.2-.5 6.8-1.6 1.6-1.1 2.4-2.7 2.4-4.8Zm.9-56.299h16.1l-7.9-22.201-8.2 22.201z"/>
  <path d="M389.505 10.59a13.186 13.186 0 0 0-2.567-5.506c-.09-.115-.177-.232-.271-.343a13.136 13.136 0 0 0-.778-.856 13.332 13.332 0 0 0-4.216-2.843A13.246 13.246 0 0 0 376.51 0H13.263a13.202 13.202 0 0 0-8.437 3.029c-.483.399-.927.842-1.349 1.305-.436.478-.849.977-1.212 1.514A13.224 13.224 0 0 0 0 13.264v192.902c0 2.747.835 5.299 2.265 7.416.477.706 1.02 1.363 1.62 1.963 1.5 1.5 3.358 2.642 5.434 3.288 1.246.388 2.571.596 3.944.596h363.248c1.373 0 2.698-.209 3.944-.596a13.255 13.255 0 0 0 5.434-3.288c.6-.6 1.143-1.257 1.62-1.963a13.204 13.204 0 0 0 2.265-7.416V13.263c0-.916-.093-1.81-.269-2.673ZM183.699 213.428H13.263c-4.005 0-7.263-3.258-7.263-7.263V13.263C6 9.258 9.258 6 13.263 6h170.436v207.429Zm56.78-166.242h15.1l26.7 64.5h-17.3l-5-12.7h-24.9l-4.7 12.7h-16.8l26.9-64.5Zm-1.3 121.9-9.9-16.8h-6v16.8h-3.7v-35.9h10.5c1.7 0 3.4.2 4.9.5 1.5.3 2.8.9 3.9 1.6 1.1.8 1.9 1.7 2.5 3 .6 1.2.9 2.7.9 4.5 0 1.3-.2 2.5-.7 3.6-.5 1.1-1.1 2-1.9 2.8-.8.8-1.8 1.4-2.9 1.9-1.1.5-2.3.8-3.6.9l10.4 17.1h-4.4Zm25.3 0c-.1-.6-.2-1.2-.3-1.9-.1-.7-.1-1.3-.1-2h-.1c-1.1 1.6-2.3 2.7-3.7 3.4s-3 1-4.9 1c-.9 0-1.8-.1-2.8-.4s-1.8-.7-2.6-1.2c-.8-.6-1.4-1.3-2-2.2-.5-.9-.8-2-.8-3.3 0-1.8.5-3.3 1.4-4.3.9-1.1 2.2-1.9 3.7-2.4s3.3-.9 5.3-1c2-.2 4.1-.2 6.2-.2v-.8h.1c0-2.1-.5-3.6-1.6-4.6-1.1-1-2.6-1.5-4.7-1.5-1.4 0-2.7.3-3.9.8-1.2.5-2.2 1.2-3.1 2l-1.9-2.3c1-1 2.3-1.8 3.9-2.4 1.6-.6 3.4-1 5.4-1 1.3 0 2.5.2 3.6.5s2.1.9 2.9 1.6 1.5 1.6 2 2.7.7 2.3.7 3.8v10.4c0 .9 0 1.9.1 2.8.1 1 .2 1.8.3 2.5h-3.1Zm21.5-20.9h-6.7v13.8c0 .9.1 1.6.3 2.2.2.6.4 1 .7 1.3s.7.5 1.1.7c.4.1.9.2 1.4.2s1-.1 1.5-.2 1-.3 1.5-.6l.2 3c-.6.2-1.2.4-1.9.5-.7.1-1.4.2-2.1.2-.6 0-1.3-.1-2-.3-.7-.2-1.4-.5-2-1-.6-.5-1.1-1.1-1.5-1.9-.4-.8-.6-1.9-.6-3.2v-14.8h-4.9v-2.9h4.9v-6.7h3.4v6.7h6.7v3Zm.1-69.9h19.2v-19.1h11.8v19.1h19.3v11.5h-19.2v19.1h-11.8v-19.1h-19.3v-11.5Zm8.8 90.8h-3.4v-23.7h3.4v23.7Zm-.1-31.2c-.5.5-1.1.7-1.7.7s-1.2-.2-1.7-.7-.8-1-.8-1.7.3-1.3.8-1.7c.5-.5 1.1-.7 1.7-.7s1.2.2 1.7.7c.5.4.8 1 .8 1.7s-.3 1.3-.8 1.7Zm29.6 31.1h-3.4v-13.1c0-1.2-.1-2.4-.3-3.4-.2-1-.5-1.9-1-2.6s-1.1-1.3-2-1.7c-.8-.4-1.9-.6-3.1-.6-.9 0-1.8.2-2.6.6-.9.4-1.6.9-2.3 1.7-.7.8-1.2 1.7-1.6 2.9-.4 1.2-.6 2.5-.6 4.1v12.2h-3.4v-18.5c0-.6 0-1.5-.1-2.5 0-1-.1-1.9-.2-2.7h3.2c.1.6.1 1.4.2 2.1 0 .8.1 1.4.1 1.9h.1c.7-1.4 1.8-2.5 3.3-3.4 1.5-.9 3.1-1.3 4.8-1.3 3 0 5.2.9 6.7 2.7 1.5 1.8 2.2 4.2 2.2 7.1v14.5Zm31.6-.2c0 1.3-.2 2.7-.5 4.1-.4 1.5-1 2.8-2 4s-2.3 2.2-3.9 3c-1.6.8-3.8 1.2-6.4 1.2-2.2 0-4.3-.4-6.2-1.3-2-.8-3.7-2-5.1-3.5l2.6-2.5c.9 1.2 2.2 2.2 3.9 3.1 1.6.8 3.4 1.3 5.2 1.3 1.7 0 3.1-.2 4.3-.7s2.1-1.2 2.8-2 1.3-1.8 1.6-3c.3-1.1.5-2.3.5-3.6v-4.5h-.2c-.9 1.5-2.2 2.6-3.9 3.4s-3.4 1.2-5.1 1.2c-1.8 0-3.5-.3-5-.9-1.5-.6-2.8-1.4-3.8-2.5-1.1-1.1-1.9-2.3-2.5-3.8-.6-1.5-.9-3.1-.9-4.8s.3-3.3.9-4.8c.6-1.5 1.4-2.8 2.5-3.9s2.3-2 3.8-2.6c1.5-.6 3.2-1 5-1 1.7 0 3.4.4 5 1.2 1.6.8 2.9 2 3.9 3.5h.1v-4.1h3.4v23.5Z"/>
  <path fill="#fff" d="M263.779 154.586c-2.1 0-4.2 0-6.2.2-2 .1-3.8.5-5.3 1s-2.8 1.3-3.7 2.4c-.9 1-1.4 2.5-1.4 4.3 0 1.3.3 2.4.8 3.3.6.9 1.2 1.6 2 2.2.8.5 1.6.9 2.6 1.2s1.9.4 2.8.4c1.9 0 3.5-.3 4.9-1s2.6-1.8 3.7-3.4h.1c0 .7 0 1.3.1 2s.2 1.3.3 1.9h3.1c-.1-.7-.2-1.5-.3-2.5-.1-.9-.1-1.9-.1-2.8v-10.4c0-1.5-.2-2.7-.7-3.8-.5-1.1-1.2-2-2-2.7s-1.8-1.3-2.9-1.6c-1.1-.3-2.3-.5-3.6-.5-2 0-3.8.4-5.4 1-1.6.6-2.9 1.4-3.9 2.4l1.9 2.3c.9-.8 1.9-1.5 3.1-2 1.2-.5 2.5-.8 3.9-.8 2.1 0 3.6.5 4.7 1.5s1.6 2.5 1.6 4.6h-.1v.8Zm.2 2.6v1.8c0 1.1-.1 2.1-.5 3-.4.9-.9 1.8-1.5 2.5-.7.7-1.5 1.3-2.4 1.7-.9.4-2 .6-3.2.6-.7 0-1.3 0-2-.2s-1.2-.4-1.8-.8c-.6-.4-1-.9-1.3-1.4s-.5-1.3-.5-2.1c0-1.1.4-2.1 1.1-2.7.7-.6 1.6-1.1 2.8-1.5 1.2-.3 2.5-.6 3.9-.7 1.5-.1 2.9-.2 4.3-.2h1.1Zm-24.3-8c.8-.8 1.4-1.7 1.9-2.8.5-1.1.7-2.3.7-3.6 0-1.8-.3-3.3-.9-4.5-.6-1.3-1.4-2.2-2.5-3-1.1-.7-2.4-1.3-3.9-1.6-1.5-.3-3.2-.5-4.9-.5h-10.5v35.9h3.7v-16.8h6l9.9 16.8h4.4l-10.4-17.1c1.3-.1 2.5-.4 3.6-.9s2.1-1.1 2.9-1.9Zm-10.2 0h-6.3v-12.9h6.5c1.4 0 2.6.2 3.7.4s2 .6 2.8 1.1 1.4 1.2 1.8 2c.5.8.7 1.8.7 3 0 2.1-.8 3.7-2.4 4.8-1.6 1.1-3.9 1.6-6.8 1.6Zm26.1-101.999h-15.1l-26.9 64.5h16.8l4.7-12.7h24.9l5 12.7h17.3l-26.7-64.5Zm-16 39.3 8.2-22.2 7.9 22.2h-16.1Zm112.7 85.999c-.3 1.2-.9 2.2-1.6 3s-1.6 1.5-2.8 2-2.6.7-4.3.7c-1.8 0-3.6-.5-5.2-1.3-1.7-.9-3-1.9-3.9-3.1l-2.6 2.5c1.4 1.5 3.1 2.7 5.1 3.5 1.9.9 4 1.3 6.2 1.3 2.6 0 4.8-.4 6.4-1.2 1.6-.8 2.9-1.8 3.9-3s1.6-2.5 2-4c.3-1.4.5-2.8.5-4.1v-23.5h-3.4v4.1h-.1c-1-1.5-2.3-2.7-3.9-3.5-1.6-.8-3.3-1.2-5-1.2-1.8 0-3.5.4-5 1s-2.7 1.5-3.8 2.6c-1.1 1.1-1.9 2.4-2.5 3.9-.6 1.5-.9 3.1-.9 4.8s.3 3.3.9 4.8c.6 1.5 1.4 2.7 2.5 3.8 1 1.1 2.3 1.9 3.8 2.5 1.5.6 3.2.9 5 .9 1.7 0 3.4-.4 5.1-1.2s3-1.9 3.9-3.4h.2v4.5c0 1.3-.2 2.5-.5 3.6Zm.2-12c-.5 1.1-1.1 2.1-1.9 2.9s-1.8 1.5-2.9 1.9c-1.1.5-2.3.7-3.6.7-1.4 0-2.7-.2-3.8-.7s-2-1.2-2.8-2c-.7-.8-1.3-1.8-1.7-2.9-.4-1.1-.6-2.3-.6-3.5s.2-2.4.6-3.7c.4-1.1.9-2.1 1.7-2.9s1.7-1.5 2.8-2 2.4-.8 3.8-.8c1.3 0 2.5.3 3.6.8s2.1 1.2 2.9 2 1.4 1.8 1.9 2.9c.5 1.1.7 2.3.7 3.5 0 1.4-.2 2.7-.7 3.8Zm-28.1 8.501v-14.5c0-2.9-.7-5.3-2.2-7.1-1.5-1.8-3.7-2.7-6.7-2.7-1.7 0-3.3.4-4.8 1.3s-2.6 2-3.3 3.4h-.1c0-.5-.1-1.1-.1-1.9-.1-.7-.1-1.5-.2-2.1h-3.2c.1.8.2 1.7.2 2.7.1 1 .1 1.9.1 2.5v18.5h3.4v-12.2c0-1.6.2-2.9.6-4.1.4-1.2.9-2.1 1.6-2.9.7-.8 1.4-1.3 2.3-1.7.8-.4 1.7-.6 2.6-.6 1.2 0 2.3.2 3.1.6.9.4 1.5 1 2 1.7s.8 1.6 1 2.6c.2 1 .3 2.2.3 3.4v13.1h3.4Zm-38.4-20.8v-3h-6.7v-6.7h-3.4v6.7h-4.9v2.9h4.9v14.8c0 1.3.2 2.4.6 3.2.4.8.9 1.4 1.5 1.9s1.3.8 2 1c.7.2 1.4.3 2 .3.7 0 1.4-.1 2.1-.2.7-.1 1.3-.3 1.9-.5l-.2-3c-.5.3-1 .5-1.5.6-.5.1-1 .2-1.5.2s-1-.1-1.4-.2c-.4-.2-.8-.4-1.1-.7s-.5-.7-.7-1.3c-.2-.6-.3-1.3-.3-2.2v-13.8h6.7Zm50.4-69.901h-19.3v-19.1h-11.8v19.1h-19.2v11.5h19.3v19.1h11.8v-19.1h19.2v-11.5zm-44.9 67.1h3.4v23.7h-3.4zm3.3-10.899c-.5-.5-1.1-.7-1.7-.7s-1.2.2-1.7.7c-.5.4-.8 1-.8 1.7s.3 1.2.8 1.7 1.1.7 1.7.7 1.2-.2 1.7-.7c.5-.4.8-1 .8-1.7s-.3-1.3-.8-1.7Z"/>
</svg>
