<svg xmlns="http://www.w3.org/2000/svg" data-name="katman 1" viewBox="0 0 298.02 264.231">
  <path d="M297.953 104.331c0 6.086.177 12.178-.045 18.256-.272 7.446-3.02 14.025-9.207 18.33-2.971 2.067-6.888 2.933-10.5 3.867-2.249.582-3.316 1.313-3.63 3.786-7.836 61.738-56.9 110.181-118.723 115.117-56.157 4.484-98.951-18.792-128.203-66.851-1.441-2.368-2.614-3.107-5.365-2.509-11.635 2.531-19.733-3.321-20.572-15.254C.798 166.128.252 153.145.005 140.17c-.142-7.448 3.03-13.813 8.915-18.51 1.723-1.375 2.487-2.786 2.796-4.912 7.336-50.494 34.348-86.466 81.156-106.494 60.839-26.031 132.994-.849 165.381 56.839 1.709 3.044 3.266 4.102 6.736 3.115 4.21-1.198 8.601-1.774 12.928-2.542 7.347-1.304 13.379 1.694 16.31 8.551 1.189 2.783 1.811 5.931 2.063 8.965.53 6.365.644 12.764.929 19.149h.736ZM49.06 111.883c7.911-1.531 14.74-2.963 21.615-4.123 2.358-.398 3.536-1.416 4.456-3.624 11.501-27.634 38.325-45.44 68.237-45.295 20.376.099 37.783 7.509 52.212 21.832 1.75 1.737 3.295 2.358 5.755 1.81 6.334-1.411 12.737-2.511 19.108-3.762.641-.126 1.245-.434 2.4-.85L211.66 62.359l.749-.627c4.129 4.435 8.419 8.735 12.308 13.37 1.613 1.922 2.998 2.339 5.328 1.84 7.129-1.525 14.308-2.811 21.465-4.204 1.22-.238 2.425-.55 3.711-.846-23.876-46.678-85.028-81.694-151.08-60.726-32.708 10.383-57.188 31.233-73.622 61.351-7.697 14.106-12.394 29.184-14.12 45.672 9.401-1.807 18.133-3.418 26.817-5.257.915-.194 1.857-1.619 2.249-2.673 1.426-3.83 2.301-7.892 3.985-11.593 2.472-5.434 5.462-10.633 8.231-15.932l.825.435c-1.754 4.537-3.69 9.014-5.213 13.628-1.548 4.691-2.69 9.516-4.232 15.087Zm220.578 34.845c-1.235.166-2.225.249-3.194.436a22281.299 22281.299 0 0 0-31.392 6.086c-6.568 1.277-13.114 2.678-19.711 3.78-2.205.368-3.231 1.397-4.009 3.349-3.407 8.539-8.343 16.137-14.762 22.71-29.598 30.308-76.237 30.525-106.247.479-1.458-1.46-2.744-1.869-4.739-1.411-7.85 1.803-15.715 3.559-23.621 5.095-6.243 1.213-12.563 2.025-18.831 3.118-3.969.692-7.906 1.575-11.961 2.393 20.104 39.909 72.934 77.809 138.325 64.167 63.87-13.325 97.163-68.274 100.144-110.201Zm-63.341 12.093L94.665 180.407c10.058 12.459 33.973 23.901 58.813 19.962 23.759-3.767 49.257-23.634 52.819-41.548Zm-14.582-74.52c-9.923-12.42-33.879-23.669-58.451-20.053-29.106 4.284-47.938 25.808-53.245 41.652l111.696-21.599ZM70.627 154.133l-.55.163c-.42-.944-.86-1.879-1.255-2.833-3.014-7.283-5.984-14.585-9.038-21.851-3.21-7.637-3.23-7.545-11.348-6.112-2.218.392-2.929 1.238-2.89 3.501.278 16.165.419 32.332.619 48.498.009.767.16 1.533.282 2.625 1.86-.326 3.492-.77 5.144-.864 2.626-.148 3.496-1.259 3.409-3.961-.339-10.472-.435-20.952-.618-31.429-.016-.92-.002-1.841-.002-2.762 4.348 9.353 8.108 18.776 11.908 28.182 2.707 6.702 2.71 6.572 9.952 5.296 2.623-.462 3.357-1.552 3.31-4.132-.289-15.865-.414-31.733-.611-47.6-.012-.948-.166-1.894-.277-3.087-1.896.335-3.439.754-5.001.85-2.79.173-3.564 1.495-3.471 4.243.332 9.873.408 19.754.569 29.633.009.545-.085 1.092-.131 1.638Zm121.865-31.204c5.779-4.874 7.226-10.727 6.014-17.373-.96-5.262-4.379-8.238-9.733-8.438-1.88-.07-3.8.105-5.657.425-4.428.763-8.808 1.826-13.25 2.475-2.49.364-3.253 1.337-3.206 3.872.293 15.877.409 31.757.594 47.635.011.959.112 1.917.191 3.2 2.5-.427 4.628-.891 6.781-1.128 2.137-.236 2.803-1.265 2.738-3.377a419.951 419.951 0 0 1-.157-17.675c.011-.963.696-2.599 1.364-2.768 6.402-1.627 10.364-2.187 10.571 6.848.066 2.895.117 5.791.246 8.684.053 1.192.184 2.405.498 3.549.148.541.867 1.384 1.226 1.336 2.468-.331 4.932-.777 7.34-1.406.435-.114.873-1.251.852-1.901a426.735 426.735 0 0 0-.644-13.757c-.26-4.1-1.041-7.994-5.767-10.2Zm49.449 17.606c5.803-1.229 11.308-2.138 16.665-3.592 7.068-1.919 11.8-6.666 14.013-13.601 3.075-9.637 3.298-19.495.887-29.281-2.1-8.524-7.552-12.011-16.274-10.788-4.347.61-8.625 1.708-12.971 2.325-2.536.36-3.177 1.483-3.132 3.954.287 15.878.408 31.759.594 47.639.011.961.123 1.921.219 3.345Zm-107.257-33.521c-2.949.502-5.074.978-7.226 1.199-2.269.233-2.913 1.319-2.868 3.549.238 11.777.281 23.559.503 35.337.041 2.172.402 4.386.963 6.488.865 3.241 2.815 5.688 6.103 6.885 10.139 3.694 23.476-3.436 25.749-13.9.525-2.415.677-4.954.664-7.434-.059-11.181-.234-22.361-.383-33.541-.013-.943-.145-1.884-.251-3.18-2.42.461-4.444 1.03-6.499 1.189-2.472.192-3.043 1.367-3.001 3.687.205 11.279.292 22.56.309 33.841.003 2.166-.187 4.427-.827 6.477-1.074 3.444-4.848 5.545-8.278 5.034-2.793-.417-4.397-2.385-4.695-6.414-.271-3.678-.242-7.381-.254-11.073-.031-9.167-.01-18.335-.01-28.143Zm-39.782 46.662c-2.709.518-5.183.866-7.571 1.526-.675.187-1.543 1.276-1.563 1.973-.168 5.859 4.206 10.953 10.062 11.49 6.43.59 12.338-1.054 17.23-5.399 10.021-8.902 7.001-23.837-5.612-28.034-2.271-.756-4.623-1.299-6.839-2.185-3.495-1.396-4.669-3.665-4.105-7.348.485-3.168 2.596-5.284 5.695-5.674 3.696-.466 4.764 1.949 5.65 4.869.181.596 1.985 1.309 2.665 1.035 2.286-.922 6.185.8 6.748-2.752.8-5.045-3.465-10.218-8.57-11.004-6.041-.931-11.54.677-16.193 4.614-5.139 4.348-6.49 10.132-5.45 16.541.962 5.923 5.56 8.122 10.545 9.837 2.449.842 5.001 1.495 7.296 2.651 4.462 2.247 5.533 8.516 2.246 12.288-1.842 2.114-4.285 2.943-7.011 2.58-2.65-.353-3.754-2.382-4.456-4.698-.199-.655-.43-1.301-.767-2.31Zm120.931-40.853c0-3.786.117-6.966-.04-10.133-.108-2.187.535-3.238 2.846-3.588 4.438-.671 8.846-1.578 13.224-2.576.806-.184 1.915-1.193 2.009-1.932.271-2.133.096-4.323.096-6.807-1.633.253-2.8.396-3.951.619-6.862 1.326-13.698 2.805-20.59 3.94-2.645.435-3.385 1.482-3.336 4.087.293 15.869.417 31.742.609 47.613.011.951.116 1.901.198 3.172 8.984-1.744 17.598-3.393 26.193-5.134.631-.128 1.508-.843 1.621-1.413.451-2.281.646-4.613.988-7.348l-19.563 3.659c0-4.6.119-8.77-.049-12.93-.087-2.152.678-3.019 2.751-3.351 4.138-.664 8.26-1.462 12.346-2.392.827-.188 1.997-1.134 2.091-1.851.279-2.126.1-4.313.1-6.873l-17.542 3.238ZM35.8 126.122c-2.288.396-4.314.894-6.367 1.066-2.533.211-3.234 1.383-3.189 3.88.284 15.857.405 31.717.592 47.575.011.966.139 1.931.241 3.266 2.341-.424 4.356-.964 6.401-1.114 2.591-.19 3.19-1.412 3.145-3.879-.29-15.957-.42-31.916-.614-47.875-.011-.87-.122-1.738-.209-2.919Z"/>
  <path fill="#fff" d="M49.061 111.883c1.542-5.571 2.684-10.396 4.232-15.087 1.523-4.613 3.458-9.091 5.213-13.628l-.825-.435c-2.769 5.299-5.759 10.498-8.231 15.932-1.684 3.701-2.559 7.763-3.985 11.593-.392 1.054-1.335 2.479-2.249 2.673-8.684 1.839-17.416 3.45-26.817 5.257 1.726-16.487 6.423-31.566 14.12-45.672 16.434-30.118 40.914-50.968 73.622-61.351C170.193-9.802 231.345 25.213 255.22 71.891c-1.286.295-2.492.608-3.711.846-7.157 1.394-14.337 2.679-21.465 4.204-2.33.499-3.715.082-5.328-1.84-3.89-4.635-8.18-8.935-12.308-13.37l-.749.627 11.183 15.512c-1.154.415-1.759.724-2.4.85-6.37 1.251-12.774 2.351-19.108 3.762-2.46.548-4.005-.072-5.755-1.81-14.429-14.323-31.836-21.733-52.212-21.832-29.912-.145-56.736 17.661-68.237 45.295-.919 2.208-2.097 3.226-4.456 3.624-6.875 1.16-13.704 2.592-21.615 4.123Zm78.022-81.108.549-.178c.33.442.731.848.978 1.332 2.173 4.269 4.44 8.497 6.426 12.852 1.169 2.563 3.151 1.791 4.808 1.343.608-.165 1.184-1.992 1.081-2.989-.726-7.047-1.647-14.074-2.468-21.112-.181-1.556-.177-2.957-2.497-2.719-2.303.236-2.106 1.547-1.895 3.15.593 4.49 1.127 8.988 1.684 13.482-1.09-.817-1.687-1.816-2.224-2.847-1.892-3.628-3.829-7.235-5.619-10.913-1.134-2.329-3.011-1.568-4.65-1.183-.634.149-1.531 1.344-1.465 1.974.81 7.741 1.73 15.471 2.789 23.182.09.654 1.335 1.532 2.127 1.631 1.806.226 2.348-.865 2.11-2.634-.644-4.781-1.166-9.579-1.736-14.371Zm66.504-.033c-.803 1.258-1.465 2.224-2.054 3.232-2.767 4.737-5.5 9.494-8.272 14.228q-3.742 6.389 2.9 9.693c4.172 2.076 7.999 1.881 10.823-1.755 2.877-3.703 5.152-7.984 7.058-12.292 1.36-3.074.082-6.19-2.659-8.225-2.372-1.76-5.011-3.16-7.796-4.882Zm-48.348 7.972c-.167.418-.359.682-.368.953-.119 3.58 1.718 6.216 5.034 7.264 4.133 1.306 8.026.346 10.053-2.48 2.061-2.874 2.103-7.492-.278-10.03-1.541-1.643-3.751-2.652-5.326-4.272-1.128-1.159-1.975-2.788-2.373-4.354-.143-.561 1.289-2.048 2.191-2.244 2.137-.465 2.577 1.367 3.441 2.906.473.842 2.326.911 3.557 1.328.277-.91.892-1.869.77-2.722-.445-3.123-2.583-4.892-6.214-5.477-3.527-.567-6.462.71-7.936 3.453-1.985 3.694-1.047 7.614 2.463 10.328 1.805 1.396 3.811 2.608 5.341 4.26 1.503 1.623.877 4.608-.769 5.553-1.676.962-4.274.264-4.687-1.69-.662-3.132-2.723-2.788-4.898-2.777Zm-31.502-11.392q-.924-4.085-4.257-2.936c-2.64.916-5.25 1.926-7.919 2.75-1.652.51-1.952 1.373-1.401 2.909 2.528 7.043 5.038 14.094 7.471 21.17.577 1.68 1.376 2.22 3.096 1.559 2.701-1.038 5.462-1.918 8.189-2.891 3.046-1.087 3.212-1.641 1.481-4.701-.195-.012-.41-.084-.581-.027-1.798.601-3.651 1.088-5.366 1.873-2.224 1.018-3.159.316-3.852-1.918-1.593-5.14-2.248-4.308 2.895-6.131.564-.2 1.125-.415 1.701-.578 1.375-.388 2.025-1.044 1.443-2.615-.554-1.496-1.228-2.114-2.874-1.429-1.904.793-3.897 1.37-6.031 2.103-.495-1.241-.771-2.199-1.237-3.053-1.33-2.435-.476-3.601 2.07-4.204 1.724-.408 3.355-1.206 5.172-1.883Zm58.086 11.42c2.217.679 4.158 1.46 6.175 1.8.832.14 2.195-.416 2.664-1.102.892-1.303.376-2.403-1.329-2.823-1.449-.357-2.913-.771-4.254-1.404-.639-.302-1.444-1.183-1.431-1.784.091-4.004 1.568-5.01 5.324-3.846 1.048.325 2.099.938 3.136.911.811-.021 2.05-.67 2.278-1.326.238-.684-.292-2.283-.855-2.494-3.709-1.387-7.519-2.506-11.655-3.828-2.679 8.326-5.3 16.354-7.768 24.429-.15.492.773 1.721 1.441 1.98 2.693 1.046 5.478 1.857 8.237 2.732 3.448 1.093 3.719.912 4.358-2.916l-8.65-3.032 2.329-7.296Zm-70.135 9.382c-2.401.802-4.147 1.724-3.343 4.717.198.737-.644 2.216-1.4 2.617-.754.401-2.324.256-2.976-.302-4.196-3.596-6.925-8.202-8.21-13.553-.207-.863.582-2.378 1.373-2.941.667-.475 2.436-.428 2.976.119 2.41 2.442 3.78.506 5.428-.797-2.093-3.755-5.252-5.14-8.731-3.943-4.137 1.422-6.559 4.928-5.722 8.983 1.286 6.237 4.49 11.515 9.261 15.693 3.029 2.652 7.11 2.191 10.331-.713 2.845-2.566 3.259-6.102 1.013-9.879Zm-27.816 26.48c-5.049-4.305-9.819-8.384-14.603-12.448-3.183-2.704-3.301-2.672-5.773 1.509l20.377 17.368c2.547-2.959 4.77-5.516 6.963-8.099 2.162-2.546 2.072-2.914-1.211-4.9l-5.752 6.57Zm14.934-8.916L71.098 45.181l-3.656 3.227 17.623 20.427 3.742-3.147Zm180.833 81.04c-2.982 41.927-36.274 96.876-100.144 110.201-65.39 13.642-118.22-24.258-138.325-64.167 4.055-.818 7.992-1.7 11.961-2.393 6.268-1.093 12.588-1.905 18.831-3.118 7.906-1.536 15.771-3.292 23.621-5.095 1.995-.458 3.281-.049 4.739 1.411 30.011 30.047 76.65 29.83 106.247-.479a68.65 68.65 0 0 0 14.762-22.71c.778-1.951 1.805-2.98 4.009-3.349 6.597-1.102 13.144-2.503 19.711-3.78 10.463-2.034 20.926-4.067 31.392-6.086.969-.187 1.959-.27 3.194-.436Zm-79.863 85.778-7.579-14.827c.849-.102 1.214.063 1.495.319 3.681 3.368 7.425 6.673 10.993 10.158 1.936 1.891 3.289.256 4.765-.46 1.898-.92.639-2.17.093-3.235-2.549-4.971-5.133-9.925-7.713-14.88-1.135-2.179-2.292-4.347-3.529-6.691l-3.755 2.131 7.338 14.189c-1.01-.118-1.582-.493-2.086-.944-3.273-2.927-6.622-5.776-9.761-8.841-2.144-2.092-3.734-.362-5.217.638-.48.324-.32 2.25.119 3.171 1.888 3.96 3.985 7.82 6.012 11.714 1.644 3.16 3.295 6.316 5.08 9.735l3.746-2.177ZM92.8 198.6c-4.314 6.662-8.532 13.179-12.754 19.694-2.054 3.17-1.891 3.58 2.126 4.736l9.008-13.812c.387 1.207.241 2.161.027 3.101-.997 4.375-1.954 8.761-3.044 13.113-.632 2.523 1.368 3.013 2.802 3.923 1.836 1.165 2.214-.659 2.838-1.605 3.791-5.745 7.509-11.538 11.26-17.31 2.138-3.29 2.097-3.432-1.907-5.04l-8.792 13.427c.399-4.543 1.347-8.811 2.283-13.081q1.05-4.787-3.847-7.148Zm56.39 29.766c.409-.525.645-.843.896-1.148 2.006-2.441 2.023-5.168.87-7.889-1.107-2.612-3.456-3.455-6.112-3.532-2.095-.061-4.199.064-6.289-.061-2.006-.119-2.568.746-2.538 2.645.094 5.788.045 11.579.047 17.368q.003 7.229 7.248 7.153c3.583-.03 6.973-.66 8.42-4.403 1.432-3.705 1.132-7.283-2.542-10.133Zm-39.014-19.648c-2.345 6.822-4.507 13.12-6.674 19.415q-2.31 6.712 4.623 8.746c4.399 1.291 8.184.495 10.161-3.375 2.178-4.264 3.622-8.986 4.773-13.66.692-2.81-.591-5.719-3.31-7.157-2.946-1.557-6.17-2.587-9.574-3.969Zm80.888-7.922c4.781 5.429 9.165 10.573 13.731 15.549 5.165 5.628 3.064 6.034 9.484.354 3.652-3.231 4.779-6.918 2.366-10.673-2.536-3.947-5.836-7.504-9.264-10.743-2.271-2.145-5.571-2.535-8.384-.711-2.716 1.762-5.127 3.992-7.933 6.224Zm48.481-16.022c6.554-10.528 4.969-16.032-5.597-20.676-9.661-4.247-13.608-2.704-17.715 6.925-.196.459-.631.963-.549 1.362.182.879.397 2.208.993 2.475 7.539 3.377 15.148 6.598 22.868 9.914Zm-64.375 46.427.784-.251c-1.488-4.589-2.648-9.321-4.564-13.724-1.638-3.762-4.811-4.903-8.661-4.152-3.685.718-6.167 3.21-6.452 7.215-.435 6.107.988 11.882 4.314 17.06 1.783 2.776 4.476 3.812 7.773 3.179 4.743-.912 6.882-3.824 6.806-9.327Zm-102.746-15.2c.365-.425.798-.83 1.113-1.311 4.268-6.512 8.409-13.111 12.835-19.514 1.571-2.273.005-3.124-1.096-4.46-1.216-1.475-2.304-2.16-4.252-.91-4.115 2.64-8.395 5.022-12.598 7.525-2.968 1.767-5.92 3.561-8.892 5.35 2.694 3.899 2.776 3.997 6.183 1.627 1.818-1.264 3.045-1.591 4.785.284 1.715 1.847 2.16 3.124.449 5.268-2.578 3.231-2.366 3.602 1.471 6.141Zm152.831-30.094c-2.665-3.066-2.971-3.06-5.099-.124-.977 1.349-1.98 2.679-3.133 4.236l-5.235-3.699 5.11-7.452-3.345-2.426c-2.335 3.187-4.441 6.205-6.708 9.098-1.197 1.527-1.096 2.46.529 3.598 5.145 3.6 10.195 7.335 15.291 11.006 1.507 1.086 3.044 2.131 4.805 3.36l8.13-11.195-3.002-2.861-5.845 7.685-6.237-4.516 4.74-6.709ZM70.628 154.133c.046-.546.14-1.093.131-1.638-.161-9.878-.236-19.76-.569-29.633-.093-2.749.681-4.071 3.471-4.243 1.562-.097 3.105-.516 5.001-.85.111 1.192.265 2.139.277 3.087.196 15.867.322 31.735.611 47.6.047 2.58-.687 3.669-3.31 4.132-7.242 1.276-7.245 1.406-9.952-5.296-3.8-9.406-7.56-18.829-11.908-28.182 0 .921-.014 1.842.002 2.762.182 10.477.278 20.957.618 31.429.088 2.702-.783 3.812-3.409 3.961-1.652.093-3.284.538-5.144.864-.121-1.092-.272-1.858-.282-2.625-.2-16.166-.341-32.333-.619-48.498-.039-2.263.672-3.109 2.89-3.501 8.117-1.433 8.138-1.526 11.348 6.112 3.054 7.266 6.024 14.568 9.038 21.851.395.954.836 1.889 1.255 2.833l.55-.163Zm121.864-31.203c4.726 2.207 5.507 6.1 5.767 10.2.291 4.581.501 9.169.644 13.757.02.651-.418 1.788-.852 1.901-2.408.629-4.872 1.075-7.34 1.406-.359.048-1.078-.795-1.226-1.336-.313-1.144-.444-2.357-.498-3.549-.129-2.893-.18-5.789-.246-8.684-.207-9.035-4.168-8.474-10.571-6.848-.667.17-1.352 1.805-1.364 2.768a418.28 418.28 0 0 0 .157 17.675c.065 2.112-.602 3.141-2.738 3.377-2.153.237-4.28.702-6.781 1.128-.079-1.284-.18-2.241-.191-3.2-.185-15.879-.301-31.759-.594-47.635-.047-2.535.716-3.508 3.206-3.872 4.442-.649 8.822-1.712 13.25-2.475 1.857-.32 3.777-.495 5.657-.425 5.354.2 8.774 3.176 9.733 8.438 1.212 6.647-.235 12.5-6.014 17.373Zm-16.006-.625c3.434-.998 6.239-1.42 8.668-2.608 3.86-1.888 5.353-8.371 3.133-12.048-1.52-2.516-7.825-3.115-10.976-.977-.41.278-.783.943-.79 1.433-.06 4.445-.035 8.891-.035 14.2Zm65.455 18.23c-.096-1.424-.208-2.384-.219-3.345-.187-15.88-.308-31.761-.594-47.639-.045-2.471.596-3.594 3.132-3.954 4.346-.617 8.624-1.716 12.971-2.325 8.722-1.223 14.174 2.264 16.274 10.788 2.411 9.786 2.189 19.644-.887 29.281-2.213 6.936-6.945 11.682-14.013 13.601-5.357 1.454-10.861 2.363-16.665 3.592Zm9.679-10.298c7.114-.241 10.746-3.044 12.213-9.679 1.61-7.28 1.598-14.675.221-21.987-1.105-5.869-3.968-7.535-9.828-6.755-2.576.343-3.254 1.434-3.197 3.894.236 10.264.291 20.533.424 30.799.015 1.173.103 2.344.167 3.728Zm-116.936-23.222c0 9.809-.021 18.976.01 28.143.012 3.692-.017 7.396.254 11.073.297 4.029 1.902 5.998 4.695 6.414 3.429.511 7.203-1.59 8.278-5.034.639-2.05.83-4.311.827-6.477a2030.612 2030.612 0 0 0-.309-33.841c-.042-2.319.529-3.495 3.001-3.687 2.055-.159 4.078-.729 6.499-1.189.106 1.296.238 2.237.251 3.18.149 11.18.324 22.36.383 33.541.013 2.48-.139 5.02-.664 7.434-2.273 10.464-15.61 17.594-25.749 13.9-3.288-1.198-5.238-3.644-6.103-6.885-.561-2.102-.922-4.317-.963-6.488-.223-11.778-.265-23.559-.503-35.337-.045-2.23.599-3.316 2.868-3.549 2.151-.221 4.277-.697 7.226-1.199Zm-39.781 46.661c.336 1.009.568 1.655.767 2.31.701 2.316 1.806 4.346 4.456 4.698 2.726.363 5.169-.467 7.011-2.58 3.287-3.772 2.216-10.041-2.246-12.288-2.295-1.156-4.847-1.808-7.296-2.651-4.985-1.715-9.583-3.914-10.545-9.837-1.041-6.409.31-12.193 5.45-16.541 4.653-3.937 10.152-5.544 16.193-4.614 5.105.787 9.37 5.959 8.57 11.004-.563 3.552-4.462 1.83-6.748 2.752-.68.274-2.484-.439-2.665-1.035-.886-2.92-1.954-5.335-5.65-4.869-3.099.39-5.209 2.506-5.695 5.674-.564 3.683.61 5.952 4.105 7.348 2.217.886 4.568 1.429 6.839 2.185 12.613 4.197 15.633 19.132 5.612 28.034-4.892 4.345-10.8 5.989-17.23 5.399-5.857-.538-10.23-5.631-10.062-11.49.02-.697.888-1.786 1.563-1.973 2.388-.661 4.862-1.009 7.571-1.526Zm120.931-40.853 17.542-3.238c0 2.56.179 4.746-.1 6.873-.094.717-1.264 1.663-2.091 1.851-4.086.93-8.208 1.729-12.346 2.392-2.073.332-2.838 1.199-2.751 3.351.168 4.159.049 8.33.049 12.93l19.563-3.659c-.342 2.736-.537 5.067-.988 7.348-.113.57-.99 1.285-1.621 1.413-8.595 1.741-17.209 3.39-26.193 5.134-.082-1.271-.187-2.221-.198-3.172-.192-15.871-.317-31.744-.609-47.613-.048-2.604.691-3.651 3.336-4.087 6.893-1.134 13.729-2.614 20.59-3.94 1.151-.222 2.318-.366 3.951-.619 0 2.483.176 4.674-.096 6.807-.094.739-1.203 1.749-2.009 1.932-4.378.998-8.786 1.905-13.224 2.576-2.312.349-2.955 1.4-2.846 3.588.157 3.167.04 6.347.04 10.133ZM35.801 126.122c.088 1.181.199 2.049.209 2.919.194 15.958.323 31.918.614 47.875.045 2.466-.554 3.689-3.145 3.879-2.044.15-4.06.691-6.401 1.114-.102-1.335-.229-2.3-.241-3.266-.188-15.859-.308-31.719-.592-47.575-.045-2.497.656-3.669 3.189-3.88 2.053-.171 4.079-.669 6.367-1.066Z"/>
  <path d="M127.083 30.775c.57 4.791 1.091 9.589 1.736 14.371.238 1.769-.304 2.86-2.11 2.634-.793-.099-2.037-.977-2.127-1.631a724.293 724.293 0 0 1-2.789-23.182c-.066-.63.831-1.825 1.465-1.974 1.639-.385 3.516-1.146 4.65 1.183 1.79 3.678 3.727 7.285 5.619 10.913.537 1.03 1.134 2.029 2.224 2.847-.557-4.495-1.091-8.993-1.684-13.482-.212-1.602-.409-2.914 1.895-3.15 2.32-.238 2.316 1.163 2.497 2.719.82 7.038 1.742 14.064 2.468 21.112.103.997-.473 2.824-1.081 2.989-1.657.448-3.639 1.22-4.808-1.343-1.987-4.355-4.253-8.583-6.426-12.852-.247-.484-.648-.89-.978-1.332l-.549.178Zm66.503-.032c2.785 1.722 5.424 3.122 7.796 4.882 2.741 2.035 4.019 5.151 2.659 8.225-1.906 4.308-4.181 8.589-7.058 12.292-2.824 3.635-6.651 3.831-10.823 1.755q-6.653-3.31-2.9-9.693c2.772-4.734 5.505-9.491 8.272-14.228.589-1.008 1.251-1.974 2.054-3.232Zm-7.304 22.093c2.836 2.461 4.936 2.747 6.87.227 2.385-3.108 4.231-6.658 6.051-10.151.463-.888.276-2.454-.21-3.402-.489-.955-1.64-1.894-2.662-2.125-.562-.127-1.666 1.096-2.166 1.926-2.662 4.422-5.211 8.912-7.883 13.525Zm-41.044-14.121c2.175-.011 4.237-.355 4.898 2.777.413 1.954 3.011 2.652 4.687 1.69 1.646-.945 2.272-3.93.769-5.553-1.53-1.652-3.536-2.864-5.341-4.26-3.51-2.714-4.447-6.634-2.463-10.328 1.474-2.744 4.409-4.021 7.936-3.453 3.631.584 5.769 2.354 6.214 5.477.122.854-.493 1.812-.77 2.722-1.231-.417-3.084-.486-3.557-1.328-.864-1.539-1.304-3.37-3.441-2.906-.902.196-2.334 1.683-2.191 2.244.398 1.565 1.245 3.195 2.373 4.354 1.575 1.619 3.785 2.629 5.326 4.272 2.381 2.538 2.339 7.155.278 10.03-2.026 2.826-5.919 3.787-10.053 2.48-3.316-1.048-5.153-3.684-5.034-7.264.009-.271.201-.535.368-.953Zm-31.502-11.392c-1.817.677-3.448 1.475-5.172 1.883-2.547.603-3.4 1.769-2.07 4.204.466.854.742 1.812 1.237 3.053 2.135-.733 4.128-1.31 6.031-2.103 1.646-.685 2.32-.068 2.874 1.429.581 1.57-.068 2.226-1.443 2.615-.576.163-1.137.378-1.701.578-5.143 1.823-4.488.99-2.895 6.131.693 2.234 1.628 2.936 3.852 1.918 1.715-.785 3.568-1.272 5.366-1.873.171-.057.386.015.581.03 1.731 3.057 1.566 3.611-1.48 4.698-2.726.973-5.488 1.853-8.189 2.891-1.72.661-2.519.121-3.096-1.559-2.432-7.077-4.943-14.127-7.471-21.17-.551-1.537-.252-2.399 1.401-2.909 2.668-.824 5.279-1.834 7.919-2.75q3.331-1.156 4.257 2.936Zm58.086 11.42-2.329 7.296 8.65 3.032c-.639 3.828-.91 4.01-4.358 2.916-2.759-.875-5.544-1.687-8.237-2.732-.668-.259-1.591-1.489-1.441-1.98 2.468-8.075 5.089-16.102 7.768-24.429 4.136 1.322 7.945 2.441 11.655 3.828.564.211 1.094 1.81.855 2.494-.228.656-1.467 1.305-2.278 1.326-1.037.027-2.087-.586-3.136-.911-3.756-1.164-5.233-.157-5.324 3.846-.014.602.792 1.482 1.431 1.784 1.341.633 2.804 1.048 4.254 1.404 1.706.42 2.221 1.52 1.329 2.823-.469.686-1.832 1.242-2.664 1.102-2.016-.34-3.958-1.121-6.175-1.8Zm-70.135 9.382c2.246 3.777 1.832 7.313-1.013 9.879-3.22 2.904-7.302 3.365-10.331.713-4.771-4.178-7.975-9.456-9.261-15.693-.836-4.056 1.586-7.561 5.722-8.983 3.479-1.196 6.638.188 8.731 3.943-1.648 1.302-3.018 3.239-5.428.797-.54-.547-2.309-.594-2.976-.119-.792.563-1.581 2.078-1.373 2.941 1.286 5.351 4.015 9.956 8.21 13.553.652.559 2.222.703 2.976.302.756-.402 1.598-1.88 1.4-2.617-.805-2.993.941-3.915 3.343-4.717ZM73.871 74.604l5.752-6.57c3.283 1.987 3.373 2.355 1.211 4.9-2.193 2.583-4.416 5.139-6.963 8.099L53.494 63.665c2.472-4.181 2.59-4.213 5.773-1.509 4.783 4.064 9.554 8.143 14.603 12.448Zm14.933-8.916-3.742 3.147-17.623-20.427 3.656-3.227 17.708 20.507Zm100.972 166.819-3.746 2.177c-1.784-3.419-3.436-6.575-5.08-9.735-2.026-3.894-4.124-7.754-6.012-11.714-.439-.921-.6-2.847-.119-3.171 1.483-1 3.073-2.731 5.217-.638 3.139 3.064 6.489 5.914 9.761 8.841.504.451 1.076.825 2.086.944l-7.338-14.189 3.755-2.131c1.237 2.344 2.394 4.512 3.529 6.691 2.58 4.955 5.164 9.909 7.713 14.88.546 1.065 1.804 2.314-.093 3.235-1.476.716-2.829 2.351-4.765.46-3.568-3.485-7.311-6.789-10.993-10.158-.281-.257-.645-.421-1.495-.319l7.579 14.827ZM92.8 198.601q4.893 2.36 3.847 7.148c-.937 4.27-1.885 8.538-2.283 13.081l8.792-13.427c4.004 1.607 4.045 1.75 1.907 5.04-3.751 5.771-7.469 11.565-11.26 17.31-.624.946-1.002 2.77-2.838 1.605-1.434-.911-3.434-1.4-2.802-3.923 1.09-4.352 2.047-8.738 3.044-13.113.214-.939.36-1.894-.027-3.101l-9.008 13.812c-4.017-1.156-4.18-1.566-2.126-4.736 4.222-6.515 8.44-13.032 12.754-19.694Zm56.39 29.767c3.674 2.85 3.974 6.429 2.542 10.133-1.447 3.744-4.837 4.374-8.42 4.403q-7.248.06-7.248-7.153c-.002-5.79.047-11.58-.047-17.368-.031-1.899.532-2.764 2.538-2.645 2.09.124 4.193 0 6.289.061 2.656.077 5.005.92 6.112 3.532 1.153 2.72 1.137 5.448-.87 7.889-.251.305-.487.623-.896 1.148Zm-8.414 6.314c.639 1.596-1.351 4.571 2.55 4.394 2.895-.132 4.223-1.35 4.241-4.192.018-2.898-1.507-4.427-4.368-4.501-3.632-.094-1.852 2.697-2.422 4.3Zm.055-11.601c.204 1.487-.697 3.634 2.227 3.481 2.255-.118 3.941-.738 3.892-3.413-.046-2.525-1.494-3.423-3.847-3.547-2.894-.153-2.133 1.903-2.272 3.48Zm-30.655-14.362c3.403 1.382 6.628 2.412 9.574 3.969 2.719 1.437 4.002 4.347 3.31 7.157-1.151 4.674-2.595 9.396-4.773 13.66-1.977 3.87-5.762 4.666-10.161 3.375q-6.935-2.035-4.623-8.746c2.167-6.296 4.329-12.593 6.674-19.415Zm-2.786 23.198c3.217 1.893 5.297 1.79 6.761-1.031 1.717-3.308 3.029-6.91 3.938-10.529.836-3.329-.754-4.987-4.736-5.657l-5.963 17.217Zm83.674-31.119c2.806-2.232 5.217-4.462 7.933-6.224 2.812-1.824 6.113-1.435 8.384.711 3.428 3.239 6.728 6.796 9.264 10.743 2.413 3.755 1.287 7.442-2.366 10.673-6.42 5.68-4.319 5.274-9.484-.354-4.567-4.977-8.951-10.121-13.731-15.549Zm6.754.217 12.246 13.855c3.322-2.652 3.927-4.267 1.966-7.138a46.773 46.773 0 0 0-6.984-8.082c-2.526-2.31-4.773-1.726-7.228 1.364Zm41.727-16.239c-7.72-3.316-15.329-6.537-22.868-9.914-.596-.267-.811-1.596-.993-2.475-.082-.399.353-.903.549-1.362 4.107-9.629 8.054-11.172 17.715-6.925 10.566 4.644 12.151 10.148 5.597 20.676Zm-18.814-13.471c4.981 2.159 9.795 4.293 14.657 6.31.901.374 2.68.67 2.874.33.591-1.037 1.008-2.503.731-3.611-.28-1.119-1.273-2.376-2.301-2.931-2.966-1.601-6.016-3.158-9.205-4.21-3.551-1.171-5.161-.069-6.756 4.111Zm-45.561 59.897c.076 5.504-2.063 8.416-6.806 9.327-3.298.634-5.99-.403-7.773-3.179-3.326-5.178-4.749-10.953-4.314-17.06.285-4.005 2.767-6.497 6.452-7.215 3.851-.751 7.024.39 8.661 4.152 1.917 4.403 3.076 9.135 4.564 13.724l-.784.251Zm-14.899-10.032c1.397 4.604 2.416 8.757 3.997 12.684.463 1.15 2.526 1.657 3.856 2.459.738-1.287 2.239-2.68 2.078-3.842-.585-4.207-1.478-8.418-2.81-12.444-.409-1.236-2.682-2.694-3.945-2.561-1.129.118-2.043 2.287-3.175 3.705Zm-87.847-5.168c-3.838-2.538-4.05-2.91-1.471-6.141 1.711-2.144 1.266-3.422-.449-5.268-1.741-1.875-2.968-1.548-4.785-.284-3.407 2.37-3.489 2.272-6.183-1.627 2.972-1.789 5.924-3.583 8.892-5.35 4.203-2.503 8.484-4.885 12.598-7.525 1.948-1.25 3.036-.565 4.252.91 1.101 1.336 2.667 2.186 1.096 4.46-4.426 6.402-8.567 13.002-12.835 19.514-.316.481-.748.886-1.113 1.311Zm2.667-12.226 5.63-8.069-.527-.515-7.969 5.052 2.866 3.532Zm150.164-17.867-4.74 6.709 6.237 4.516 5.845-7.685 3.002 2.861-8.13 11.195c-1.76-1.229-3.297-2.274-4.805-3.36-5.096-3.671-10.146-7.406-15.291-11.006-1.626-1.137-1.726-2.07-.529-3.598 2.267-2.892 4.373-5.911 6.708-9.098l3.345 2.426-5.11 7.452 5.235 3.699c1.153-1.557 2.156-2.887 3.133-4.236 2.128-2.936 2.434-2.942 5.099.124Zm-48.769-63.605c0-5.309-.025-9.755.035-14.2.007-.491.38-1.155.79-1.433 3.151-2.137 9.456-1.538 10.976.977 2.221 3.676.727 10.16-3.133 12.048-2.43 1.188-5.234 1.611-8.668 2.608Zm75.134 7.933c-.064-1.384-.152-2.556-.167-3.728-.133-10.267-.188-20.535-.424-30.799-.057-2.46.622-3.551 3.197-3.894 5.86-.78 8.723.886 9.828 6.755 1.377 7.312 1.389 14.707-.221 21.987-1.467 6.635-5.099 9.438-12.213 9.679Z"/>
  <path fill="#fff" d="M186.283 52.836c2.673-4.613 5.221-9.103 7.883-13.525.5-.83 1.604-2.053 2.166-1.926 1.022.23 2.173 1.17 2.662 2.125.486.949.673 2.514.21 3.402-1.82 3.493-3.666 7.043-6.051 10.151-1.934 2.521-4.034 2.234-6.87-.227Zm-45.507 181.846c.571-1.603-1.21-4.394 2.422-4.3 2.861.074 4.387 1.603 4.368 4.501-.018 2.843-1.345 4.061-4.241 4.192-3.901.177-1.911-2.798-2.55-4.394Zm.054-11.601c.14-1.576-.622-3.632 2.272-3.48 2.353.124 3.801 1.022 3.847 3.547.049 2.675-1.637 3.296-3.892 3.413-2.924.153-2.023-1.994-2.227-3.481Zm-33.44 8.837 5.963-17.217c3.982.67 5.572 2.328 4.736 5.657-.909 3.619-2.221 7.221-3.938 10.529-1.464 2.821-3.544 2.925-6.761 1.031Zm90.428-30.903c2.456-3.09 4.702-3.675 7.228-1.364a46.773 46.773 0 0 1 6.984 8.082c1.961 2.871 1.356 4.486-1.966 7.138l-12.246-13.855Zm22.914-29.71c1.595-4.18 3.205-5.282 6.756-4.111 3.189 1.052 6.238 2.608 9.205 4.21 1.028.555 2.021 1.812 2.301 2.931.277 1.108-.14 2.574-.731 3.611-.194.34-1.973.044-2.874-.33-4.862-2.018-9.676-4.151-14.657-6.31Zm-60.461 49.865c1.132-1.418 2.046-3.587 3.175-3.705 1.263-.132 3.536 1.325 3.945 2.561 1.332 4.026 2.225 8.238 2.81 12.444.162 1.162-1.339 2.555-2.078 3.842-1.33-.802-3.392-1.309-3.856-2.459-1.582-3.926-2.6-8.079-3.997-12.684Zm-85.18-17.394-2.866-3.532 7.969-5.052.527.515-5.63 8.069Z"/>
</svg>
