<svg xmlns="http://www.w3.org/2000/svg" data-name="Layer 1" viewBox="0 0 328.302 276.625">
  <path fill="#fff" d="M229.236 270.625c-1.344 0-2.945-.285-4.513-.803-1.951-.723-4.551-1.257-7.302-1.822-1.309-.269-2.674-.549-4.04-.863l-.145-.03c-12.651-2.271-25.374-5.042-29.795-11.675-6.849-9.932-9.17-16.243-8.897-24.16l.002-.104c0-1.937-1.214-3.06-3.792-4.993l-.53-.406c-4.21-3.216-10.572-8.075-14.941-21.765-5.753-17.549-15.617-23.453-19.57-24.783a3.807 3.807 0 0 0-1.267-.548c-2.578-1.043-8.773-3.01-13.136-3.01-1.401 0-2.508.28-3.3.833-1.184.765-1.737 2.153-2.607 4.336-.333.834-.677 1.696-.991 2.325l-.402.899c-2.874 6.504-5.488 11.525-10.661 12.026h-1.162c-9.532 0-35.252-11.331-35.892-20.428v-1.6l-.003-.071c-.34-7.146-.723-15.207-10.721-24.135-5.901-4.972-10.473-9.8-14.652-14.326-3.402-4.077-6.414-7.078-9.207-9.172-1.887-1.35-3.146-2.846-3.904-4.615l-.075-.16c-.891-1.782-.82-3.888.185-5.496.799-1.278 2.3-2.803 4.91-2.803h63.607V11.751C96.448 8.553 99.011 6 102.148 6H160.2c3.219 0 5.533 2.261 5.758 5.626l1.686 43.175 1.586.793c.743.372 1.604.561 2.558.561.704 0 1.458-.099 2.3-.301a11.358 11.358 0 0 1 1.778-.144c6.343 0 9.341 5.725 10.108 7.479l.227.518.4.399c.607.608 1.717 1.332 3.557 1.332 1.267 0 2.709-.343 4.286-1.02 1.983-.85 3.562-1.377 5.299-1.377 2.832 0 5.389 1.122 7.602 3.334l1.004 1.004.947.157c1.977.329 6.081 1.014 9.892 1.014 1.853 0 4.346-.151 5.958-.851 1.537-.497 3.099-.77 4.414-.77 2.771 0 4.926 1.012 6.676 2.042.497.392 1.327.875 2.399.875h.972c3.768 0 10.904-1.646 14.971-5.308l.115-.109c1.104-1.104 2.652-1.713 4.36-1.713 4.05 0 8.644 3.938 11.594 7.625l.516.645.773.29c4.351 1.633 7.649 2.46 9.805 2.46 2.966 0 5.549 2.386 5.759 5.317.384 4.798.772 12.536 1.084 18.754.216 4.312.403 8.034.538 9.783l.108 1.406 1.152.813c4.553 3.217 6.747 6.233 6.519 8.969l-.01.124v.125c0 2.409 1.896 8.085 3.312 10.563l.451.788.812.406c.752.377 1.535.896 2.177 2.132 1.352 3.393 1.653 11.966-1.481 15.584l-.124.143-.104.156c-1.542 2.312-.961 7.606-.055 10.628l.039.129.05.124c1.24 3.101 3.472 10.68-2.58 14.101l-.096.054-.092.062c-1.968 1.312-4.573 1.722-7.59 2.195-.53.084-1.067.168-1.61.259l-.421.059c-5.327.758-10.835 1.541-12.788 5.448-2.791 5.834-20.171 18.055-35.148 26.959l-.322.191-.383.382c-4.266 4.192-14.013 15.128-12.399 26.102 1.989 13.922 7.816 25.691 8.063 26.186.179.357.316.822.333.985-.002 3.927-2.645 7.961-7.697 7.961Zm-3.145-4.803c.174 0 .346-.011.519-.025l-.412-5.986-.155.012-.053 5.998h-.014l.115.002Zm.353-6.042a1.218 1.218 0 0 1-.169.029l.675 5.962c.306-.034.608-.087.907-.159l-1.413-5.832Z"/>
  <path d="M102.149 9h58.052c2.321 0 2.699 2.039 2.76 2.764l1.617 41.382.139 3.546 3.174 1.587c1.163.582 2.475.876 3.899.876.904 0 1.846-.116 2.871-.353a8.304 8.304 0 0 1 1.207-.091c4.523 0 6.777 4.349 7.36 5.681l.454 1.037.801.8c1.008 1.008 2.811 2.209 5.677 2.209 1.676 0 3.515-.424 5.467-1.262 1.955-.838 3.032-1.135 4.117-1.135 2.007 0 3.851.826 5.48 2.456l.324.324 1.362 1.36 1.897.316c2.052.342 6.323 1.053 10.383 1.053 2.962 0 5.309-.346 6.988-1.03 1.196-.376 2.417-.59 3.384-.59 1.996 0 3.598.723 5.024 1.551.882.645 2.267 1.366 4.051 1.366h.972c4.957 0 12.592-2.13 16.978-6.077l.118-.106.112-.112c.546-.546 1.319-.834 2.238-.834 2.385 0 6.189 2.673 9.251 6.499l1.031 1.289 1.546.58c7.066 2.651 9.921 2.651 10.859 2.651 1.401 0 2.668 1.159 2.766 2.53l.002.026.002.026c.379 4.73.766 12.447 1.077 18.648.217 4.329.405 8.067.542 9.854l.216 2.814 2.305 1.628c3.419 2.414 5.385 4.758 5.26 6.269l-.021.249v.25c0 3.173 2.249 9.498 3.707 12.051l.901 1.578 1.625.813c.367.184.564.313.787.703.868 2.367 1.109 8.078-.287 11.178l-1.191 1.788c-2.385 3.582-1.324 10.169-.429 13.152l.077.256.099.249c.901 2.253 1.329 4.592 1.173 6.417-.162 1.897-.893 3.08-2.443 3.957l-.192.109-.184.123c-1.422.948-3.727 1.31-6.396 1.729-.514.081-1.035.163-1.561.25l-.417.059c-5.811.826-12.398 1.762-15.055 7.078l-.023.047-.022.047c-2.073 4.335-16.67 15.353-33.953 25.628l-.644.383-.53.53-.102.101c-4.592 4.514-15.075 16.345-13.265 28.651 2.058 14.41 8.095 26.603 8.349 27.11-.144 1.795-1.24 4.61-4.678 4.61-.286 0-.593-.019-.916-.055l-2.228-9.283-.01-.14.005-1.325-.012 1.229-.01-.135v.144l.009.079v.069l-.009-.035v.896l-.079 8.007a14.635 14.635 0 0 1-.276-.087c-2.156-.791-4.842-1.343-7.682-1.927-1.304-.268-2.652-.545-3.971-.849l-.144-.033-.145-.026c-8.299-1.49-23.747-4.263-27.83-10.387l-.026-.039-.027-.039c-6.407-9.29-8.59-15.129-8.342-22.315l.004-.103v-.103c0-3.638-2.524-5.541-4.972-7.377l-.531-.407c-3.911-2.988-9.821-7.503-13.918-20.337-5.888-17.96-15.829-24.592-21.031-26.497a6.865 6.865 0 0 0-1.707-.731c-2.952-1.17-9.34-3.155-14.078-3.155-2.027 0-3.704.457-5.001 1.36-1.932 1.281-2.755 3.345-3.693 5.697-.295.74-.63 1.579-.887 2.094l-.061.121-.055.124-.346.782c-2.442 5.526-4.596 9.8-8.083 10.24h-.996c-3.698 0-12.263-2.473-20.195-6.612-8.966-4.678-12.473-9.057-12.697-10.951v-1.394l-.002-.179-.007-.143c-.348-7.319-.782-16.428-11.718-26.193l-.065-.058-.066-.056c-5.68-4.783-10.163-9.515-14.264-13.955-3.533-4.228-6.694-7.366-9.661-9.591l-.056-.042-.057-.04c-1.372-.98-2.299-2.064-2.835-3.315l-.07-.163-.079-.159c-.42-.84-.402-1.846.046-2.563.772-1.235 1.67-1.393 2.366-1.393h66.607V11.702A2.718 2.718 0 0 1 102.149 9m123.945 249.318 1.048 9.058a11.021 11.021 0 0 1-.382-.088l-.666-8.971M102.149 3a8.714 8.714 0 0 0-8.713 8.677v98.601H32.829c-3.241 0-5.834 1.621-7.454 4.213s-1.621 5.834-.324 8.427c.972 2.269 2.593 4.213 4.862 5.834 2.593 1.945 5.51 4.862 8.751 8.751 3.889 4.213 8.751 9.399 14.909 14.585 9.075 8.103 9.399 15.233 9.723 22.039v1.621c.648 11.668 28.845 23.335 38.892 23.335h1.296c7.778-.648 11.019-8.751 13.612-14.585.972-1.945 1.945-5.186 2.593-5.51 0 0 .324-.324 1.621-.324 3.889 0 10.047 1.945 12.316 2.917.216 0 .432.108.648.324.324 0 11.668 3.241 18.15 23.011 4.862 15.233 12.316 20.418 16.529 23.659 2.593 1.945 2.593 2.269 2.593 2.593-.324 9.399 2.917 16.529 9.399 25.928 5.186 7.778 19.122 10.695 31.762 12.964 4.213.972 8.427 1.621 11.019 2.593 1.945.648 3.889.972 5.51.972 6.806 0 10.695-5.51 10.695-11.019 0-.648-.324-1.621-.648-2.269 0 0-5.834-11.668-7.778-25.28-1.621-11.019 10.695-22.687 11.668-23.659 11.992-7.13 32.734-20.743 36.299-28.197 1.296-2.593 6.482-3.241 11.019-3.889 3.889-.648 7.454-.972 10.371-2.917 7.454-4.213 5.834-12.964 3.889-17.826-.972-3.241-.972-7.13-.324-8.103v.002c4.213-4.862 3.565-14.909 1.945-18.798-.972-1.945-2.269-2.917-3.565-3.565-1.296-2.269-2.917-7.454-2.917-9.075.324-3.889-2.269-7.778-7.778-11.668-.324-4.213-.972-20.418-1.621-28.521-.324-4.537-4.213-8.103-8.751-8.103-2.269 0-6.158-1.296-8.751-2.269-2.593-3.241-8.103-8.751-13.936-8.751-2.593 0-4.862.972-6.482 2.593-3.241 2.917-9.399 4.537-12.964 4.537h-.972c-.324 0-.648-.324-.648-.324-1.621-.972-4.537-2.593-8.427-2.593-1.621 0-3.565.324-5.51.972-.648.324-2.269.648-4.862.648-3.565 0-7.454-.648-9.399-.972l-.324-.324c-1.621-1.621-4.862-4.213-9.723-4.213-2.269 0-4.213.648-6.482 1.621-1.249.535-2.301.776-3.103.776-.655 0-1.143-.161-1.434-.452-2.029-4.638-6.392-9.276-12.857-9.276-.763 0-1.555.065-2.376.201-.648.162-1.215.243-1.702.243s-.891-.081-1.215-.243l-1.621-41.485C168.628 6.565 165.063 3 160.201 3h-58.052Zm124.463 259.792Zm-.186.011c-.112.008-.223.02-.335.02h-.048.021c.121 0 .242-.011.362-.02Z"/>
  <path d="m276.587 195.519-27.726 14.971 5-31.108-22.67-22.118 31.482-4.972 13.846-28.246 14.401 28.246 31.019 4.987-22.631 22.08 5.559 31.131-28.28-14.971z"/>
  <path fill="#fff" d="M276.573 130.753h.001m0 .001 12.367 24.258 26.639 4.281-19.503 19.027 4.757 26.638-24.259-12.843-23.784 12.843 4.282-26.638-19.503-19.027 27.114-4.281 11.891-24.258m-.105-13.417-3.635 7.415h-5.969l3.014 6.028-9.211 18.791-24.034 3.795-11.818 1.866 8.564 8.355 17.275 16.854-3.788 23.565-1.931 12.013 10.706-5.781 20.961-11.319 21.424 11.342 10.877 5.759-2.164-12.116-4.198-23.509 17.227-16.807 8.534-8.327-11.772-1.892-23.629-3.798-9.607-18.844 2.987-5.974h-6.033l-3.781-7.417Z"/>
  <path d="M116.696 233.262a63.59 63.59 0 0 1-4.893-.206c-1.929-.146-3.176-1.358-3.921-2.082-.128-.124-.242-.244-.354-.332a3.92 3.92 0 0 1-1.509-3.118 3.935 3.935 0 0 1 1.578-3.103l.621-.471a28.08 28.08 0 0 1 1.711-1.243c.614-.404 1.247-.698 1.806-.957l.112-.053c2.661-10.352 5.208-20.798 7.9-31.834l.958-3.927a98.906 98.906 0 0 0-3.659-.09c-1.858 0-3.32.113-4.6.354-.062.013-.16.039-.296.097a3.922 3.922 0 0 1 2.222 2.368c.031.07.115.233.199.405.683 1.393 1.817 3.704.643 6.09-1.256 2.55-4.077 4.733-6.707 5.195a9.879 9.879 0 0 1-1.7.149c-2.9 0-5.497-1.269-7.312-3.573-2.011-2.552-2.697-5.962-1.881-9.354 1.787-7.424 7.286-12.272 14.352-12.655a78.377 78.377 0 0 1 4.224-.109c4.823 0 9.663.396 14.343.778 2.14.176 4.351.355 6.52.494 1.139.073 2.244.18 3.353.306l-.065-.214a3.923 3.923 0 0 1 .579-3.441 3.93 3.93 0 0 1 3.092-1.606c.323-.005.733-.053 1.13-.096.618-.065 1.317-.14 1.976-.14 2.693 0 3.889 1.427 4.362 2.276 1.548 2.785 2.991 6.705 1.073 9.571-1.421 2.125-3.959 3.876-6.666 4.687.143-.006.288-.009.435-.009 1.353 0 2.665.258 3.822.486.698.137 1.348.265 1.897.317a3.902 3.902 0 0 1 1.859.683 8.435 8.435 0 0 1 2.294-1.662c1.229-.606 2.396-.901 3.565-.901 3.528 0 5.907 2.63 7.836 6.028 1.14-1.274 2.323-2.54 3.591-3.74 1.582-1.496 3.477-2.321 5.335-2.321 2.775 0 5.11 1.821 6.095 4.754.247.737.319 1.452.283 2.132 2.624-2.301 5.701-4.161 9.2-5.545 2.734-1.08 5.61-1.158 8.391-1.233 1.175-.032 2.383-.064 3.564-.172a3.938 3.938 0 0 1 2.123.391 3.93 3.93 0 0 1 2.103 4.182 3.918 3.918 0 0 1-.198.711l-5.229 14.637a3.92 3.92 0 0 1 3.289.773 3.907 3.907 0 0 1 1.355 2.159c.601.106 1.234.252 1.887.483l.126.046c-.235-1.356-.629-2.799-1.011-4.198-.664-2.433-1.415-5.185-1.492-8.038-.086-3.197.957-6.006 3.018-8.124 2.083-2.139 5.004-3.316 8.226-3.316.465 0 .934.024 1.394.073 4.762.497 7.59 3.797 7.375 8.611-.186 4.178-2.364 6.512-6.482 6.955.407 1.026.815 2.128 1.116 3.279 1.211 4.639.416 9.227-2.182 12.589-2.345 3.035-5.816 4.706-9.776 4.706-.352 0-.712-.015-1.071-.042-1.042-.08-4.601-.535-6.694-3.045a5.28 5.28 0 0 1-.317-.422c-2.327 1.851-4.963 3.145-7.249 3.145-.313 0-.622-.023-.914-.065-1.854-.271-3.454-1.693-4.422-3.381a32.142 32.142 0 0 1-2.646 1.741c-1.378.809-3.256 1.271-5.153 1.271-1.364 0-3.316-.247-4.867-1.426a6.638 6.638 0 0 1-1-.943 7.4 7.4 0 0 1-3.319 1.741c-.957.219-1.869.329-2.71.329-4.371 0-6.43-2.676-7.564-5.189a55.58 55.58 0 0 1-3.15 3.142c-1.662 1.515-3.934 1.741-5.141 1.741a9.706 9.706 0 0 1-1.951-.194c-1.602-.334-2.769-1.555-3.487-2.969-3.105 2.428-6.815 3.857-10.458 3.857-.44 0-.878-.021-1.304-.065-4.512-.449-7.538-3.146-8.451-7.374l-2.203 8.98 2.177 1.434c1.268.834 1.941 2.344 1.714 3.846s-1.315 2.746-2.774 3.169c-.481.14-.978.311-1.459.474-1.407.479-2.957 1.008-4.686 1.17a41.747 41.747 0 0 1-3.903.173Zm35.887-31.607c-.088.085-.18.168-.275.249-3.138 2.67-7.028 4.157-10.743 5.451-1.205.42-1.85 1.049-1.349 2.89l.011.041c.274-.071.672-.2 1.236-.436 1.201-.501 2.465-1.297 3.928-2.218a99.528 99.528 0 0 1 2.586-1.591c.263-.16.582-.3.914-.395a3.817 3.817 0 0 1 1.076-.151 3.89 3.89 0 0 1 3.295 1.808c.96.096 1.819.382 2.605.697 1.508-1.377 2.329-2.715 2.497-4.062.028-.222.039-.45.032-.685a3.91 3.91 0 0 1-5.628-1.263 13.715 13.715 0 0 1-.185-.337Zm40.913-3.994c-3.332 2.557-5.427 6.08-6.97 9.869 3.403-3.141 5.67-6.358 6.97-9.869Zm-19.053 1.634c-2.045 2.114-3.031 3.722-3.18 5.334a3.896 3.896 0 0 1 3.745-.259 31.657 31.657 0 0 1 1.902-3.87 3.945 3.945 0 0 1-1.062-.411l-1.404-.794Zm-42.832-.693c3.009-4.896 7.332-9.068 11.734-10.684a.694.694 0 0 0 .025-.009c-1.411.153-2.936.226-4.739.226-1.254 0-2.546-.034-3.796-.069l-.637-.018-2.588 10.554ZM23.129 169.36c-5.168 0-9.966-1.783-14.259-5.299-5.427-4.444-7.381-12.761-4.545-19.345 2.303-5.348 7.597-8.669 13.816-8.669.447 0 .899.018 1.346.052 3.301.254 6.264 1.75 8.345 4.215 1.978 2.341 2.915 5.296 2.638 8.32-.435 4.744-3.644 8.058-7.802 8.058-1.635 0-3.281-.529-4.76-1.53a3.915 3.915 0 0 1-1.702-3.567c.073-.846.192-1.63.298-2.32.037-.242.078-.51.114-.773-.531.403-.92.813-1.045 1.096-.517 1.169-.488 2.542.082 3.862a6.462 6.462 0 0 0 3.776 3.525c1.139.401 2.345.605 3.582.605 2.845 0 5.471-1.075 7.024-2.876 2.425-2.812 2.713-7.204.7-10.684-.838-1.448-2.019-2.914-3.161-4.332-1.546-1.919-3.14-3.896-4.352-6.26-2.098-4.094-4.219-8.93-4.043-13.76.386-10.675 9.16-16.26 17.626-16.26 3.151 0 6.214.716 8.856 2.069 4.708 2.411 6.607 7.321 4.959 12.814-1.149 3.83-4.037 6.209-7.536 6.209-2.299 0-4.546-1.058-6.327-2.978a3.902 3.902 0 0 1-.82-3.954c.264-.752.593-1.459.884-2.084a1.8 1.8 0 0 0-.508-.17 5.55 5.55 0 0 0-.586-.032c-.884 0-2.099.229-2.862 1.315-.736 1.05-.81 2.618-.202 4.304 1.141 3.155 3.501 6.262 5.785 9.266l.354.465c2.24 2.95 4.446 6.305 5.672 10.197a26.885 26.885 0 0 1 4.442-5.133c2.774-2.502 5.865-4.817 9.672-4.817 1.93 0 3.744.616 5.391 1.831 1.537 1.134 2.564 2.654 3.361 4.251a14.555 14.555 0 0 1 1.807-2.233c2.362-2.397 5.366-3.771 8.24-3.771.294 0 .584.014.873.041 3.24.312 4.821 1.843 5.578 3.073.93 1.514 1.002 3.128.807 4.457.306-.579.608-1.159.908-1.739 2.116-4.096 5.063-4.955 7.164-4.955 1.361 0 2.785.353 4.352 1.077.521.241.965.583 1.319.992l.162-.08c1.027-.508 2.083-1.029 3.464-1.029.192 0 .384.011.574.032.057.006.125.012.192.014.171-.269.426-.797.759-1.577.868-2.03 2.49-3.348 3.793-4.406.432-.352.84-.683 1.155-.987a3.883 3.883 0 0 1 2.713-1.096c.509 0 1.008.099 1.482.292a3.916 3.916 0 0 1 2.423 3.558l.025 1.517c.016.901.032 1.811.039 2.718l2.303.339c.105.015.209.035.311.059.539-2.105 1.064-4.21 1.565-6.302.101-.419-.137-1.591-.347-2.624-.171-.843-.384-1.892-.529-3.025a3.885 3.885 0 0 1 2.789-4.246l8.19-2.378a3.874 3.874 0 0 1 1.089-.155c1.045 0 2.027.407 2.765 1.147a3.903 3.903 0 0 1 .988 3.845l-4.507 15.582c1.242-.503 2.511-.823 3.692-1.122.776-.196 1.508-.381 2.167-.603a3.855 3.855 0 0 1 1.245-.204c.609 0 1.219.146 1.761.42a3.918 3.918 0 0 1 1.955 2.282c.192.593.473 1.252.769 1.951.445 1.05.922 2.174 1.244 3.382 2.891-3.788 6.504-6.851 10.171-8.196.933-.343 1.93-.509 3.048-.509 1.395 0 2.752.268 3.95.503.736.145 1.407.275 1.972.33a3.936 3.936 0 0 1 3.447 4.865c-.134.541-.228 1.25-.327 2.001-.057.429-.116.876-.188 1.333 3.919-4.524 8.783-8.057 13.201-9.102 2.551-.604 5.183-.693 7.728-.779 1.217-.042 2.448-.084 3.726-.175a3.931 3.931 0 0 1 3.377 1.517 3.894 3.894 0 0 1 .595 3.649l-5.455 15.858a3.91 3.91 0 0 1 4.197 1.529l.736 1.045c.047.066.092.135.135.203a11.86 11.86 0 0 1 1.811.411c.243.076.481.156.717.239-.192-.974-.65-2.029-1.18-3.247-.512-1.178-1.09-2.508-1.476-3.949-1.292-4.823-.508-9.578 2.152-13.043 2.296-2.992 5.666-4.641 9.488-4.641.288 0 .576.009.866.028 2.919.191 4.785 1.192 5.977 2.379.718-.359 1.554-.658 2.552-.658.183 0 .364.011.544.031.143.017.282.026.41.026.083 0 .145-.004.188-.008.105-.134.355-.519.733-1.509.828-2.165 2.569-3.485 3.969-4.546.449-.34.867-.655 1.175-.939a3.89 3.89 0 0 1 2.646-1.032c.518 0 1.023.101 1.501.299a3.922 3.922 0 0 1 2.403 3.468c.016.433.061 1.409.061 1.409.044.942.09 1.909.097 2.9l2.167.3a3.881 3.881 0 0 1 3.325 3.271l.178 1.146a3.89 3.89 0 0 1-2.908 4.387c-.292.073-.589.181-.904.289-.969.335-2.171.749-3.564.749-.298 0-.592-.02-.874-.057a3.461 3.461 0 0 0-.447-.034h-.064c-.099.172-.274.544-.5 1.295-.71 2.359-1.468 4.72-2.236 7.051a3.882 3.882 0 0 1 2.114-.621c1.212 0 2.335.548 3.081 1.504l.776.992a3.905 3.905 0 0 1 .19 4.547c-3.397 5.18-7.514 8.41-12.588 9.88a8.465 8.465 0 0 1-2.335.346c-2.092 0-3.994-.912-5.216-2.502a7.057 7.057 0 0 1-1.292-2.84 12.795 12.795 0 0 1-1.136 1.59c-2.438 2.919-5.96 4.527-9.916 4.527-.647 0-1.307-.045-1.958-.132-1.721-.231-4.851-.97-6.458-3.315a4.1 4.1 0 0 1-.12-.183c-1.764 1.234-3.891 2.37-6.414 3.081a8.245 8.245 0 0 1-2.225.325c-1.893 0-3.533-.768-4.621-2.162a5.765 5.765 0 0 1-.671-1.094c-.684.479-1.384.938-2.111 1.372-1.5.892-3.645 1.446-5.598 1.446-1.757 0-3.276-.453-4.392-1.312-1.175-.903-2.08-2.212-2.711-3.636-3.322 2.793-7.394 4.461-11.36 4.461-.455 0-.905-.022-1.339-.066-4.137-.411-7.055-2.664-8.297-6.235-1.751 2.203-3.887 4.085-6.403 5.637-1.235.761-2.709 1.13-4.509 1.13-1.279 0-2.549-.193-3.512-.362-1.969-.345-2.817-1.572-3.205-3.031-.409.462-.787.889-1.153 1.324a3.899 3.899 0 0 1-4.374 1.138 3.914 3.914 0 0 1-2.519-3.786c.011-.346.012-.702.007-1.06-2.154 1.736-4.406 3.472-7.029 4.771-1.229.607-2.461.915-3.666.915-2.078 0-3.972-.945-5.196-2.593-.622-.836-1.05-1.825-1.28-2.918-1.708 1.618-3.615 3.296-5.867 4.494-1.201.639-2.413.962-3.605.962-1.916 0-3.663-.861-4.795-2.364a6.19 6.19 0 0 1-.662-1.1l-.069.045c-2.147 1.415-4.578 1.812-6.722 2.161-.777.126-1.504.244-2.157.401a3.933 3.933 0 0 1-.913.107 3.893 3.893 0 0 1-2.221-.692 3.914 3.914 0 0 1-1.657-2.741c-.068-.556-.206-1.202-.352-1.886-.196-.919-.404-1.894-.506-2.911-1.695 2.38-3.763 4.45-6.237 6.266-2.609 1.917-5.366 2.931-7.972 2.931-4.518 0-7.953-2.793-9.412-7.379-2.369 3.282-5.645 5.696-9.745 7.139-2.798.984-5.585 1.483-8.285 1.483Zm103.614-12.595a22.777 22.777 0 0 0 3.097-6.66c-1.028 1.514-2.039 3.037-3.033 4.534l-1.021 1.535.957.591Zm32.867-7.699c-2.729 1.727-5.787 2.872-8.739 3.899-1.272.443-2.009 1.146-1.468 3.13.015.054.029.103.043.147.296-.069.74-.208 1.4-.483 1.25-.521 2.563-1.347 4.083-2.303.845-.532 1.713-1.078 2.687-1.653.252-.155.573-.297.911-.395l.034-.01c.31-.779.661-1.559 1.05-2.333Zm18.586-5.647c-3.333 2.558-5.429 6.081-6.971 9.871 3.403-3.141 5.671-6.358 6.971-9.871Zm28.426 4.073c.603 1.633 1.169 3.328 1.5 5.159l.033.189c.483-1.468.988-2.914 1.485-4.337.276-.792.546-1.567.809-2.333-1.161.829-2.52 1.237-3.827 1.321Zm-111.878 3.257c.354.191.68.437.961.73l.495.515c.829-2.526 1.697-5.05 2.596-7.663l.625-1.815-1.719-.556-2.958 8.789Zm17.889-7.901c-.138 0-.194.017-.194.017-.03.043-.372.44-.938 2.331a206.85 206.85 0 0 1-1.969 6.167 3.88 3.88 0 0 1 2.1-.613c.515 0 1.02.104 1.487.296.699-2.704 1.414-5.397 2.113-8.035a5.584 5.584 0 0 1-.731.049 5.19 5.19 0 0 1-1.083-.113 3.812 3.812 0 0 0-.783-.098Z"/>
  <path fill="#fff" d="M36.808 106.418c2.678 0 5.268.601 7.488 1.739 3.386 1.735 4.677 5.205 3.453 9.282-.765 2.549-2.508 4.071-4.663 4.071-1.456 0-2.921-.716-4.127-2.017a.905.905 0 0 1-.19-.917c.222-.63.512-1.251.792-1.852.317-.678.847-1.812.771-2.107-.595-1.048-2.358-2.133-3.7-2.276a8.654 8.654 0 0 0-.903-.049c-2.256 0-4.144.921-5.317 2.592-1.307 1.862-1.514 4.43-.568 7.046 1.298 3.591 3.803 6.885 6.225 10.071l.347.456c3.731 4.914 7.015 10.464 5.782 17.747-1.277 7.546-5.241 12.539-11.781 14.84-2.478.872-4.931 1.314-7.289 1.314-4.458 0-8.616-1.554-12.359-4.62-4.431-3.628-6.017-10.437-3.69-15.837 1.821-4.229 6.061-6.856 11.064-6.856.368 0 .743.015 1.115.043 2.492.192 4.723 1.313 6.281 3.159 1.456 1.724 2.146 3.894 1.942 6.111-.292 3.189-2.227 5.331-4.815 5.331-1.033 0-2.097-.351-3.077-1.015a.907.907 0 0 1-.395-.829c.064-.749.172-1.453.276-2.134.214-1.401.399-2.61.1-3.563-.157-.413-1.66-1.35-2.486-1.35h-.041l-.006-.001c-1.616.696-3.541 2.071-4.209 3.58-.86 1.944-.835 4.169.07 6.267a9.48 9.48 0 0 0 5.532 5.165c1.46.515 3.001.777 4.581.777 3.706 0 7.181-1.464 9.296-3.917 3.245-3.762 3.666-9.578 1.025-14.145-.955-1.651-2.212-3.211-3.427-4.719-1.446-1.794-2.941-3.65-4.012-5.739-1.922-3.749-3.866-8.14-3.715-12.283.333-9.185 7.816-13.368 14.628-13.368m93.736 11.116a.909.909 0 0 1 .871 1.158l-7.447 25.744c1.583-2.084 3.001-3.891 4.796-5.328 1.525-1.221 3.522-1.726 5.453-2.214.839-.212 1.632-.413 2.387-.668a.9.9 0 0 1 .697.049c.216.109.38.3.455.53.233.717.538 1.436.861 2.199.732 1.727 1.49 3.512 1.376 5.332-.576 9.213-4.219 15.95-10.826 20.024-.747.46-1.706.684-2.934.684-1.051 0-2.153-.17-2.995-.318-.943-.165-.982-1.024-1.087-3.319a55.218 55.218 0 0 0-.141-2.337.906.906 0 0 1 1.38-.852l4.102 2.534c3.696-4.433 5.756-9.505 6.126-15.088.04-.601-.301-1.337-.663-2.116l-.195-.424c-.173.055-.346.108-.517.16-.806.245-1.64.497-1.932.902-2.076 2.875-4.077 5.888-6.011 8.803-1.327 1.999-2.699 4.066-4.087 6.076-.859 1.244-1.866 2.381-2.841 3.481-.439.496-.879.992-1.305 1.498a.907.907 0 0 1-1.6-.614c.022-.665.008-1.363-.006-2.038-.032-1.55-.065-3.154.316-4.691 1.083-4.365 2.255-8.782 3.387-13.053 1.387-5.231 2.822-10.64 4.103-15.986.255-1.065 0-2.325-.324-3.92-.17-.837-.362-1.785-.493-2.807a.907.907 0 0 1 .647-.986l8.193-2.379a.91.91 0 0 1 .253-.036m-19.342 10.249a.906.906 0 0 1 .906.894c.007.509.016 1.018.025 1.526.023 1.287.047 2.618.04 3.932-.003.436-.067.843-.146 1.302l5.012.736a.907.907 0 0 1 .757.717l.223 1.1a.907.907 0 0 1-.587 1.036 8.35 8.35 0 0 0-.845.376c-.666.323-1.355.656-2.087.656-.156 0-.31-.016-.456-.047a6.87 6.87 0 0 0-1.411-.164c-2.238 0-3.135 1.577-4.007 4.487-1.079 3.6-2.316 7.21-3.513 10.7-.441 1.285-.881 2.57-1.315 3.857l.214.15 7.089-5.12a.903.903 0 0 1 1.256.191l1.179 1.572a.906.906 0 0 1-.184 1.272c-1.001.745-2.002 1.557-2.971 2.342-2.272 1.841-4.62 3.745-7.265 5.054-.81.401-1.595.604-2.334.604-1.136 0-2.126-.491-2.789-1.382-1.003-1.349-1.169-3.48-.456-5.847 1.246-4.137 2.631-8.16 4.096-12.419.533-1.549 1.072-3.116 1.611-4.707l-4.966-1.607a.907.907 0 0 1-.066-1.702c.668-.274 1.2-.538 1.67-.77.841-.416 1.449-.717 2.131-.717a2.2 2.2 0 0 1 .23.012c.209.023.41.034.596.034 1.816 0 2.448-1.036 3.458-3.399.576-1.348 1.771-2.319 2.926-3.257.484-.393.942-.765 1.346-1.156a.903.903 0 0 1 .63-.255m112.306.048a.906.906 0 0 1 .906.874c.017.48.04.961.063 1.441.056 1.181.113 2.403.089 3.617-.012.587-.176 1.134-.357 1.707l5.118.708a.907.907 0 0 1 .772.76l.177 1.145a.906.906 0 0 1-.675 1.018c-.368.092-.749.224-1.153.363-.832.287-1.693.584-2.584.584-.165 0-.327-.01-.484-.031a6.488 6.488 0 0 0-.837-.059c-1.797 0-2.665.866-3.437 3.431-1.154 3.834-2.443 7.69-3.691 11.419-.455 1.359-.909 2.718-1.358 4.078l.202.144 7.063-5.171a.905.905 0 0 1 1.25.173l.778.995a.908.908 0 0 1 .044 1.056c-2.986 4.553-6.555 7.38-10.912 8.642a5.414 5.414 0 0 1-1.501.227c-1.17 0-2.178-.472-2.838-1.33-.917-1.192-1.113-3.017-.551-5.139.808-3.05 1.862-6.071 2.882-8.993.477-1.367.97-2.78 1.43-4.173.398-1.205.776-2.429 1.177-3.725l.324-1.047-4.816-1.505a.843.843 0 0 1-.103-.039c.004.112.005.225.004.34-.038 4.496-2.761 5.167-4.381 5.167a7.5 7.5 0 0 1-1.144-.094.907.907 0 0 1-.765-.845c-.033-.595-.042-1.153-.05-1.645-.015-.956-.028-1.74-.199-2.393a5.242 5.242 0 0 0-1.407-.081c-.661 1.384-.92 2.547-.73 3.299.381 1.511.958 3.032 1.516 4.503.724 1.908 1.472 3.882 1.843 5.934.626 3.465-.132 6.694-2.135 9.093-1.859 2.225-4.563 3.451-7.615 3.451-.512 0-1.036-.035-1.558-.105-.989-.133-3.396-.597-4.383-2.037-.652-.952-.604-2.188-.557-3.383.011-.289.022-.567.023-.832-2.383 2.436-5.336 4.808-9.289 5.921a5.236 5.236 0 0 1-1.411.213c-1.215 0-1.897-.548-2.255-1.007-.647-.83-.793-2.05-.421-3.529.181-.72.417-1.41.69-2.129l-.336.276c-2.219 1.829-4.315 3.556-6.616 4.926-1.045.623-2.64 1.025-4.063 1.025-.76 0-1.822-.12-2.563-.69-1.761-1.354-2.732-4.42-2.621-6.484.035-.66.126-1.339.267-2.033l.121-.22a.94.94 0 0 0 .086-.671c2.125-8.172 10.751-17.882 18.052-19.61 2.257-.534 4.628-.615 7.139-.7 1.226-.042 2.494-.085 3.838-.181l.065-.002a.908.908 0 0 1 .858 1.201l-8.047 23.394.103.073 5.85-3.627a.907.907 0 0 1 1.219.248l.739 1.048a.907.907 0 0 1-.068 1.13l-.057.063c.287.034.576.062.865.089.905.086 1.841.176 2.75.463 1.262.399 2.481.931 3.659 1.446l.439.191c.052-.273.106-.544.16-.812.282-1.4.548-2.721.334-3.898-.243-1.338-.804-2.629-1.398-3.995-.491-1.13-.999-2.298-1.327-3.523-1.049-3.917-.454-7.723 1.634-10.443 1.716-2.236 4.242-3.467 7.112-3.467.22 0 .443.007.667.022 2.837.186 4.56 1.33 5.145 3.408a.904.904 0 0 1 .195-.129c.534-.262.978-.525 1.37-.757.748-.443 1.338-.793 2.014-.793.071 0 .141.004.21.012.262.03.512.045.744.045 1.822 0 2.727-.837 3.723-3.447.521-1.364 1.773-2.312 2.983-3.228.504-.381.979-.742 1.391-1.12a.908.908 0 0 1 .614-.24m-55.568 31.264c.524 0 1.14-.165 1.432-.384 6.586-4.938 10.453-9.976 12.169-15.858.324-1.111-.088-2.926-.503-3.225-.114-.083-.425-.179-.923-.179-.813 0-1.801.257-2.349.611-6.308 4.076-9.069 10.614-11.079 17.113.064.192.121.393.177.589.104.363.319 1.12.502 1.237.079.045.277.097.574.097M58.59 133.889c1.275 0 2.49.419 3.61 1.245 1.842 1.359 2.781 3.752 3.69 6.067.378.963.769 1.959 1.21 2.828a.9.9 0 0 1 .085.561c-1.388 8.201-4.699 13.977-10.419 18.177-2.092 1.536-4.235 2.348-6.197 2.348-4.06 0-6.797-3.274-7.143-8.546-.481-7.329 2.113-13.773 7.502-18.636 2.329-2.101 4.868-4.045 7.662-4.045m-8.381 25.728c.292-.118.589-.231.881-.341 1.106-.418 2.359-.893 2.672-1.522 1.872-3.754 3.447-7.723 4.97-11.561.527-1.328 1.051-2.649 1.585-3.955-.247-.556-.463-1.116-.658-1.62-.209-.541-.484-1.253-.67-1.561-1.195.029-2.618.635-2.84 1.091-2.75 5.653-4.963 10.872-6.768 15.958-.226.637.176 1.729.565 2.784.088.24.178.484.263.728m27.183-25.651c.195 0 .39.009.583.028 1.615.156 2.728.714 3.309 1.658.848 1.379.321 3.138-.149 4.341-.74 1.895-1.497 3.784-2.254 5.673-1.171 2.921-2.382 5.942-3.504 8.934-.442 1.178-.714 2.415-1.003 3.725-.079.357-.157.713-.239 1.069l.593.266c.499-.649 1.009-1.293 1.505-1.92 1.406-1.777 2.859-3.614 4.05-5.537a208.687 208.687 0 0 0 7.937-14.029c1.158-2.241 2.629-3.33 4.497-3.33.918 0 1.929.262 3.092.8.42.194.626.674.479 1.112l-7.615 22.624.352.28 3.057-5.893a.91.91 0 0 1 .805-.489c.245 0 .482.099.654.279l2.14 2.227a.908.908 0 0 1-.059 1.313c-.826.718-1.647 1.507-2.441 2.271-1.886 1.814-3.835 3.69-6.152 4.922-.762.405-1.501.611-2.196.611-.979 0-1.831-.415-2.399-1.169-.764-1.014-.933-2.532-.465-4.164.456-1.59.981-3.182 1.488-4.722l.249-.757c-.266.446-.538.889-.818 1.326-.228.356-.454.721-.683 1.089-1.277 2.058-2.598 4.187-4.549 5.472-1.613 1.063-3.62 1.39-5.561 1.706-.83.135-1.614.263-2.369.444a.91.91 0 0 1-1.111-.771c-.085-.69-.236-1.398-.396-2.148-.369-1.733-.75-3.524-.294-5.183.823-2.986 2.075-5.873 3.286-8.664a146.994 146.994 0 0 0 1.616-3.823c.307-.766.58-1.54.635-2.44l-3.752 3.576a.906.906 0 0 1-.977.179.91.91 0 0 1-.556-.823c-.036-2.525 1.097-5.143 3.108-7.183 1.803-1.829 4.029-2.878 6.107-2.877m78.449 1.544c1.103 0 2.257.227 3.374.447.793.156 1.542.303 2.259.372a.939.939 0 0 1 .823 1.161c-.173.702-.278 1.493-.388 2.331-.266 2.011-.541 4.09-1.877 5.227-2.847 2.423-6.574 3.84-10.148 5.084-3.028 1.055-4.259 3.516-3.376 6.752.586 2.149 1.645 2.424 2.503 2.424 1.001 0 2.185-.445 2.989-.78 1.484-.619 2.897-1.508 4.533-2.538a102.76 102.76 0 0 1 2.606-1.604.937.937 0 0 1 1.134.13c.132.127.22.284.261.453-.078.3-.147.597-.207.892-2.881 5.146-8.417 8.721-13.547 8.721-.35 0-.699-.017-1.038-.051-2.817-.281-6.19-1.781-6.266-7.334-.109-7.933 7.133-18.714 14.349-21.362.596-.219 1.255-.325 2.015-.325m.994 3.992-.12.003c-.693.016-1.555.037-1.849.293-1.58 1.381-3.031 3.011-4.435 4.586-.389.437-.779.874-1.171 1.307l.259.305c.514-.304 1.031-.601 1.537-.892 1.799-1.034 3.66-2.104 5.249-3.392.291-.236.411-1.229.498-1.954l.031-.257m-9.718 34.393c.364 0 1.331 0 1.74.736.587 1.056 2.409 4.64 1.201 6.445-1.25 1.868-3.947 3.458-6.412 3.779-1.468.191-3.061.28-5.016.28-1.226 0-2.49-.035-3.712-.068-1-.027-2.028-.056-3.062-.066l-9.649 39.339 3.945 2.598a.908.908 0 0 1-.246 1.628 37.65 37.65 0 0 0-1.63.528c-1.27.433-2.584.88-3.959 1.009-1.148.108-2.333.16-3.623.16-1.409 0-2.934-.064-4.663-.196-.849-.065-1.494-.692-2.063-1.245-.212-.206-.412-.401-.599-.546a.908.908 0 0 1 .014-1.445c.219-.163.437-.33.654-.496.491-.377.999-.766 1.537-1.12.43-.283.933-.516 1.42-.742.469-.218 1.342-.623 1.452-.845 2.775-10.756 5.417-21.586 8.213-33.052.603-2.473 1.214-4.979 1.836-7.523-1.169-.019-2.304-.062-3.411-.103a108.02 108.02 0 0 0-4.04-.102c-2.047 0-3.686.13-5.157.408-2.466.467-5.025 3.675-5.849 4.703-.135.324.276 1.598.497 2.282.067.209.136.42.201.631l3.527-1.767a.907.907 0 0 1 1.265.521c.062.185.204.474.354.78.518 1.056 1.163 2.37.639 3.432-.838 1.701-2.83 3.267-4.533 3.565a6.893 6.893 0 0 1-1.182.104c-1.961 0-3.721-.863-4.956-2.429-1.439-1.826-1.92-4.304-1.32-6.797 1.463-6.082 5.907-10.053 11.597-10.361 1.29-.07 2.657-.105 4.062-.105 4.698 0 9.477.391 14.098.769 2.157.176 4.387.359 6.573.498 2.003.128 3.944.373 6 .632.576.073 1.154.146 1.737.216a1.302 1.302 0 0 0-.004-.076 728.095 728.095 0 0 0-1.055-3.473l-.329-1.078a.908.908 0 0 1 .854-1.172c.393-.006.903-.06 1.397-.113.57-.061 1.16-.123 1.658-.123m71.132 15.057c.355 0 .718.019 1.079.057 3.17.331 4.837 2.282 4.694 5.495-.155 3.47-2.032 4.167-5.012 4.167h-.124a.907.907 0 0 1-.899-.83c-.03-.349-.055-.698-.079-1.045-.064-.906-.125-1.772-.278-2.598h-.084c-.463 0-.868.035-1.12.075-.477 1.574-.601 2.789-.38 3.705.311 1.289.813 2.526 1.345 3.835.499 1.228 1.015 2.498 1.36 3.82.974 3.731.371 7.374-1.653 9.996-1.763 2.283-4.392 3.54-7.401 3.54-.278 0-.561-.011-.844-.033-1.464-.112-3.552-.697-4.618-1.976-.709-.85-.635-2.077-.564-3.264.027-.443.052-.861.034-1.228a.908.908 0 0 1 1.062-.937c.346.06.697.107 1.048.153.846.112 1.72.228 2.566.528 1.116.396 2.181.917 3.21 1.421l.278.136c.061-.246.126-.49.189-.731.337-1.282.655-2.493.497-3.567-.245-1.671-.711-3.378-1.162-5.029-.649-2.377-1.32-4.836-1.387-7.33-.064-2.369.686-4.427 2.169-5.95 1.512-1.553 3.669-2.409 6.075-2.409m-13.818.275a.906.906 0 0 1 .839 1.249l-7.954 22.262.126.094 5.764-3.617a.904.904 0 0 1 1.052.062.908.908 0 0 1 .283 1.015c-1.413 3.897-6.93 8.509-10.178 8.509-.165 0-.326-.011-.479-.034-1.398-.204-2.887-2.451-2.842-3.819.027-.84.226-1.642.496-2.448l-.127.106c-2.168 1.818-4.216 3.536-6.547 4.902-.918.538-2.277.859-3.636.859-.74 0-2.12-.106-3.052-.814-1.703-1.294-2.536-4.542-2.115-6.474 2.159-9.923 8.085-17.059 17.138-20.639 2.238-.885 4.731-.953 7.369-1.024 1.218-.033 2.476-.067 3.754-.183a.973.973 0 0 1 .107-.006m-21.194 24.111c.524 0 1.14-.165 1.432-.384 6.586-4.938 10.453-9.976 12.169-15.858.324-1.111-.088-2.926-.503-3.225-.114-.083-.425-.179-.923-.179-.813 0-1.801.257-2.349.611-6.308 4.076-9.069 10.614-11.079 17.113.064.192.121.393.177.589.104.363.319 1.12.502 1.237.079.045.277.097.574.097m-6.717-24.028c1.488 0 2.673.987 3.251 2.709.384 1.145-.13 2.386-.627 3.587-.196.474-.381.922-.5 1.334a.905.905 0 0 1-1.317.538l-3.37-1.905c-6.537 6.107-7.31 9.824-3.064 16.528l1.62-4.49a.904.904 0 0 1 1.271-.503c.182.094.32.243.403.417 1.237 2.462 1.386 5.437.378 7.585-.669 1.425-1.801 2.385-3.188 2.703a9.26 9.26 0 0 1-2.042.254c-3.84 0-4.857-3.182-5.675-5.74-.233-.729-.471-1.474-.763-2.148-.368.405-.733.81-1.097 1.214-1.648 1.831-3.353 3.724-5.2 5.408-.949.865-2.497.959-3.119.959-.464 0-.926-.045-1.336-.131-1.234-.257-2.002-2.417-1.949-3.488.039-.785.669-3.748 2.124-3.863.09-.007.179-.011.27-.011.972 0 1.905.399 2.892.822.291.125.588.252.895.373 3.022-2.272 4.647-4.616 4.964-7.154.316-2.534-.657-5.297-2.971-8.411l-1.345 4.415a.907.907 0 0 1-1.655.187c-1.207-2.107-1.529-4.666-.864-6.844.519-1.699 1.589-3.02 3.012-3.721.81-.399 1.542-.593 2.24-.593 2.713 0 4.67 2.927 7.141 8.359.404-.456.804-.914 1.204-1.371 1.63-1.863 3.315-3.789 5.144-5.52 1.022-.968 2.185-1.5 3.274-1.5m-30.199 1.11c1.064 0 2.177.219 3.253.431.765.151 1.487.293 2.179.359a.906.906 0 0 1 .794 1.119c-.167.677-.268 1.44-.375 2.248-.256 1.939-.521 3.944-1.81 5.041-2.746 2.336-6.34 3.703-9.786 4.903-2.92 1.017-4.107 3.39-3.256 6.512.565 2.072 1.587 2.338 2.414 2.338.965 0 2.107-.43 2.882-.753 1.432-.597 2.794-1.454 4.371-2.448.787-.495 1.6-1.007 2.513-1.547a.91.91 0 0 1 1.094.125.908.908 0 0 1 .169 1.084c-2.743 5.077-8.163 8.622-13.181 8.622-.337 0-.674-.016-1.001-.049-2.716-.271-5.97-1.717-6.042-7.072-.105-7.65 6.879-18.047 13.838-20.601.575-.211 1.21-.313 1.943-.313m.959 3.849c-.039 0-.077.002-.116.003-.668.016-1.5.035-1.783.283-1.524 1.332-2.923 2.903-4.277 4.423-.375.421-.751.843-1.129 1.261l.25.294c.496-.293.995-.58 1.482-.86 1.735-.997 3.529-2.029 5.062-3.271.281-.228.396-1.185.48-1.885l.03-.248M36.808 100.418c-9.904 0-20.169 6.578-20.625 19.151-.175 4.831 1.563 9.478 3.524 13.538-.519-.04-1.045-.06-1.562-.06-7.439 0-13.79 4.016-16.575 10.482-3.401 7.894-1.131 17.505 5.399 22.853 4.843 3.966 10.28 5.978 16.16 5.978 3.038 0 6.16-.556 9.28-1.653 3.117-1.096 5.816-2.677 8.071-4.706 2.346 3.225 5.883 5.116 10.091 5.116 3.248 0 6.619-1.214 9.748-3.512a32.344 32.344 0 0 0 2.648-2.167 6.913 6.913 0 0 0 2.612 3.482 6.88 6.88 0 0 0 3.937 1.232c.543 0 1.086-.064 1.613-.191.537-.129 1.182-.234 1.93-.356 1.613-.263 3.498-.57 5.398-1.324 1.67 1.678 3.935 2.62 6.377 2.62 1.688 0 3.374-.442 5.013-1.313 1.26-.67 2.401-1.45 3.453-2.275 1.799 2.318 4.514 3.643 7.482 3.643 1.67 0 3.351-.413 4.996-1.227a31.033 31.033 0 0 0 3.915-2.339 6.894 6.894 0 0 0 5.68 2.979 6.902 6.902 0 0 0 3.721-1.086 7.01 7.01 0 0 0 3.113 1.358c1.076.189 2.512.407 4.026.407 2.34 0 4.386-.531 6.083-1.577a27.881 27.881 0 0 0 4.243-3.202 11.634 11.634 0 0 0 3.828 2.937 6.865 6.865 0 0 0-2.937 3.903l-.206-.013a359.048 359.048 0 0 1-6.466-.491c-4.741-.388-9.643-.789-14.587-.789-1.512 0-2.988.038-4.386.114-8.315.451-15.029 6.319-17.106 14.949-1.033 4.291-.143 8.634 2.441 11.914 2.362 2.997 5.886 4.716 9.669 4.716.735 0 1.481-.065 2.217-.194 1.695-.297 3.38-1.059 4.868-2.14a1946.521 1946.521 0 0 1-4.608 18.436c-.323.172-.662.367-1.005.592-.722.474-1.344.952-1.894 1.374-.205.157-.392.301-.582.442a6.944 6.944 0 0 0-2.785 5.477 6.945 6.945 0 0 0 2.588 5.455c.058.054.117.113.179.173.901.876 2.773 2.696 5.789 2.927 1.883.144 3.558.214 5.12.214 1.478 0 2.846-.061 4.182-.186 2.081-.195 3.885-.809 5.334-1.303.496-.169.962-.328 1.367-.445a6.927 6.927 0 0 0 4.904-5.602 6.928 6.928 0 0 0-2.293-6.239c1.636 1.019 3.587 1.67 5.796 1.89.522.052 1.059.079 1.596.079 3.347 0 6.733-1.012 9.782-2.796a7.411 7.411 0 0 0 3.553 1.845c.818.171 1.68.257 2.561.257 1.64 0 4.751-.328 7.16-2.524.223-.203.443-.408.661-.614 1.714 1.915 4.245 3.444 8.034 3.444 1.07 0 2.207-.136 3.381-.405a10.324 10.324 0 0 0 2.454-.902c2.073 1.314 4.404 1.606 6.062 1.606 2.449 0 4.818-.598 6.669-1.683.174-.102.347-.206.518-.311 1.273 1.203 2.843 2.073 4.599 2.33.441.064.894.097 1.348.097 2.277 0 4.683-.858 6.93-2.225 2.716 2.036 6.002 2.454 7.099 2.539.434.033.872.05 1.302.05 4.839 0 9.267-2.14 12.15-5.872 3.17-4.104 4.158-9.636 2.711-15.179a25.743 25.743 0 0 0-.12-.442c4.67-2.025 5.479-6.622 5.58-8.902.282-6.358-3.762-11.072-10.065-11.73a16.503 16.503 0 0 0-1.702-.089c-3.197 0-6.171.94-8.587 2.682a6.846 6.846 0 0 0-2.141-1.677 6.946 6.946 0 0 0-3.782-.694c-1.075.096-2.172.126-3.333.157-2.901.079-6.189.168-9.413 1.443a34.945 34.945 0 0 0-6.39 3.31c-1.7-3.043-4.655-4.86-8.084-4.861-2.629 0-5.257 1.116-7.399 3.142-.393.371-.776.747-1.151 1.125-1.994-2.395-4.631-4.235-8.213-4.235-1.574 0-3.178.387-4.769 1.151l.056-.083c2.761-4.127 1.01-9.183-.945-12.697a7.352 7.352 0 0 0-1.697-2.037 22.029 22.029 0 0 0 4.864-2.25 10.821 10.821 0 0 0 1.755 1.706c1.645 1.265 3.796 1.934 6.221 1.934 2.452 0 5.063-.672 7.017-1.802 1.594 1.437 3.705 2.239 5.983 2.239.983 0 2.004-.147 3.037-.438a23.599 23.599 0 0 0 5.095-2.11c2.071 1.655 4.653 2.34 6.687 2.612.786.105 1.579.159 2.356.159 3.995 0 7.638-1.345 10.485-3.83 1.787 1.95 4.323 3.054 7.075 3.054 1.04 0 2.107-.156 3.169-.464 5.711-1.654 10.509-5.394 14.261-11.115a6.903 6.903 0 0 0-.335-8.041l-.777-.995a6.866 6.866 0 0 0-3.339-2.329c.208-.66.414-1.321.616-1.984 1.57-.108 2.855-.552 3.827-.887.241-.083.54-.186.657-.216a6.876 6.876 0 0 0 5.144-7.756l-.177-1.145a6.86 6.86 0 0 0-5.538-5.729l-.02-.427c-.022-.459-.043-.917-.06-1.375a6.926 6.926 0 0 0-4.243-6.126 6.87 6.87 0 0 0-2.66-.533c-1.738 0-3.4.649-4.679 1.826-.2.184-.563.459-.948.75-1.45 1.098-3.604 2.729-4.788 5.436a8.065 8.065 0 0 0-1.248.216c-1.53-1.015-3.583-1.786-6.333-1.966a16.456 16.456 0 0 0-1.06-.035c-3.446 0-6.687 1.134-9.289 3.191a6.948 6.948 0 0 0-6.015-2.757c-1.242.088-2.451.13-3.62.169-2.701.092-5.486.187-8.323.858-3.276.775-6.514 2.552-9.481 4.919a6.934 6.934 0 0 0-5.676-4.083c-.422-.041-1.03-.16-1.673-.287-1.268-.249-2.844-.56-4.532-.56-1.477 0-2.813.226-4.082.692-2.826 1.037-5.594 2.921-8.087 5.33a11.406 11.406 0 0 1-.21-.578 6.95 6.95 0 0 0-3.468-4.039 6.955 6.955 0 0 0-3.1-.736c-.754 0-1.497.122-2.21.363-.156.053-.322.104-.497.155l2.99-10.337a6.907 6.907 0 0 0-1.753-6.805 6.862 6.862 0 0 0-4.882-2.021c-.653 0-1.302.093-1.929.275l-8.189 2.378a6.872 6.872 0 0 0-4.925 7.507c.083.65.184 1.265.288 1.83a6.91 6.91 0 0 0-4.586-1.742 6.874 6.874 0 0 0-4.8 1.94 16.7 16.7 0 0 1-.96.813c-1.439 1.169-3.396 2.759-4.567 5.345a9.27 9.27 0 0 0-2.084.55 7.108 7.108 0 0 0-.461-.234c-1.969-.911-3.805-1.354-5.611-1.354-1.708 0-4.462.432-6.975 2.741-1.271-1.579-3.464-3.204-7.192-3.563a12.036 12.036 0 0 0-1.158-.055c-3.415 0-6.924 1.469-9.749 4.057a12.289 12.289 0 0 0-1.881-1.717c-2.143-1.581-4.623-2.417-7.172-2.417-4.834 0-8.617 2.826-11.681 5.59a32.026 32.026 0 0 0-1.628 1.577c-1.207-2.259-2.64-4.322-4.086-6.227l-.348-.458c-.348-.458-.698-.918-1.044-1.38 1.063.342 2.166.518 3.284.518 4.802 0 8.888-3.276 10.41-8.346 2.059-6.863-.478-13.279-6.464-16.347-3.063-1.569-6.599-2.399-10.224-2.399Z"/>
</svg>
