<svg xmlns="http://www.w3.org/2000/svg" data-name="katman 1" viewBox="0 0 581.663 270.626">
  <path d="M420.188 147.467c4.213-4.862 3.565-14.909 1.945-18.798-.972-1.945-2.269-2.917-3.565-3.565-1.296-2.269-2.917-7.454-2.917-9.075.324-3.889-2.269-7.778-7.778-11.668-.324-4.213-.972-20.418-1.621-28.521-.324-4.537-4.213-8.103-8.751-8.103-2.269 0-6.158-1.296-8.751-2.269-2.593-3.241-8.103-8.751-13.936-8.751-2.593 0-4.862.972-6.482 2.593-3.241 2.917-9.399 4.537-12.964 4.537h-.972c-.324 0-.648-.324-.648-.324-1.621-.972-4.537-2.593-8.427-2.593-1.621 0-3.565.324-5.51.972-.648.324-2.269.648-4.862.648-3.565 0-7.454-.648-9.399-.972l-.324-.324c-1.621-1.621-4.862-4.213-9.723-4.213-2.269 0-4.213.648-6.482 1.621s-3.889.972-4.537.324c-2.269-5.186-7.454-10.371-15.233-9.075-1.296.324-2.269.324-2.917 0l-1.621-41.485c-.324-4.862-3.889-8.427-8.751-8.427h-58.014a8.714 8.714 0 0 0-8.751 8.751v98.527H148.59c-3.241 0-5.834 1.621-7.454 4.213s-1.621 5.834-.324 8.427c.972 2.269 2.593 4.213 4.862 5.834 2.593 1.945 5.51 4.862 8.751 8.751 3.889 4.213 8.751 9.399 14.909 14.585 9.075 8.103 9.399 15.233 9.723 22.039v1.621c.648 11.668 28.845 23.335 38.892 23.335h1.296c7.778-.648 11.019-8.751 13.612-14.585.972-1.945 1.945-5.186 2.593-5.51 0 0 .324-.324 1.621-.324 3.889 0 10.047 1.945 12.316 2.917q.324 0 .648.324c.324 0 11.668 3.241 18.15 23.011 4.862 15.233 12.316 20.418 16.529 23.659 2.593 1.945 2.593 2.269 2.593 2.593-.324 9.399 2.917 16.529 9.399 25.928 5.186 7.778 19.122 10.695 31.762 12.964 4.213.972 8.427 1.621 11.019 2.593 1.945.648 3.889.972 5.51.972 6.806 0 10.695-5.51 10.695-11.019 0-.648-.324-1.621-.648-2.269 0 0-5.834-11.668-7.778-25.28-1.621-11.019 10.695-22.687 11.668-23.659 11.992-7.13 32.734-20.743 36.299-28.197 1.296-2.593 6.482-3.241 11.019-3.889 3.889-.648 7.454-.972 10.371-2.917 7.454-4.213 5.834-12.964 3.889-17.826-.972-3.241-.972-7.13-.324-8.103Zm-7.13-6.158c-4.862 5.186-2.269 15.233-1.945 17.177 0 .324 0 .648.324.648.648 1.621 1.621 5.186.324 5.834s-4.213 1.296-7.13 1.621c-6.806.972-14.909 2.269-18.474 9.399-1.621 3.565-15.557 13.936-32.734 23.984-.648.324-.972.648-1.296.972-2.917 2.593-17.177 16.529-14.909 32.41 1.621 12.316 6.158 23.011 7.778 26.901 0 0 0 .324-.324.324 0 0-.648.324-2.917-.324-3.241-.972-7.13-1.945-11.992-2.917-9.075-1.945-22.687-4.537-25.604-9.075-5.186-7.778-8.103-13.288-7.778-20.094.324-5.834-3.565-8.751-6.806-11.019-3.889-2.593-9.075-6.482-12.964-18.798-7.454-23.335-21.715-28.521-24.632-29.493-1.621-.648-9.399-3.565-15.557-3.565-3.241 0-5.834.648-7.778 2.269-2.593 2.269-4.213 5.834-5.51 9.399-1.296 3.565-3.565 8.427-5.51 8.427h-.324c-8.103 0-27.873-10.371-29.169-13.936v-1.621c-.324-7.778-.648-18.15-12.964-28.845-5.834-5.186-10.371-10.047-14.261-14.261-3.565-3.889-6.806-7.13-9.723-9.399l-.972-.972h59.959a8.714 8.714 0 0 0 8.751-8.751V9.075h56.394l1.621 41.161c0 2.593 1.296 5.186 3.241 6.482 2.593 1.945 6.482 2.593 11.019 1.945 2.917-.324 4.537 2.917 4.862 3.565.324.972.972 1.621 1.296 2.269 1.296 1.621 4.213 3.889 9.075 3.889 2.269 0 4.862-.648 7.13-1.621 2.593-1.296 3.565-.648 5.834 1.296.972.972 2.269 1.945 4.213 2.269 1.621.324 6.806 1.296 11.992 1.296 3.241 0 5.834-.324 8.103-1.296 2.269-.648 3.241-.324 5.51.972.648.324.972.648 1.621.972 1.296.648 2.917.972 5.186.972 5.834 0 14.261-2.269 19.446-7.13.972 0 3.565 1.621 6.482 5.186.972.972 1.945 1.945 3.241 2.593 2.593.972 7.454 2.917 11.992 3.241.648 8.427 1.296 24.632 1.296 27.873 0 2.593 1.621 5.186 3.889 6.806 2.593 1.621 3.565 2.917 3.889 3.565 0 4.537 2.917 13.288 5.834 16.529.648.648.972.972 1.621 1.296.324 2.917 0 6.806-.648 8.103Z"/>
  <path d="M341.803 259.822c-.806 0-1.79-.165-2.927-.49-3.333-1-7.063-1.906-11.435-2.781l-1.907-.405c-12.091-2.562-21.576-4.888-24.539-9.495-5.401-8.103-8.277-13.859-7.938-20.962.23-4.142-2.26-6.226-5.538-8.521-4.484-2.988-9.645-7.24-13.524-19.527-6.31-19.751-17.695-25.453-22.298-26.987l-.136-.051c-3.051-1.218-9.466-3.279-14.163-3.279-2.728 0-4.616.516-5.943 1.621-2.163 1.895-3.596 5.3-4.596 8.051-3.568 9.818-6.565 9.818-7.693 9.818h-.314c-8.219 0-28.838-10.202-30.642-15.162l-.15-.414v-1.961l-.006-.152c-.305-7.313-.683-16.415-11.708-25.989-5.576-4.956-9.816-9.461-14.028-14.024-3.791-4.134-6.689-6.94-9.129-8.838l-.123-.096-5.32-5.32h64.19c3.357 0 5.988-2.631 5.988-5.988V10.804h59.601l1.667 42.324c.002 1.779.837 3.509 2.031 4.305l.114.081c1.415 1.062 3.495 1.622 6.016 1.622.893 0 1.841-.07 2.818-.21.306-.035.529-.048.747-.048 2.662 0 4.99 1.728 6.559 4.862l.079.158.056.169c.086.257.276.535.497.856.149.218.313.457.467.725.69.792 2.756 2.683 6.725 2.683 1.721 0 3.855-.489 5.868-1.344 1.222-.602 2.258-.883 3.254-.883 2.146 0 3.637 1.278 5.079 2.514l.073.062.067.068c.881.881 1.697 1.33 2.729 1.502 1.897.378 6.622 1.224 11.221 1.224 3.051 0 5.171-.325 6.873-1.056l.146-.062.152-.043c.98-.28 1.795-.411 2.562-.411 1.767 0 3.157.701 4.655 1.556.419.215.731.423.985.592.157.104.311.212.52.316.927.464 2.169.68 3.911.68 5.056 0 12.579-1.952 17.151-6.239l.722-.677h.988c3.044 0 6.901 4.349 8.141 5.848.792.791 1.488 1.474 2.307 1.909l.431.162c2.481.938 6.636 2.51 10.361 2.776l2.149.153.165 2.148c.617 8.016 1.266 23.924 1.266 27.226 0 1.574 1.046 3.344 2.669 4.526 2.898 1.826 4.108 3.407 4.612 4.415l.264.528v.59c0 4 2.688 11.718 4.977 14.315.549.548.637.621.869.737l1.218.607.15 1.353c.328 2.949.086 7.325-.876 9.252l-.163.327-.25.267c-3.4 3.627-1.891 11.245-1.395 13.749.015.07.027.138.04.202l.28.699c.84 2.1 2.435 7.162-.889 8.824-1.82.908-5.2 1.535-7.758 1.819-7.085 1.014-13.235 2.305-15.958 7.75-2.084 4.587-18.05 15.72-32.725 24.303l-.144.078c-.269.134-.354.22-.608.474l-.106.101c-1.618 1.439-15.75 14.484-13.646 29.214 1.5 11.395 5.695 21.451 7.275 25.237l.295.708v.5a2.78 2.78 0 0 1-2.297 2.769 4.537 4.537 0 0 1-1.107.125Z"/>
  <path d="m275.12 13.304 1.572 39.923c0 2.515 1.257 5.03 3.144 6.287 1.886 1.415 4.479 2.122 7.515 2.122 1.012 0 2.073-.079 3.173-.236.134-.015.265-.022.394-.022 2.581 0 4.022 2.881 4.322 3.48.314.943.943 1.572 1.257 2.2 1.257 1.572 4.087 3.772 8.802 3.772 2.2 0 4.715-.629 6.916-1.572.891-.445 1.584-.654 2.207-.654 1.134 0 2.031.694 3.452 1.912.943.943 2.2 1.886 4.087 2.201 1.572.314 6.601 1.257 11.631 1.257 3.144 0 5.658-.314 7.859-1.257.734-.21 1.327-.314 1.875-.314 1.094 0 2.003.419 3.47 1.257.629.314.943.629 1.572.943 1.257.629 2.829.943 5.03.943 5.658 0 13.832-2.2 18.861-6.916.943 0 3.458 1.572 6.287 5.03.943.943 1.886 1.886 3.144 2.515 2.515.943 7.23 2.829 11.631 3.144.629 8.173 1.258 23.891 1.258 27.034 0 2.515 1.572 5.03 3.772 6.601 2.515 1.572 3.458 2.829 3.772 3.458 0 4.401 2.829 12.889 5.658 16.032.629.629.943.943 1.572 1.257.314 2.829 0 6.602-.629 7.859-4.715 5.03-2.2 14.775-1.886 16.661 0 .314 0 .629.314.629.629 1.572 1.572 5.03.314 5.659-1.257.629-4.087 1.257-6.916 1.572-6.601.943-14.46 2.201-17.918 9.116-1.572 3.458-15.089 13.517-31.75 23.262-.629.315-.943.629-1.257.943-2.829 2.515-16.661 16.032-14.46 31.435 1.572 11.945 5.973 22.319 7.545 26.092 0 0 0 .314-.314.314 0 0-.157.079-.59.079s-1.14-.079-2.24-.393c-3.144-.943-6.916-1.886-11.631-2.829-8.802-1.886-22.005-4.401-24.834-8.802-5.03-7.545-7.859-12.889-7.545-19.49.314-5.658-3.458-8.488-6.601-10.688-3.772-2.515-8.802-6.287-12.574-18.232-7.23-22.634-21.062-27.663-23.891-28.606-1.572-.629-9.116-3.458-15.089-3.458-3.144 0-5.659.629-7.545 2.201-2.515 2.201-4.087 5.658-5.344 9.116-1.257 3.458-3.458 8.173-5.344 8.173h-.314c-7.859 0-27.035-10.059-28.292-13.517v-1.572c-.314-7.545-.629-17.604-12.574-27.978-5.658-5.03-10.059-9.745-13.832-13.832-3.458-3.772-6.601-6.916-9.431-9.116l-.943-.943h58.156a8.453 8.453 0 0 0 8.488-8.488V13.304h54.698m4.807-5h-64.505v100.564a3.45 3.45 0 0 1-3.488 3.488h-70.223l8.531 8.535.661.661.283.283.22.22.246.191c2.326 1.809 5.127 4.525 8.814 8.548 4.096 4.437 8.555 9.176 14.196 14.19l.021.019.022.019c10.211 8.868 10.55 17.018 10.849 24.208l.004.099v2.348l.301.828c.417 1.147 1.686 4.636 14.145 10.825 3.622 1.799 12.71 5.984 18.846 5.984h.314c4.062 0 7.16-3.536 10.043-11.465.89-2.447 2.134-5.448 3.888-7.018.846-.678 2.254-1.007 4.302-1.007 4.326 0 10.353 1.949 13.232 3.1l.136.055.139.046c4.24 1.413 14.745 6.716 20.709 25.384 3.911 12.385 9.284 17.343 14.514 20.838 3.245 2.275 4.579 3.659 4.433 6.284-.41 8.601 3.541 15.285 8.358 22.512 3.513 5.403 13.033 7.781 26.09 10.547l1.876.399.033.007.034.007c4.288.858 7.943 1.746 11.175 2.715l.032.01.032.009c1.378.394 2.56.585 3.613.585a7.09 7.09 0 0 0 1.689-.193 5.323 5.323 0 0 0 4.215-5.2v-1l-.385-.923-.105-.251c-1.544-3.702-5.646-13.537-7.098-24.569l-.004-.027-.004-.027c-1.953-13.672 12.228-26.454 12.832-26.991l.11-.098.104-.104.053-.054.049-.025.143-.083c3.075-1.799 30.014-17.715 33.718-25.382 2.189-4.321 7.432-5.403 14.059-6.352 1.44-.163 5.913-.757 8.519-2.06 3.593-1.797 4.375-6.278 2.092-11.987l-.193-.483c-1.445-7.309-.379-10.304.77-11.53l.499-.532.326-.652c1.376-2.753 1.421-7.991 1.126-10.647l-.3-2.704-2.327-1.163c-.07-.067-.17-.165-.268-.263-1.872-2.189-4.304-9.284-4.304-12.607v-1.181l-.528-1.056c-.93-1.86-2.758-3.663-5.434-5.361-1.028-.774-1.582-1.835-1.582-2.462 0-3.42-.639-19.182-1.272-27.418l-.331-4.297-4.298-.307c-3.36-.24-7.298-1.729-9.651-2.619l-.26-.098c-.449-.272-.95-.757-1.515-1.321-2.143-2.58-6.142-6.663-9.992-6.663h-1.977l-1.442 1.352c-3.896 3.652-10.717 5.563-15.442 5.563-1.303 0-2.243-.14-2.794-.415-.036-.018-.139-.087-.248-.16-.267-.178-.66-.44-1.181-.711-1.734-.986-3.496-1.858-5.848-1.858-1.006 0-2.038.161-3.248.507l-.305.087-.291.125c-1.377.59-3.193.853-5.889.853-4.375 0-8.906-.811-10.651-1.16l-.079-.016-.079-.013c-.504-.084-.864-.294-1.373-.804l-.136-.136-.146-.125c-1.534-1.315-3.634-3.115-6.705-3.115-1.373 0-2.741.352-4.291 1.107-1.674.702-3.472 1.119-4.832 1.119-2.728 0-4.146-1.097-4.703-1.676-.15-.243-.296-.456-.425-.644-.073-.107-.169-.246-.218-.326l-.082-.245-.159-.318c-1.984-3.968-5.189-6.244-8.793-6.244-.313 0-.632.018-.946.053l-.078.009-.078.011c-.862.123-1.692.185-2.466.185-1.947 0-3.551-.398-4.515-1.122l-.111-.083-.115-.077c-.384-.256-.917-1.138-.917-2.127v-.098l-.004-.098-1.572-39.923-.189-4.803Z"/>
  <g fill="#fff">
    <path d="M46.851 116.847c.919-2.614 2.878-5.445 2.143-6.741-1.092-1.926-3.993-3.666-6.291-3.91-8.646-.918-14.317 6.51-11.081 15.466 2.017 5.581 5.94 10.602 9.6 15.422 5.54 7.295 9.664 14.79 8.035 24.416-1.651 9.754-6.546 16.912-16.023 20.246-9.696 3.41-18.876 2.045-26.886-4.515-6.073-4.973-7.963-14.09-4.915-21.164 2.597-6.03 8.901-9.533 16.15-8.976 6.413.493 11.141 5.792 10.584 11.864-.546 5.958-5.154 8.021-9.282 5.225.287-3.337 1.235-6.268.483-8.664-.45-1.434-4.093-3.285-5.359-2.742-2.634 1.13-5.612 3.296-6.722 5.804-3.116 7.044 1.311 15.486 8.78 18.122 7.649 2.7 16.506.673 21.29-4.874 4.77-5.53 5.812-14.49 1.608-21.757-3.046-5.265-7.867-9.544-10.623-14.92-2.675-5.219-5.383-11.336-5.179-16.953.607-16.762 18.664-21.244 29.786-15.546 4.639 2.377 5.741 6.943 4.294 11.765-1.699 5.662-6.759 6.353-10.393 2.431Zm393.515-5.749c-7.73 0-14.545-.88-20.961.342-3.63.692-7.101 4.44-9.631 7.621-.997 1.253.763 4.711 1.267 7.164l6.8-3.419c.442 1.307 2.25 3.916 1.572 5.297-1.012 2.06-3.603 4.24-5.827 4.633-6.514 1.15-11.358-5.028-9.678-12.051 2.032-8.498 8.269-14.132 16.179-14.572 12.287-.683 24.708.925 37.063 1.696 4.343.271 8.662.935 13.155 1.438-.078-1.543-.045-1.782-.108-1.992-.695-2.305-1.406-4.606-2.112-6.908 2.086-.034 5.519-.823 6.002.042 1.38 2.473 3.004 6.586 1.878 8.274-1.711 2.565-5.519 4.688-8.685 5.105-5.979.788-12.135.228-18.635.228l-14.921 61.205 6.747 4.43c-2.715.792-5.39 2.013-8.155 2.276-4.048.385-8.175.265-12.238-.04-1.146-.086-2.188-1.567-3.278-2.408 1.074-.801 2.113-1.656 3.229-2.392 1.659-1.094 4.532-1.805 4.889-3.194 5.18-20.191 10.025-40.468 15.45-62.776Zm-275.034 8.532 11.734-3.407-12.545 43.37c4.229-5.147 6.949-9.666 10.808-12.755 2.839-2.273 7.167-2.675 10.832-3.911 1.116 3.439 3.353 6.948 3.143 10.304-.709 11.336-4.743 21.397-14.891 27.655-1.938 1.195-5.114.785-7.586.351-.499-.087-.394-3.63-.689-6.937l6.821 4.213c5.841-6.658 9.219-14.363 9.806-23.213.116-1.742-1.162-3.577-1.797-5.369-1.801.773-4.301 1.04-5.287 2.405-5.029 6.963-9.595 14.26-14.479 21.332-1.727 2.501-3.895 4.697-5.862 7.033.105-3.131-.331-6.396.407-9.369 3.449-13.899 7.394-27.675 10.73-41.6.653-2.726-.61-5.913-1.144-10.102Zm-67.796 57.234c2.907-3.854 6.121-7.517 8.652-11.604a299.138 299.138 0 0 0 11.417-20.179c2.109-4.081 4.759-5.083 9.17-3.042l-11.197 33.266 2.452 1.95 5.104-9.841 3.065 3.19c-3.979 3.458-7.531 7.725-12.064 10.136-4.106 2.183-6.647-.872-5.388-5.258 1.782-6.209 4.226-12.227 5.548-18.703-2.173 3.911-4.167 7.937-6.574 11.697-2.075 3.241-4.075 7.011-7.114 9.013-2.991 1.971-7.246 2.013-10.946 2.901-.413-3.352-1.852-6.989-1.024-9.997 1.679-6.094 4.61-11.838 6.974-17.747.781-1.952 1.403-3.967.733-6.753l-7.3 6.956c-.099-6.9 6.7-13.628 12.609-13.058 4.729.456 4.803 3.339 3.441 6.827-2.728 6.988-5.62 13.914-8.253 20.937-.969 2.584-1.4 5.371-2.077 8.066l2.771 1.244Zm153.952-.785 9.113-5.65 1.058 1.501c-4.012 4.451-8.524 8.431-14.605 10.143-3.658 1.03-5.118-1.141-4.242-4.623.583-2.315 1.628-4.513 2.724-7.459-5.029 3.95-9.024 7.693-13.616 10.428-2.163 1.288-6.387 1.832-8.033.566-2.036-1.566-3.397-5.419-3.249-8.188.633-11.849 14.25-28.41 25.536-31.08 4.617-1.093 9.559-.806 15.514-1.23l-11.84 34.422 1.64 1.169Zm-24.262-4.173c.471 1.138.687 3.139 1.705 3.712 1.042.587 3.244.28 4.29-.504 8.131-6.096 14.967-13.35 17.896-23.387.537-1.842.046-5.129-1.205-6.035-1.291-.935-4.533-.468-6.153.579-9.121 5.894-13.321 15.14-16.532 25.634Zm326.298-31.614-12.282 34.527 1.75 1.301 9.458-5.954c-1.971 5.46-10.414 12.489-14.541 11.89-1.291-.187-3.163-2.864-3.116-4.349.08-2.571 1.45-5.101 2.387-7.98-4.757 3.788-8.906 7.788-13.734 10.627-2.252 1.324-6.703 1.57-8.55.171-1.958-1.483-3.248-5.767-2.687-8.362 3.072-14.213 11.382-24.742 24.918-30.116 4.652-1.847 10.295-1.185 16.399-1.754Zm-33.657 35.587c9.153-.95 23.881-18.335 23.267-26.777-.343-4.718-3.597-5.586-6.533-3.394-4.255 3.176-8.255 7.051-11.33 11.368-3.866 5.428-6.972 11.533-5.404 18.803Zm-13.057-8.761c2.816 5.551 1.441 12.484-3.282 13.573-9.997 2.304-8.775-7.286-12.172-12.49-3.581 3.874-6.895 7.859-10.683 11.322-1.197 1.094-3.764 1.287-5.505.926-.893-.185-1.917-2.527-1.854-3.844.078-1.62 1.127-4.458 1.935-4.523 1.83-.147 3.77 1.085 6.214 1.951 10.354-7.497 11.909-16.293 2.202-27.855l-2.77 9.141c-3.011-5.242-1.742-11.84 2.632-14.002 4.754-2.351 7.645.468 13.145 12.925 3.63-4.021 6.998-8.21 10.861-11.875 2.645-2.51 6.183-2.92 7.589 1.251.607 1.801-1.067 4.374-1.704 6.597l-5.943-3.349c-11.268 10.322-12.89 16.792-4.011 29.569l3.347-9.318ZM85.044 153.459c-1.863 11.007-6.305 19.252-14.41 25.203-8.606 6.319-16.345 2.683-17.041-7.914-.662-10.078 2.778-18.838 10.318-25.642 4.112-3.71 9.358-7.725 14.503-3.929 3.383 2.496 4.499 8.081 6.63 12.282Zm-6.484-3.025c-1.278-2.701-2.011-5.773-2.905-5.821-1.898-.101-4.948.849-5.647 2.287-3.639 7.481-6.968 15.151-9.749 22.989-.702 1.978 1 4.814 1.597 7.256 2.427-1.257 6.076-1.901 7.063-3.88 3.712-7.445 6.557-15.324 9.641-22.831Z"/>
    <path d="M471.598 169.405c-4.344 8.067-12.962 12.913-19.99 12.222-5.66-.556-7.8-4.139-7.877-9.293-.162-10.721 9.613-25.944 19.889-29.731 2.999-1.105 6.973.446 10.5.78-.862 3.517-.602 8.356-2.833 10.26-3.946 3.367-9.255 5.391-14.282 7.149-4.751 1.662-7.316 5.748-5.752 11.455 1.604 5.854 5.901 4.912 9.817 3.273 3.343-1.399 6.339-3.633 10.529-6.115Zm-17.499-12.957 1.908 2.237c3.705-2.261 7.651-4.223 10.989-6.937 1.24-1.008 1.058-3.775 1.525-5.739-1.828.252-4.217-.14-5.378.878-3.284 2.878-6.065 6.333-9.045 9.561Zm-235.597 12.657c-4.509 8.599-14.081 14.134-20.846 12.166-2.597-.756-5.758-3.977-6.321-6.584-2.525-11.686 9.594-30.252 21.321-32.999 2.488-.583 6.929-.016 7.818 1.542 1.201 2.105.952 7.118-.636 8.357-4.816 3.759-10.367 6.809-16.035 9.158-4.591 1.902-7.388 6.04-5.775 11.518 1.671 5.676 5.919 4.972 9.867 3.277 3.217-1.381 6.064-3.626 10.607-6.435Zm-17.46-12.97 2.065 2.761c3.998-2.835 8.108-5.532 11.905-8.616.8-.65.451-2.72.632-4.136-1.451-.086-3.47-.828-4.256-.145-3.636 3.162-6.93 6.72-10.346 10.136Zm98.798 19.822 10.872-7.959 1.114 1.425c-3.602 5.493-8.354 9.945-14.904 11.842-4.376 1.267-6.814-1.973-5.387-7.361 1.684-6.358 4.088-12.524 6.153-18.782.843-2.554 1.615-5.131 2.543-8.094l-8.137-2.543c2.246-1.101 3.406-2.197 4.427-2.08 4.514.518 6.248-1.74 7.76-5.698.89-2.329 3.883-3.851 5.93-5.736.086 2.391.265 4.784.216 7.172-.021 1.049-.506 2.088-.89 3.55l8.83 1.222.254 1.64c-1.857.466-3.792 1.517-5.558 1.284-4.665-.618-6.347 1.795-7.535 5.742-2.33 7.744-4.995 15.387-7.521 23.072l1.832 1.304Zm-160.761.006 10.902-7.874 1.689 2.251c-4.785 3.562-9.204 7.869-14.461 10.471-4.975 2.462-8.09-1.577-6.171-7.95 2.554-8.479 5.582-16.815 8.582-25.734l-8.363-2.706c2.731-1.122 3.997-2.145 5.14-2.022 4.394.474 5.648-2.109 7.14-5.6 1.011-2.366 3.821-3.959 5.827-5.897.037 2.597.107 5.195.093 7.791-.005.86-.227 1.718-.405 2.966l8.483 1.246.32 1.575c-1.391.491-2.918 1.627-4.15 1.365-6.036-1.283-7.833 2.282-9.273 7.089-2.189 7.307-4.787 14.491-7.212 21.728l1.858 1.301Zm144.773-23.825c-.156-2.775.075-4.854-.575-6.604-.208-.56-3.772-.768-4.041-.239-.922 1.817-1.821 4.223-1.358 6.058 1.27 5.04 3.875 9.788 4.792 14.862 1.808 9.999-5.267 17.567-14.745 16.296-1.923-.258-4.427-.975-5.379-2.364-.993-1.45-.435-3.968-.555-6.019 1.785.245 3.644.255 5.337.791 2.487.787 4.855 1.949 7.274 2.951.383-2.951 1.48-6.034.972-8.822-.68-3.737-2.932-7.158-3.926-10.871-2.744-10.244 3.12-18.849 12.142-18.258 3.951.259 6.513 1.897 6.476 6.226-.038 4.552-2.185 6.655-6.415 5.993Zm291.448-.396c-.196-2.243-.243-4.475-.774-6.585-.063-.251-3.887-.195-4.061.341-.707 2.176-1.293 4.748-.772 6.893.957 3.945 3.06 7.604 4.094 11.539 2.772 10.557-3.61 19.374-13.446 18.634-2.114-.159-4.763-.987-6.01-2.478-1.041-1.245-.392-3.912-.491-5.949 1.746.302 3.572.379 5.22.96 2.293.809 4.453 1.995 6.67 3.02.522-2.888 1.817-5.892 1.409-8.641-.92-6.209-3.672-12.264-3.847-18.433-.213-7.5 5.601-11.829 12.509-11.118 4.196.432 6.025 2.822 5.852 6.843-.171 3.962-1.679 4.996-6.351 4.975Z"/>
  </g>
  <path fill="#fff" d="M382.976 177.078c-.48 0-.963-.115-1.403-.349l-16.958-8.977-16.603 8.965a3.004 3.004 0 0 1-3.163-.194 3.002 3.002 0 0 1-1.225-2.922l2.995-18.641-13.657-13.325a3 3 0 0 1 1.627-5.111l18.997-2.999 8.321-16.976a2.998 2.998 0 0 1 2.67-1.68h.023a3 3 0 0 1 2.673 1.638l8.676 17.017 18.672 3.001a3 3 0 0 1 1.619 5.11l-13.635 13.302 3.323 18.612a3 3 0 0 1-2.954 3.527Z"/>
  <path d="m364.601 117.872 9.368 18.375 20.177 3.243-14.772 14.412 3.603 20.177-18.375-9.728-18.015 9.728 3.243-20.177-14.772-14.412 20.537-3.243 9.007-18.375m0-6h-.047a5.998 5.998 0 0 0-5.34 3.359l-7.635 15.576-17.458 2.756a5.999 5.999 0 0 0-3.254 10.221l12.544 12.238-2.749 17.104a5.998 5.998 0 0 0 8.774 6.231l15.192-8.204 15.54 8.227a5.997 5.997 0 0 0 6.344-.456 5.997 5.997 0 0 0 2.37-5.902l-3.044-17.047 12.497-12.192a6 6 0 0 0-3.238-10.219l-17.168-2.759-7.984-15.66a6 6 0 0 0-5.345-3.275Z"/>
</svg>
