<svg xmlns="http://www.w3.org/2000/svg" data-name="Layer 1" viewBox="0 0 1024 1024">
  <path fill="#ffd200" d="M350.478 768h-91.845l32.609 181.425 198.614-77.094 265.326-102.988 3.459-1.343H350.478zM714.04 74.575l-198.614 77.094L250.1 254.657l-6.744 2.618h503.521l-32.837-182.7z"/>
  <path d="M243.356 257.275H142.553L43.278 768h819.2l99.275-510.725H243.356Zm446.983 392.461c-2.524 4.539-5.63 8.388-9.321 11.553-3.689 3.167-7.895 5.599-12.612 7.3-4.72 1.701-9.825 2.551-15.319 2.551-5.015 0-9.589-.819-13.716-2.461-4.13-1.642-7.547-3.955-10.25-6.941-2.705-2.986-4.596-6.613-5.676-10.883-1.083-4.268-1.112-9.03-.09-14.285 1.045-5.374 2.928-10.224 5.649-14.554 2.723-4.327 6.041-8.029 9.953-11.105 3.909-3.074 8.268-5.447 13.071-7.119 4.802-1.67 9.801-2.508 14.995-2.508 3.226 0 6.339.344 9.339 1.029 3.002.688 5.759 1.704 8.275 3.045a24.864 24.864 0 0 1 6.621 5.105c1.898 2.06 3.351 4.493 4.359 7.3l-20.466 8.06c-2.174-4.48-6.007-6.719-11.5-6.719-2.389 0-4.655.45-6.799 1.344a19.536 19.536 0 0 0-5.784 3.717c-1.711 1.582-3.144 3.433-4.303 5.553s-1.981 4.433-2.469 6.941c-.476 2.448-.532 4.733-.166 6.85.361 2.12 1.092 3.973 2.188 5.553a11.434 11.434 0 0 0 4.248 3.717c1.737.894 3.738 1.344 6.007 1.344 3.283 0 6.195-.763 8.729-2.285 2.535-1.523 4.343-3.536 5.43-6.044l.018-.09h-12.54l2.855-14.688h35.376l-.644 3.314c-1.114 5.731-2.935 10.867-5.458 15.404Zm-119.766-18.987-7 39.228h-20.06l13.126-67.529h18.718l20.125 40.213 6.741-40.213h19.972l-13.126 67.529h-18.537l-19.96-39.228Zm-82.068 13.525-4.996 25.703h-20.241l13.126-67.529h42.273l-3.273 16.839h-22.032l-1.81 9.314h19.972l-3.047 15.673h-19.972ZM367.18 661.648c-3.937 3.045-8.304 5.39-13.1 7.031a45.435 45.435 0 0 1-14.807 2.461c-5.015 0-9.589-.819-13.719-2.461-4.127-1.642-7.573-3.971-10.329-6.987-2.759-3.014-4.69-6.672-5.793-10.971-1.106-4.299-1.141-9.104-.108-14.419.998-5.134 2.884-9.852 5.661-14.151 2.774-4.299 6.136-8.001 10.084-11.105a45.806 45.806 0 0 1 13.135-7.21c4.808-1.701 9.719-2.551 14.734-2.551s9.598.85 13.745 2.551 7.59 4.108 10.332 7.21c2.739 3.105 4.661 6.806 5.767 11.105 1.103 4.299 1.153 9.045.143 14.241-1.022 5.255-2.919 10.017-5.688 14.285-2.771 4.268-6.124 7.926-10.058 10.971Zm-64.761 8.329h-24.093l-8.029-23.196h-1.432l-4.509 23.196h-20.241l13.126-67.529h25.165c3.821 0 7.322.419 10.505 1.254 3.18.838 5.835 2.151 7.966 3.942 2.128 1.791 3.635 4.105 4.516 6.941.881 2.836.927 6.284.138 10.343-.801 4.121-2.506 7.747-5.114 10.883-2.61 3.133-6.375 5.837-11.292 8.104l13.293 26.062Zm13.252-251.647h44.618l13.112-67.457h70.112L404.589 551.12h-70.112l13.525-69.582h-44.618l-13.525 69.582h-70.114l38.924-200.247h70.114l-13.112 67.457Zm218.17 251.647H513.6l13.126-67.529h20.241l-13.126 67.529ZM429.553 551.12l38.924-200.247h87.907c11.33 0 21.802 1.241 31.412 3.717 9.61 2.482 17.678 6.507 24.21 12.084 6.526 5.577 11.144 12.793 13.852 21.645 2.702 8.856 2.838 19.566.394 32.136-2.341 12.042-7.224 22.574-14.643 31.604-7.424 9.03-18.176 16.998-32.267 23.903l37.976 75.159h-83.391l-19.112-64.271h-2.655l-12.493 64.271h-70.114Zm16.885 110.528c-3.937 3.045-8.301 5.39-13.098 7.031a45.462 45.462 0 0 1-14.81 2.461c-5.015 0-9.589-.819-13.716-2.461-4.13-1.642-7.573-3.971-10.329-6.987-2.759-3.014-4.69-6.672-5.793-10.971-1.106-4.299-1.141-9.104-.108-14.419.998-5.134 2.884-9.852 5.661-14.151 2.774-4.299 6.136-8.001 10.084-11.105a45.83 45.83 0 0 1 13.132-7.21c4.811-1.701 9.722-2.551 14.737-2.551s9.596.85 13.745 2.551c4.147 1.701 7.587 4.108 10.33 7.21 2.739 3.105 4.661 6.806 5.767 11.105 1.106 4.299 1.153 9.045.143 14.241-1.022 5.255-2.917 10.017-5.688 14.285-2.771 4.268-6.124 7.926-10.058 10.971Zm310.55-313.962c16.64 0 32.397 2.747 47.267 8.233l-12.745 76.486c-11.516-13.632-24.44-20.449-38.782-20.449-4.428 0-9.152.841-14.168 2.523-5.022 1.684-9.753 4.162-14.195 7.436-4.445 3.278-8.377 7.349-11.802 12.217-3.429 4.872-5.756 10.49-6.995 16.864-1.067 5.491-.961 10.623.325 15.404 1.284 4.78 3.451 8.896 6.497 12.349 3.046 3.452 6.803 6.2 11.281 8.233 4.472 2.037 9.452 3.054 14.942 3.054 8.497 0 16.434-1.68 23.82-5.046 7.38-3.362 14.544-7.877 21.488-13.544l-16.68 74.893c-3.29 1.419-7.281 2.615-11.986 3.585a232.15 232.15 0 0 1-14.566 2.523 174.676 174.676 0 0 1-14.626 1.461c-4.744.266-8.8.399-12.16.399-14.342 0-27.157-2.615-38.447-7.835-11.293-5.221-20.655-12.39-28.088-21.511-7.436-9.117-12.569-19.827-15.398-32.136-2.833-12.304-2.851-25.628-.064-39.969 2.856-14.695 8.22-28.417 16.101-41.166 7.876-12.748 17.425-23.856 28.656-33.33 11.222-9.469 23.743-16.951 37.559-22.441 13.813-5.487 28.066-8.233 42.765-8.233Z"/>
  <path d="M527.457 439.576c3.009 0 5.964-.174 8.867-.531 2.899-.353 5.615-1.104 8.142-2.258 2.521-1.149 4.665-2.829 6.425-5.046 1.756-2.211 2.997-5.178 3.72-8.896.756-3.892.736-6.993-.052-9.296-.794-2.298-2.139-4.025-4.039-5.178-1.901-1.15-4.237-1.901-6.998-2.258-2.765-.353-5.739-.531-8.926-.531h-6.638l-6.608 33.995h6.108Zm-243.993 180.47c-1.552-.925-3.729-1.388-6.537-1.388h-2.595l-2.716 13.972h2.327c2.748 0 5.139-.478 7.176-1.435 2.036-.954 3.322-2.805 3.856-5.553.545-2.805.042-4.671-1.51-5.597Zm76.306 4.612c-1.083-1.492-2.514-2.655-4.29-3.492-1.779-.835-3.833-1.254-6.162-1.254s-4.543.419-6.647 1.254c-2.104.838-4 2.001-5.694 3.492a21.015 21.015 0 0 0-4.286 5.24 20.327 20.327 0 0 0-2.411 6.403c-.464 2.389-.488 4.583-.07 6.584.418 2.001 1.204 3.715 2.357 5.149 1.154 1.432 2.611 2.539 4.371 3.314 1.76.776 3.745 1.163 5.955 1.163 2.329 0 4.54-.403 6.638-1.21a19.357 19.357 0 0 0 5.668-3.358c1.682-1.432 3.104-3.149 4.271-5.149a20.661 20.661 0 0 0 2.426-6.494c.441-2.267.468-4.402.081-6.403-.39-1.998-1.125-3.746-2.208-5.24Zm79.26 0c-1.085-1.492-2.516-2.655-4.292-3.492-1.779-.835-3.83-1.254-6.159-1.254s-4.546.419-6.647 1.254a19.395 19.395 0 0 0-5.694 3.492 21.092 21.092 0 0 0-4.289 5.24 20.393 20.393 0 0 0-2.408 6.403c-.464 2.389-.488 4.583-.073 6.584.418 2.001 1.204 3.715 2.36 5.149 1.154 1.432 2.609 2.539 4.371 3.314 1.76.776 3.745 1.163 5.952 1.163 2.329 0 4.543-.403 6.638-1.21a19.316 19.316 0 0 0 5.67-3.358c1.679-1.432 3.104-3.149 4.268-5.149a20.665 20.665 0 0 0 2.428-6.494c.441-2.267.465-4.402.079-6.403-.387-1.998-1.123-3.746-2.205-5.24Z"/>
  <path fill="#fff" d="M258.669 350.873 219.745 551.12h70.114l13.525-69.582h44.618l-13.525 69.582h70.112l38.924-200.247h-70.112l-13.112 67.457h-44.618l13.112-67.457h-70.114zM512.16 486.849h2.655l19.112 64.271h83.391l-37.976-75.159c14.092-6.905 24.843-14.873 32.267-23.903 7.419-9.03 12.302-19.561 14.643-31.604 2.443-12.57 2.307-23.28-.394-32.136-2.708-8.851-7.326-16.067-13.852-21.645-6.531-5.577-14.6-9.602-24.21-12.084-9.611-2.476-20.082-3.717-31.412-3.717h-87.907l-38.924 200.247h70.114l12.493-64.271Zm22.435-81.268c3.187 0 6.162.178 8.926.531 2.761.357 5.097 1.108 6.998 2.258 1.901 1.153 3.245 2.88 4.039 5.178.788 2.303.808 5.404.052 9.296-.723 3.719-1.964 6.685-3.72 8.896-1.76 2.217-3.904 3.897-6.425 5.046-2.528 1.154-5.243 1.905-8.142 2.258a72.582 72.582 0 0 1-8.867.531h-6.108l6.608-33.995h6.638Zm142.069-27.221c-11.231 9.474-20.78 20.582-28.656 33.33-7.881 12.748-13.244 26.471-16.101 41.166-2.788 14.341-2.769 27.665.064 39.969 2.829 12.309 7.962 23.019 15.398 32.136 7.432 9.121 16.795 16.291 28.088 21.511 11.29 5.221 24.105 7.835 38.447 7.835 3.361 0 7.417-.133 12.16-.399 4.741-.265 9.618-.755 14.626-1.461a232.15 232.15 0 0 0 14.566-2.523c4.705-.971 8.696-2.166 11.986-3.585l16.68-74.893c-6.944 5.668-14.108 10.182-21.488 13.544-7.386 3.366-15.323 5.046-23.82 5.046-5.491 0-10.471-1.017-14.942-3.054-4.478-2.033-8.235-4.781-11.281-8.233-3.046-3.452-5.214-7.569-6.497-12.349-1.286-4.781-1.392-9.914-.325-15.404 1.239-6.373 3.567-11.992 6.995-16.864 3.425-4.868 7.357-8.939 11.802-12.217 4.442-3.274 9.173-5.752 14.195-7.436 5.016-1.682 9.74-2.523 14.168-2.523 14.342 0 27.266 6.817 38.782 20.449l12.745-76.486c-14.87-5.487-30.627-8.233-47.267-8.233-14.699 0-28.951 2.747-42.765 8.233-13.816 5.489-26.337 12.972-37.559 22.441ZM289.126 643.914c4.918-2.267 8.683-4.971 11.292-8.104 2.608-3.136 4.313-6.763 5.114-10.883.789-4.059.743-7.507-.138-10.343-.881-2.836-2.388-5.149-4.516-6.941-2.131-1.791-4.786-3.105-7.966-3.942-3.183-.835-6.684-1.254-10.505-1.254h-25.165l-13.126 67.529h20.241l4.509-23.196h1.432l8.029 23.196h24.093l-13.293-26.062Zm-8.008-12.718c-2.037.956-4.428 1.435-7.176 1.435h-2.327l2.716-13.972h2.595c2.807 0 4.984.463 6.537 1.388 1.552.925 2.055 2.792 1.51 5.597-.534 2.748-1.819 4.599-3.856 5.553Zm101.808 5.195c1.01-5.196.961-9.942-.143-14.241-1.106-4.299-3.028-8.001-5.767-11.105-2.742-3.102-6.185-5.509-10.332-7.21s-8.728-2.551-13.745-2.551-9.926.85-14.734 2.551a45.806 45.806 0 0 0-13.135 7.21c-3.948 3.105-7.31 6.806-10.084 11.105-2.777 4.299-4.663 9.017-5.661 14.151-1.033 5.315-.998 10.12.108 14.419 1.103 4.299 3.034 7.957 5.793 10.971 2.756 3.017 6.202 5.346 10.329 6.987 4.13 1.641 8.704 2.461 13.719 2.461 5.074 0 10.011-.819 14.807-2.461 4.796-1.642 9.163-3.986 13.1-7.031 3.934-3.045 7.287-6.703 10.058-10.971 2.768-4.268 4.666-9.03 5.688-14.285Zm-21.03-.09a20.637 20.637 0 0 1-2.426 6.494c-1.167 2.001-2.589 3.717-4.271 5.149a19.357 19.357 0 0 1-5.668 3.358c-2.098.807-4.309 1.21-6.638 1.21-2.21 0-4.195-.388-5.955-1.163-1.76-.776-3.217-1.882-4.371-3.314-1.153-1.435-1.939-3.149-2.357-5.149-.418-2.001-.394-4.196.07-6.584a20.302 20.302 0 0 1 2.411-6.403 21.015 21.015 0 0 1 4.286-5.24 19.391 19.391 0 0 1 5.694-3.492c2.104-.835 4.32-1.254 6.647-1.254s4.383.419 6.162 1.254c1.776.838 3.207 2.001 4.29 3.492 1.082 1.494 1.818 3.242 2.208 5.24.387 2.001.359 4.136-.081 6.403Zm94.6 14.375c2.771-4.268 4.666-9.03 5.688-14.285 1.01-5.196.963-9.942-.143-14.241-1.106-4.299-3.028-8.001-5.767-11.105-2.742-3.102-6.183-5.509-10.33-7.21-4.149-1.701-8.73-2.551-13.745-2.551s-9.926.85-14.737 2.551a45.83 45.83 0 0 0-13.132 7.21c-3.948 3.105-7.31 6.806-10.084 11.105-2.777 4.299-4.663 9.017-5.661 14.151-1.033 5.315-.998 10.12.108 14.419 1.103 4.299 3.034 7.957 5.793 10.971 2.756 3.017 6.199 5.346 10.329 6.987 4.127 1.641 8.701 2.461 13.716 2.461a45.44 45.44 0 0 0 14.81-2.461c4.796-1.642 9.161-3.986 13.098-7.031 3.934-3.045 7.287-6.703 10.058-10.971Zm-15.34-14.375a20.665 20.665 0 0 1-2.428 6.494c-1.164 2.001-2.589 3.717-4.268 5.149a19.341 19.341 0 0 1-5.67 3.358c-2.096.807-4.309 1.21-6.638 1.21-2.208 0-4.193-.388-5.952-1.163-1.762-.776-3.217-1.882-4.371-3.314-1.156-1.435-1.942-3.149-2.36-5.149-.415-2.001-.392-4.196.073-6.584a20.369 20.369 0 0 1 2.408-6.403 21.092 21.092 0 0 1 4.289-5.24 19.353 19.353 0 0 1 5.694-3.492c2.101-.835 4.318-1.254 6.647-1.254s4.38.419 6.159 1.254c1.776.838 3.207 2.001 4.292 3.492 1.082 1.494 1.818 3.242 2.205 5.24.387 2.001.362 4.136-.079 6.403Zm70.368-7.701h-19.972l1.811-9.314h22.032l3.273-16.839h-42.273l-13.127 67.529h20.241l4.997-25.703h19.972l3.046-15.673zm2.075 41.376h20.241l13.127-67.529h-20.241l-13.127 67.529zm95.471 0 13.127-67.529h-19.972l-6.742 40.213-20.125-40.213H556.64l-13.126 67.529h20.06l6.999-39.228 19.96 39.228h18.537zm87.371-38.959h-35.376l-2.855 14.688h12.54l-.018.09c-1.087 2.508-2.895 4.521-5.43 6.044-2.535 1.523-5.446 2.285-8.729 2.285-2.27 0-4.271-.45-6.007-1.344a11.435 11.435 0 0 1-4.248-3.717c-1.097-1.579-1.827-3.433-2.188-5.553-.367-2.117-.31-4.402.166-6.85.487-2.508 1.309-4.821 2.469-6.941s2.592-3.971 4.303-5.553a19.536 19.536 0 0 1 5.784-3.717 17.49 17.49 0 0 1 6.799-1.344c5.493 0 9.326 2.239 11.5 6.719l20.466-8.06c-1.008-2.807-2.461-5.24-4.359-7.3a24.864 24.864 0 0 0-6.621-5.105c-2.516-1.342-5.273-2.358-8.275-3.045-3-.685-6.113-1.029-9.339-1.029-5.193 0-10.193.838-14.995 2.508-4.802 1.673-9.162 4.046-13.071 7.119-3.912 3.076-7.229 6.778-9.953 11.105-2.721 4.33-4.605 9.18-5.649 14.554-1.022 5.255-.993 10.017.09 14.285 1.08 4.271 2.971 7.897 5.676 10.883 2.703 2.986 6.12 5.299 10.25 6.941 4.127 1.641 8.701 2.461 13.716 2.461 5.493 0 10.599-.85 15.319-2.551 4.717-1.701 8.923-4.133 12.612-7.3 3.691-3.164 6.797-7.013 9.321-11.553 2.523-4.537 4.344-9.673 5.458-15.404l.644-3.314Z"/>
</svg>
