<svg xmlns="http://www.w3.org/2000/svg" data-name="Layer 1" viewBox="0 0 56 26.863">
  <path d="M5.222 0 0 26.863h50.778L56 0H5.222z"/>
  <path fill="#fff" d="m14.651 6.683-.884 4.547h3.007l.884-4.547h4.726L19.76 20.18h-4.726l.912-4.69h-3.007l-.912 4.69H7.301L9.925 6.683h4.726Zm16.341 0c.764 0 1.469.084 2.117.251.648.167 1.192.439 1.632.814.44.376.751.862.934 1.459.182.597.191 1.319.027 2.166a4.712 4.712 0 0 1-.987 2.13c-.5.609-1.225 1.146-2.175 1.611l2.56 5.066h-5.621l-1.288-4.332h-.179l-.842 4.332h-4.726l2.624-13.497h5.925Zm-2.361 5.979h.412c.203 0 .402-.012.598-.036.195-.024.378-.074.549-.152.17-.077.314-.191.433-.34a1.38 1.38 0 0 0 .251-.6c.051-.262.05-.471-.003-.627a.637.637 0 0 0-.272-.349 1.194 1.194 0 0 0-.472-.152 4.719 4.719 0 0 0-.602-.036h-.447l-.445 2.291Zm8.451.895a8.24 8.24 0 0 1 1.085-2.775 9.376 9.376 0 0 1 1.931-2.247 9.113 9.113 0 0 1 2.532-1.513 7.738 7.738 0 0 1 2.882-.555c1.122 0 2.184.185 3.186.555l-.859 5.155c-.776-.919-1.647-1.378-2.614-1.378-.298 0-.617.057-.955.17a3.508 3.508 0 0 0-1.753 1.324 2.904 2.904 0 0 0-.471 1.137c-.072.37-.065.716.022 1.038.087.322.233.6.438.832s.459.418.76.555c.301.137.637.206 1.007.206.573 0 1.108-.113 1.606-.34.497-.227.98-.531 1.448-.913l-1.124 5.048a4.223 4.223 0 0 1-.808.242c-.317.066-.644.122-.982.17-.338.048-.666.081-.986.098-.32.018-.593.027-.82.027-.967 0-1.83-.176-2.591-.528a5.234 5.234 0 0 1-1.893-1.45 5.23 5.23 0 0 1-1.038-2.166c-.191-.829-.192-1.727-.004-2.694Z"/>
</svg>
