<svg xmlns="http://www.w3.org/2000/svg" data-name="Layer 1" viewBox="0 0 322.738 189">
  <path d="M286 189H0L36.738 0h286L286 189z"/>
  <path fill="#fff" d="m95.421 36.616-4.953 25.483h16.855l4.953-25.483h26.487l-14.705 75.648H97.571l5.11-26.286H85.826l-5.11 26.286H54.229l14.705-75.648h26.487Zm85.982 0c4.28 0 8.236.469 11.867 1.404 3.63.938 6.678 2.458 9.146 4.565 2.466 2.106 4.21 4.833 5.233 8.177 1.021 3.346 1.072 7.392.149 12.14-.884 4.55-2.729 8.528-5.531 11.939-2.805 3.411-6.867 6.421-12.19 9.029l14.346 28.394H172.92l-7.219-24.28h-1.003l-4.72 24.28h-26.487l14.705-75.648h33.209Zm-13.236 33.51h2.308c1.137 0 2.253-.065 3.35-.2a10.373 10.373 0 0 0 3.076-.854 6.506 6.506 0 0 0 2.427-1.906c.664-.835 1.133-1.956 1.406-3.36.286-1.471.278-2.642-.02-3.512-.3-.868-.808-1.521-1.526-1.956-.718-.435-1.6-.719-2.643-.854a26.748 26.748 0 0 0-3.372-.2h-2.508l-2.496 12.842Zm41.766 5.016a46.027 46.027 0 0 1 6.083-15.551c2.975-4.816 6.583-9.013 10.825-12.592a51.168 51.168 0 0 1 14.189-8.478c5.219-2.072 10.603-3.11 16.155-3.11 6.287 0 12.239 1.038 17.856 3.11l-4.814 28.895c-4.351-5.149-9.233-7.725-14.651-7.725-1.673 0-3.457.317-5.352.953a19.382 19.382 0 0 0-5.362 2.809c-1.68 1.238-3.165 2.776-4.459 4.615-1.295 1.841-2.175 3.963-2.643 6.371-.403 2.074-.363 4.013.123 5.819.484 1.806 1.303 3.36 2.454 4.665 1.151 1.304 2.571 2.342 4.262 3.11 1.689.77 3.571 1.153 5.645 1.153 3.21 0 6.209-.635 8.999-1.906 2.788-1.27 5.494-2.976 8.118-5.116l-6.302 28.292c-1.242.536-2.751.988-4.527 1.354a86.682 86.682 0 0 1-5.503.953 65.834 65.834 0 0 1-5.525.552 83.472 83.472 0 0 1-4.594.151c-5.417 0-10.259-.988-14.524-2.96-4.266-1.973-7.803-4.681-10.61-8.127-2.809-3.444-4.749-7.49-5.817-12.14-1.07-4.648-1.078-9.682-.024-15.1ZM58.08 129.494c1.361 0 2.59.142 3.688.424 1.096.283 2.005.729 2.725 1.335.719.608 1.227 1.388 1.524 2.341.296.953.315 2.1.054 3.44-.289 1.487-.925 2.791-1.907 3.911s-2.351 2.047-4.106 2.779l4.885 9.456h-6.974l-3.492-8.701h-.628l-1.691 8.701h-5.812l4.604-23.687h7.131Zm-3.395 10.681h.942c1.214 0 2.231-.22 3.05-.659.818-.439 1.333-1.204 1.545-2.293.208-1.068.008-1.817-.6-2.247-.608-.429-1.53-.644-2.765-.644H55.82l-1.136 5.843Zm22.116 1.13a13.719 13.719 0 0 1 1.952-4.869 15.9 15.9 0 0 1 3.499-3.863 16.573 16.573 0 0 1 4.566-2.561c1.67-.617 3.374-.927 5.112-.927s3.317.31 4.736.927c1.419.618 2.599 1.472 3.539 2.561s1.6 2.382 1.979 3.879c.379 1.498.396 3.137.05 4.917a14.018 14.018 0 0 1-1.967 4.947 15.575 15.575 0 0 1-3.5 3.864 16.137 16.137 0 0 1-4.557 2.514 15.116 15.116 0 0 1-5.137.895c-1.696 0-3.258-.293-4.683-.879-1.426-.586-2.609-1.419-3.552-2.498-.942-1.078-1.607-2.371-1.994-3.88-.388-1.508-.402-3.183-.044-5.026Zm5.994.032c-.195 1.005-.198 1.932-.006 2.78.191.848.536 1.576 1.037 2.183a5.073 5.073 0 0 0 1.861 1.414c.741.335 1.561.503 2.462.503.963 0 1.892-.173 2.787-.519a8.579 8.579 0 0 0 4.281-3.598c.508-.837.858-1.748 1.05-2.732s.196-1.896.013-2.733c-.183-.837-.512-1.565-.989-2.184a4.962 4.962 0 0 0-1.852-1.46c-.758-.356-1.619-.534-2.582-.534a7.41 7.41 0 0 0-2.758.534 8.45 8.45 0 0 0-2.42 1.46 9.081 9.081 0 0 0-1.838 2.184 8.175 8.175 0 0 0-1.044 2.702Zm31.043-.032a13.719 13.719 0 0 1 1.952-4.869 15.9 15.9 0 0 1 3.499-3.863 16.573 16.573 0 0 1 4.566-2.561c1.67-.617 3.374-.927 5.112-.927s3.317.31 4.736.927c1.419.618 2.599 1.472 3.539 2.561s1.6 2.382 1.979 3.879c.379 1.498.396 3.137.05 4.917a14.018 14.018 0 0 1-1.967 4.947 15.575 15.575 0 0 1-3.5 3.864 16.137 16.137 0 0 1-4.557 2.514 15.116 15.116 0 0 1-5.137.895c-1.696 0-3.258-.293-4.683-.879-1.426-.586-2.609-1.419-3.552-2.498-.942-1.078-1.607-2.371-1.994-3.88-.388-1.508-.402-3.183-.044-5.026Zm5.994.032c-.195 1.005-.198 1.932-.006 2.78.191.848.536 1.576 1.037 2.183a5.073 5.073 0 0 0 1.861 1.414c.741.335 1.561.503 2.462.503.963 0 1.892-.173 2.787-.519a8.579 8.579 0 0 0 4.281-3.598c.508-.837.858-1.748 1.05-2.732s.196-1.896.013-2.733c-.183-.837-.512-1.565-.989-2.184a4.962 4.962 0 0 0-1.852-1.46c-.758-.356-1.619-.534-2.582-.534a7.41 7.41 0 0 0-2.758.534 8.45 8.45 0 0 0-2.42 1.46 9.081 9.081 0 0 0-1.838 2.184 8.175 8.175 0 0 0-1.044 2.702Zm47.885-11.843-.971 4.995h-7.917l-.806 4.146h7.351l-.916 4.712h-7.351l-1.911 9.833h-5.812l4.604-23.687h13.728Zm7.867 23.686 4.604-23.687H186l-4.604 23.687h-5.812Zm18.974 0 4.604-23.687h4.775l8.981 15.048 2.705-15.048h5.749l-4.604 23.687h-4.744l-8.943-14.922-2.775 14.922h-5.749Zm36.871-11.749c.358-1.843 1.014-3.523 1.969-5.042a15.55 15.55 0 0 1 3.478-3.911 15.724 15.724 0 0 1 4.544-2.529 15.209 15.209 0 0 1 5.169-.895c2.136 0 4.04.439 5.712 1.319 1.672.879 2.955 2.251 3.849 4.115l-5.671 2.67c-1.008-1.927-2.633-2.89-4.873-2.89a7.493 7.493 0 0 0-2.855.55 8.424 8.424 0 0 0-2.429 1.508 9.243 9.243 0 0 0-2.9 5.135c-.196 1.006-.2 1.943-.012 2.812.187.87.522 1.624 1.005 2.263.483.639 1.087 1.142 1.811 1.508s1.537.55 2.438.55c.733 0 1.424-.104 2.072-.314a7.015 7.015 0 0 0 1.786-.864 6.442 6.442 0 0 0 1.413-1.288 5.153 5.153 0 0 0 .895-1.617l.006-.031h-4.932l.867-4.461h11.435l-.195 1.005c-.375 1.927-.99 3.665-1.846 5.215-.856 1.55-1.908 2.869-3.157 3.958a13.562 13.562 0 0 1-4.243 2.514c-1.58.586-3.291.879-5.134.879-1.739 0-3.314-.298-4.727-.895-1.413-.598-2.581-1.43-3.504-2.498s-1.569-2.351-1.938-3.848c-.369-1.497-.38-3.137-.033-4.917Z"/>
</svg>
