<svg xmlns="http://www.w3.org/2000/svg" data-name="Layer 1" viewBox="0 0 1024 1024">
  <path fill="#ffd200" d="M350.478 768h-91.845l32.609 181.425 198.614-77.094 265.326-102.988 3.459-1.343H350.478zM714.04 74.575l-198.614 77.094L250.1 254.657l-6.744 2.618h503.521l-32.837-182.7z"/>
  <path d="M243.356 257.275H142.553L43.278 768h819.2l99.275-510.725H243.356Zm546.771 185.482c-11.505-13.617-24.417-20.427-38.745-20.427-4.424 0-9.142.839-14.154 2.521-5.015 1.681-9.742 4.158-14.179 7.427-4.442 3.275-8.37 7.342-11.791 12.205-3.425 4.868-5.752 10.48-6.99 16.848-1.066 5.485-.96 10.611.326 15.389 1.281 4.775 3.447 8.886 6.49 12.336 3.045 3.448 6.798 6.193 11.27 8.225 4.467 2.035 9.443 3.05 14.928 3.05 8.49 0 16.419-1.679 23.797-5.041 7.372-3.357 14.53-7.869 21.466-13.53l-16.664 74.816c-3.285 1.418-7.274 2.613-11.973 3.582-4.7.976-9.551 1.813-14.551 2.52-5.004.705-9.875 1.196-14.611 1.459-4.74.266-8.791.4-12.15.4-14.326 0-27.13-2.613-38.409-7.827-11.281-5.217-20.635-12.378-28.058-21.491-7.428-9.108-12.557-19.807-15.383-32.103-2.83-12.292-2.85-25.602-.065-39.93 2.853-14.679 8.212-28.389 16.086-41.123 7.868-12.737 17.408-23.834 28.626-33.298 11.212-9.46 23.72-16.933 37.522-22.418 13.801-5.48 28.039-8.225 42.722-8.225 16.625 0 32.366 2.745 47.22 8.225l-12.731 76.41ZM251.856 616.925c-.764 3.933-2.446 7.381-5.044 10.343s-6.217 5.413-10.857 7.35l12.917 25.006h-18.443l-9.234-23.01h-1.662l-4.473 23.01h-15.368l12.176-62.638h18.857c3.6 0 6.85.374 9.752 1.121 2.899.749 5.302 1.927 7.206 3.53 1.902 1.609 3.246 3.67 4.03 6.19.783 2.521.832 5.552.143 9.098Zm-32.923-55.571 38.885-200.048h70.043l-13.099 67.389h44.573l13.099-67.389h70.043l-38.885 200.048h-70.043l13.512-69.512h-44.573l-13.512 69.512h-70.043Zm391.472-98.963c-7.417 9.021-18.159 16.98-32.235 23.877l37.937 75.085h-83.309l-19.091-64.208h-2.654l-12.481 64.208h-70.043l38.885-200.048h87.819c11.318 0 21.78 1.24 31.381 3.714 9.6 2.479 17.661 6.5 24.185 12.073 6.52 5.57 11.133 12.781 13.838 21.623 2.699 8.847 2.834 19.547.393 32.103-2.339 12.032-7.215 22.553-14.627 31.573ZM285.621 651.773c-2.492-2.851-4.251-6.27-5.274-10.26-1.026-3.987-1.064-8.416-.116-13.292.904-4.651 2.623-8.943 5.161-12.876a41.971 41.971 0 0 1 9.254-10.216 43.777 43.777 0 0 1 12.075-6.771c4.416-1.632 8.921-2.451 13.519-2.451s8.771.819 12.525 2.451c3.752 1.635 6.872 3.892 9.358 6.771 2.485 2.879 4.23 6.299 5.233 10.258 1.003 3.961 1.046 8.295.131 13.003-.926 4.762-2.659 9.124-5.202 13.083-2.543 3.961-5.627 7.368-9.255 10.219a42.629 42.629 0 0 1-12.051 6.647 39.993 39.993 0 0 1-13.585 2.366c-4.486 0-8.614-.775-12.383-2.324-3.77-1.549-6.901-3.752-9.392-6.606Zm92.553-23.552c.904-4.651 2.623-8.943 5.161-12.876a41.971 41.971 0 0 1 9.254-10.216 43.777 43.777 0 0 1 12.075-6.771c4.416-1.632 8.921-2.451 13.519-2.451s8.771.819 12.525 2.451c3.752 1.635 6.872 3.892 9.358 6.771 2.485 2.879 4.23 6.299 5.233 10.258 1.003 3.961 1.046 8.295.131 13.003-.926 4.762-2.659 9.124-5.202 13.083-2.543 3.961-5.627 7.368-9.255 10.219a42.629 42.629 0 0 1-12.051 6.647 39.993 39.993 0 0 1-13.585 2.366c-4.486 0-8.614-.775-12.383-2.324-3.77-1.549-6.9-3.752-9.392-6.606-2.492-2.851-4.251-6.27-5.274-10.26-1.026-3.987-1.064-8.416-.116-13.292Zm114.423 5.4-5.054 26.003h-15.368l12.176-62.638h36.303l-2.568 13.209h-20.935l-2.131 10.965h19.439l-2.422 12.46h-19.439Zm61.035-36.635H569l-12.175 62.638h-15.368l12.175-62.638Zm60.541 23.178-7.338 39.46h-15.202l12.176-62.638h12.627l23.75 39.793 7.153-39.793h15.203l-12.176 62.638h-12.544l-23.648-39.46Zm101.944 40.539c-4.598 0-8.764-.788-12.5-2.366-3.736-1.58-6.825-3.781-9.267-6.606-2.441-2.825-4.149-6.216-5.125-10.175-.975-3.959-1.004-8.295-.089-13.003.947-4.873 2.683-9.318 5.208-13.333 2.526-4.016 5.59-7.463 9.197-10.343a41.646 41.646 0 0 1 12.016-6.689 40.23 40.23 0 0 1 13.669-2.366c5.649 0 10.684 1.162 15.106 3.489 4.421 2.324 7.814 5.953 10.18 10.883l-14.996 7.06c-2.665-5.095-6.962-7.641-12.887-7.641-2.659 0-5.175.485-7.551 1.454a22.293 22.293 0 0 0-6.424 3.987c-1.907 1.689-3.531 3.695-4.867 6.022a24.36 24.36 0 0 0-2.799 7.559c-.517 2.66-.529 5.139-.033 7.435.494 2.301 1.38 4.295 2.659 5.984a13.625 13.625 0 0 0 4.79 3.987c1.916.968 4.065 1.454 6.446 1.454 1.938 0 3.765-.276 5.479-.832a18.519 18.519 0 0 0 4.722-2.285 17.014 17.014 0 0 0 3.737-3.406 13.702 13.702 0 0 0 2.368-4.277l.016-.083h-13.043l2.293-11.797h30.239l-.517 2.657c-.99 5.095-2.619 9.692-4.882 13.79-2.265 4.098-5.046 7.587-8.349 10.467-3.302 2.882-7.042 5.098-11.219 6.647-4.179 1.549-8.704 2.324-13.577 2.324Z"/>
  <path d="M553.411 423.92c-.792-2.296-2.137-4.021-4.035-5.173-1.898-1.149-4.231-1.901-6.99-2.257-2.763-.351-5.733-.529-8.918-.529h-6.633l-6.601 33.959h6.102c3.006 0 5.958-.173 8.859-.529 2.895-.354 5.608-1.103 8.133-2.257 2.519-1.147 4.66-2.825 6.419-5.041 1.755-2.208 2.995-5.173 3.717-8.886.756-3.889.735-6.986-.053-9.286ZM236.39 617.424c.549-2.825.021-4.806-1.586-5.942-1.607-1.134-4.045-1.702-7.312-1.702h-2.741l-3.003 15.451h2.492c3.211 0 5.9-.581 8.066-1.743 2.163-1.162 3.526-3.184 4.085-6.064Zm92.539 18.191c1.344-2.213 2.27-4.623 2.776-7.226s.517-5.013.034-7.228c-.483-2.213-1.354-4.14-2.616-5.774-1.261-1.632-2.894-2.921-4.899-3.861-2.005-.943-4.281-1.413-6.828-1.413-2.492 0-4.923.47-7.294 1.413a22.382 22.382 0 0 0-6.4 3.861 24.07 24.07 0 0 0-4.861 5.774 21.599 21.599 0 0 0-2.76 7.146c-.517 2.657-.523 5.108-.017 7.352.506 2.242 1.418 4.168 2.741 5.772 1.319 1.609 2.961 2.854 4.922 3.739 1.958.886 4.129 1.33 6.511 1.33a20.28 20.28 0 0 0 7.37-1.371 22.638 22.638 0 0 0 6.425-3.781c1.919-1.606 3.55-3.517 4.894-5.733Zm98.138-20.229c-1.261-1.632-2.894-2.921-4.899-3.861-2.005-.943-4.281-1.413-6.828-1.413-2.492 0-4.923.47-7.294 1.413a22.382 22.382 0 0 0-6.4 3.861 24.07 24.07 0 0 0-4.861 5.774 21.599 21.599 0 0 0-2.76 7.146c-.517 2.657-.523 5.108-.017 7.352.506 2.242 1.418 4.168 2.741 5.772 1.319 1.609 2.961 2.854 4.922 3.739 1.958.886 4.129 1.33 6.511 1.33a20.28 20.28 0 0 0 7.37-1.371 22.638 22.638 0 0 0 6.425-3.781c1.919-1.606 3.55-3.517 4.894-5.733 1.344-2.213 2.27-4.623 2.776-7.226s.517-5.013.034-7.228c-.483-2.213-1.354-4.14-2.616-5.774Z"/>
  <path fill="#fff" d="M302.488 491.842h44.573l-13.512 69.512h70.043l38.886-200.048h-70.043l-13.099 67.389h-44.574l13.1-67.389h-70.043l-38.886 200.048h70.043l13.512-69.512zm322.152-93.126c-2.705-8.842-7.318-16.053-13.838-21.623-6.525-5.573-14.585-9.594-24.185-12.073-9.601-2.474-20.063-3.714-31.381-3.714h-87.819l-38.885 200.048h70.043l12.481-64.208h2.654l19.091 64.208h83.309l-37.937-75.085c14.076-6.898 24.818-14.857 32.235-23.877 7.412-9.021 12.288-19.541 14.627-31.573 2.441-12.556 2.306-23.255-.393-32.103Zm-74.893 43.378c-1.758 2.216-3.9 3.894-6.419 5.041-2.525 1.154-5.238 1.903-8.133 2.257a72.664 72.664 0 0 1-8.859.529h-6.102l6.601-33.959h6.633c3.184 0 6.154.178 8.918.529 2.759.356 5.092 1.108 6.99 2.257 1.899 1.152 3.243 2.877 4.035 5.173.788 2.301.809 5.397.053 9.286-.722 3.714-1.962 6.678-3.717 8.886Zm205.891-83.972c-14.683 0-28.921 2.745-42.722 8.225-13.802 5.485-26.31 12.959-37.522 22.418-11.218 9.465-20.758 20.562-28.626 33.298-7.874 12.734-13.232 26.444-16.086 41.123-2.785 14.328-2.765 27.638.065 39.93 2.825 12.295 7.955 22.994 15.383 32.103 7.423 9.114 16.777 16.275 28.058 21.491 11.279 5.214 24.082 7.827 38.409 7.827 3.359 0 7.409-.134 12.15-.4 4.736-.263 9.607-.754 14.611-1.459 5-.708 9.851-1.544 14.551-2.52 4.699-.968 8.687-2.164 11.973-3.582l16.664-74.816c-6.937 5.661-14.094 10.172-21.466 13.53-7.378 3.362-15.307 5.041-23.797 5.041-5.485 0-10.461-1.015-14.928-3.05-4.472-2.032-8.225-4.778-11.27-8.225-3.043-3.45-5.208-7.561-6.49-12.336-1.286-4.778-1.392-9.904-.326-15.389 1.238-6.368 3.564-11.98 6.99-16.848 3.421-4.863 7.349-8.93 11.791-12.205 4.437-3.269 9.164-5.746 14.179-7.427 5.011-1.681 9.73-2.521 14.154-2.521 14.328 0 27.24 6.81 38.745 20.427l12.731-76.41c-14.854-5.48-30.595-8.225-47.22-8.225ZM247.683 601.637c-1.904-1.604-4.307-2.781-7.206-3.53-2.902-.746-6.152-1.121-9.752-1.121h-18.857l-12.176 62.638h15.368l4.473-23.01h1.662l9.234 23.01h18.443l-12.917-25.006c4.64-1.937 8.259-4.388 10.857-7.35s4.279-6.41 5.044-10.343c.689-3.546.641-6.578-.143-9.098-.785-2.52-2.128-4.581-4.03-6.19Zm-25.937 23.593 3.003-15.451h2.741c3.267 0 5.705.568 7.312 1.702 1.608 1.136 2.135 3.117 1.586 5.942-.56 2.879-1.922 4.902-4.085 6.064-2.165 1.162-4.854 1.743-8.066 1.743h-2.492Zm73.268 33.149c3.769 1.549 7.897 2.324 12.383 2.324 4.652 0 9.179-.788 13.585-2.366a42.654 42.654 0 0 0 12.051-6.647c3.627-2.851 6.712-6.257 9.255-10.219 2.542-3.959 4.276-8.321 5.202-13.083.915-4.708.872-9.041-.131-13.003-1.003-3.959-2.748-7.378-5.233-10.258-2.486-2.879-5.606-5.136-9.358-6.771-3.754-1.632-7.928-2.451-12.525-2.451s-9.104.819-13.519 2.451a43.792 43.792 0 0 0-12.075 6.771 41.97 41.97 0 0 0-9.254 10.216c-2.539 3.933-4.257 8.225-5.161 12.876-.948 4.876-.91 9.305.116 13.292 1.023 3.99 2.782 7.409 5.274 10.26 2.491 2.854 5.622 5.056 9.392 6.606Zm29.021-17.031a22.675 22.675 0 0 1-6.425 3.781 20.276 20.276 0 0 1-7.37 1.371c-2.382 0-4.553-.444-6.511-1.33-1.961-.886-3.603-2.13-4.922-3.739-1.323-1.604-2.236-3.53-2.741-5.772-.506-2.244-.5-4.695.017-7.352a21.599 21.599 0 0 1 2.76-7.146 24.028 24.028 0 0 1 4.861-5.774 22.355 22.355 0 0 1 6.4-3.861 19.57 19.57 0 0 1 7.294-1.413c2.548 0 4.823.47 6.828 1.413 2.005.94 3.638 2.229 4.899 3.861 1.261 1.635 2.133 3.561 2.616 5.774.484 2.216.472 4.625-.034 7.228s-1.431 5.013-2.776 7.226c-1.344 2.216-2.975 4.127-4.894 5.733Zm59.53 10.425c2.491 2.854 5.622 5.056 9.392 6.606 3.769 1.549 7.897 2.324 12.383 2.324 4.652 0 9.179-.788 13.585-2.366a42.654 42.654 0 0 0 12.051-6.647c3.627-2.851 6.712-6.257 9.255-10.219 2.542-3.959 4.276-8.321 5.202-13.083.915-4.708.872-9.041-.131-13.003-1.003-3.959-2.748-7.378-5.233-10.258-2.486-2.879-5.606-5.136-9.358-6.771-3.754-1.632-7.928-2.451-12.525-2.451s-9.104.819-13.519 2.451a43.792 43.792 0 0 0-12.075 6.771 41.97 41.97 0 0 0-9.254 10.216c-2.539 3.933-4.257 8.225-5.161 12.876-.948 4.876-.91 9.305.116 13.292 1.023 3.99 2.782 7.409 5.274 10.26Zm46.083-23.384a21.811 21.811 0 0 1-2.776 7.226c-1.344 2.216-2.975 4.127-4.894 5.733a22.675 22.675 0 0 1-6.425 3.781 20.276 20.276 0 0 1-7.37 1.371c-2.382 0-4.553-.444-6.511-1.33-1.961-.886-3.603-2.13-4.922-3.739-1.323-1.604-2.236-3.53-2.741-5.772-.506-2.244-.5-4.695.017-7.352a21.599 21.599 0 0 1 2.76-7.146 24.028 24.028 0 0 1 4.861-5.774 22.355 22.355 0 0 1 6.4-3.861 19.57 19.57 0 0 1 7.294-1.413c2.548 0 4.823.47 6.828 1.413 2.005.94 3.638 2.229 4.899 3.861 1.261 1.635 2.133 3.561 2.616 5.774.484 2.216.472 4.625-.034 7.228Zm84.811-7.229H495.02l2.131-10.965h20.935l2.568-13.209h-36.303l-12.176 62.638h15.368l5.055-26.003h19.439l2.422-12.461zm42.367 38.464 12.175-62.638h-15.368l-12.176 62.638h15.369zm93.54 0 12.176-62.638h-15.203l-7.153 39.793-23.75-39.793h-12.627l-12.176 62.638h15.202l7.338-39.46 23.649 39.46h12.544zm90.548-7.892c3.302-2.879 6.084-6.368 8.349-10.467 2.263-4.098 3.892-8.695 4.882-13.79l.517-2.657h-30.239l-2.293 11.797h13.043l-.016.083a13.713 13.713 0 0 1-2.368 4.277 17.014 17.014 0 0 1-3.737 3.406 18.486 18.486 0 0 1-4.722 2.285c-1.714.555-3.541.832-5.479.832-2.381 0-4.53-.485-6.446-1.454a13.625 13.625 0 0 1-4.79-3.987c-1.279-1.689-2.165-3.683-2.659-5.984-.496-2.296-.484-4.775.033-7.435a24.36 24.36 0 0 1 2.799-7.559c1.337-2.327 2.96-4.333 4.867-6.022a22.293 22.293 0 0 1 6.424-3.987c2.376-.968 4.892-1.454 7.551-1.454 5.925 0 10.222 2.546 12.887 7.641l14.996-7.06c-2.365-4.93-5.758-8.558-10.18-10.883-4.422-2.327-9.457-3.489-15.106-3.489a40.23 40.23 0 0 0-13.669 2.366 41.6 41.6 0 0 0-12.016 6.689c-3.607 2.879-6.671 6.327-9.197 10.343-2.525 4.016-4.261 8.46-5.208 13.333-.915 4.708-.886 9.044.089 13.003.976 3.959 2.684 7.35 5.125 10.175 2.441 2.825 5.531 5.025 9.267 6.606 3.736 1.578 7.902 2.366 12.5 2.366 4.873 0 9.398-.775 13.577-2.324 4.177-1.549 7.918-3.765 11.219-6.647Z"/>
</svg>
