<svg xmlns="http://www.w3.org/2000/svg" data-name="Layer 1" viewBox="0 0 207.745 118.146">
  <path d="M26.717 1.204v25.483h16.855V1.204h26.487v75.647H43.572V50.565H26.717v26.286H.23V1.204h26.487Zm85.982 0c4.28 0 8.327.469 12.14 1.404 3.812.938 7.156 2.458 10.033 4.564 2.875 2.107 5.149 4.833 6.822 8.177 1.671 3.346 2.508 7.392 2.508 12.141 0 4.549-1.071 8.527-3.21 11.938-2.142 3.411-5.619 6.422-10.435 9.03l19.865 28.393h-31.503L106.98 52.572h-1.003v24.279H79.49V1.204h33.209Zm-6.722 33.51h2.308c1.137 0 2.24-.066 3.311-.201 1.069-.133 2.04-.417 2.91-.853a4.924 4.924 0 0 0 2.057-1.906c.501-.836.752-1.956.752-3.361 0-1.47-.235-2.642-.703-3.512-.468-.868-1.104-1.521-1.906-1.956-.802-.435-1.74-.718-2.809-.853a27.492 27.492 0 0 0-3.411-.201h-2.508v12.843Zm42.741 5.016c0-5.552 1.019-10.735 3.06-15.552 2.039-4.815 4.831-9.012 8.377-12.591 3.544-3.577 7.725-6.404 12.541-8.478s9.999-3.11 15.551-3.11c6.287 0 12.441 1.037 18.461 3.11l.802 28.895c-5.352-5.15-10.735-7.726-16.153-7.726-1.673 0-3.396.318-5.167.953a15.194 15.194 0 0 0-4.816 2.81c-1.439 1.238-2.625 2.776-3.562 4.615-.938 1.84-1.405 3.963-1.405 6.37 0 2.074.417 4.014 1.254 5.819a14.734 14.734 0 0 0 3.361 4.665 16.295 16.295 0 0 0 4.866 3.11c1.839.77 3.795 1.154 5.869 1.154 3.21 0 6.085-.635 8.628-1.906s4.916-2.976 7.123-5.117l-.802 28.293c-1.138.536-2.559.987-4.264 1.354a79.91 79.91 0 0 1-5.317.953c-1.84.267-3.646.451-5.418.552-1.773.101-3.295.15-4.565.15-5.417 0-10.451-.987-15.1-2.96-4.649-1.972-8.713-4.681-12.19-8.126-3.479-3.444-6.205-7.49-8.177-12.141-1.974-4.647-2.959-9.682-2.959-15.099ZM10.398 94.082c1.34 0 2.607.146 3.801.439s2.241.77 3.142 1.43c.9.659 1.612 1.513 2.136 2.56.523 1.048.785 2.314.785 3.802 0 1.424-.335 2.67-1.005 3.738s-1.759 2.011-3.267 2.827l6.22 8.891h-9.864l-3.738-7.603h-.314v7.603H0V94.082h10.398Zm-2.104 10.492h.722c.356 0 .702-.021 1.037-.062.334-.042.638-.131.911-.268.272-.136.487-.335.644-.597.157-.262.236-.612.236-1.053 0-.46-.074-.827-.22-1.1a1.463 1.463 0 0 0-.597-.612 2.483 2.483 0 0 0-.879-.267 8.595 8.595 0 0 0-1.068-.063h-.785v4.021Zm21.801 1.413c0-1.863.346-3.55 1.037-5.058s1.628-2.796 2.812-3.863c1.183-1.068 2.571-1.896 4.163-2.482 1.591-.586 3.288-.879 5.089-.879s3.497.293 5.089.879c1.591.587 2.979 1.414 4.163 2.482 1.183 1.067 2.121 2.355 2.812 3.863s1.037 3.194 1.037 5.058c0 1.906-.346 3.608-1.037 5.105s-1.628 2.77-2.812 3.816c-1.184 1.048-2.571 1.849-4.163 2.403-1.592.555-3.288.833-5.089.833s-3.498-.278-5.089-.833c-1.592-.555-2.979-1.355-4.163-2.403-1.184-1.047-2.121-2.319-2.812-3.816s-1.037-3.199-1.037-5.105Zm8.67 0c0 .671.104 1.288.314 1.854s.513 1.048.911 1.445c.397.398.869.707 1.414.927.544.22 1.142.33 1.791.33.67 0 1.272-.11 1.806-.33s1-.528 1.398-.927a3.97 3.97 0 0 0 .911-1.445 5.305 5.305 0 0 0 .314-1.854c0-.648-.105-1.256-.314-1.821a4.736 4.736 0 0 0-.88-1.492 3.926 3.926 0 0 0-1.382-1.006c-.544-.24-1.162-.361-1.853-.361s-1.31.121-1.854.361a3.917 3.917 0 0 0-1.382 1.006c-.377.429-.67.927-.88 1.492s-.314 1.173-.314 1.821Zm27.143 0c0-1.863.346-3.55 1.037-5.058s1.628-2.796 2.812-3.863c1.183-1.068 2.571-1.896 4.163-2.482 1.591-.586 3.288-.879 5.089-.879s3.497.293 5.089.879c1.591.587 2.979 1.414 4.163 2.482 1.183 1.067 2.121 2.355 2.812 3.863s1.037 3.194 1.037 5.058c0 1.906-.346 3.608-1.037 5.105s-1.628 2.77-2.812 3.816c-1.184 1.048-2.571 1.849-4.163 2.403-1.592.555-3.288.833-5.089.833s-3.498-.278-5.089-.833c-1.592-.555-2.979-1.355-4.163-2.403-1.184-1.047-2.121-2.319-2.812-3.816s-1.037-3.199-1.037-5.105Zm8.67 0c0 .671.104 1.288.314 1.854s.513 1.048.911 1.445c.397.398.869.707 1.414.927.544.22 1.142.33 1.791.33.67 0 1.272-.11 1.806-.33s1-.528 1.398-.927a3.97 3.97 0 0 0 .911-1.445 5.305 5.305 0 0 0 .314-1.854c0-.648-.105-1.256-.314-1.821a4.736 4.736 0 0 0-.88-1.492 3.926 3.926 0 0 0-1.382-1.006c-.544-.24-1.162-.361-1.853-.361s-1.31.121-1.854.361a3.917 3.917 0 0 0-1.382 1.006c-.377.429-.67.927-.88 1.492s-.314 1.173-.314 1.821Zm43.635-11.905v6.785h-7.571v2.45h6.691v6.221h-6.691v8.23h-8.293V94.081h15.864Zm10.398 23.687V94.082h8.293v23.687h-8.293Zm19.163-23.687h8.262l7.728 12.88-.471-12.88h8.231v23.687h-8.231l-7.571-12.472.283 12.472h-8.23V94.082Zm33.991 12c0-1.927.334-3.654 1.005-5.184.67-1.528 1.591-2.827 2.764-3.896 1.173-1.067 2.561-1.885 4.163-2.45s3.335-.848 5.199-.848c1.194 0 2.382.125 3.565.377 1.183.251 2.293.633 3.33 1.146a11.807 11.807 0 0 1 2.796 1.916 8.299 8.299 0 0 1 1.932 2.654l-8.042 2.953c-.712-1.214-1.906-1.822-3.581-1.822-.712 0-1.346.132-1.901.393a3.99 3.99 0 0 0-1.398 1.084 4.858 4.858 0 0 0-.864 1.649 6.89 6.89 0 0 0-.298 2.058c0 .691.099 1.351.298 1.979.199.628.487 1.178.864 1.649.377.471.843.843 1.398 1.115.555.272 1.178.408 1.87.408.879 0 1.623-.151 2.23-.456.607-.303 1.026-.759 1.257-1.366v-.031h-3.896v-5.749h13.289v1.288c0 2.073-.298 3.927-.896 5.561-.597 1.634-1.45 3.016-2.56 4.146-1.11 1.131-2.466 1.995-4.068 2.592s-3.398.896-5.388.896c-1.801 0-3.498-.272-5.089-.817-1.592-.544-2.979-1.335-4.163-2.371a11.1 11.1 0 0 1-2.796-3.786c-.681-1.486-1.021-3.183-1.021-5.089Z"/>
</svg>
