<svg xmlns="http://www.w3.org/2000/svg" data-name="Layer 1" viewBox="0 0 322.738 189">
  <path d="M286 189H0L36.738 0h286L286 189z"/>
  <path fill="#fff" d="m95.858 34.608-4.953 25.483h16.855l4.953-25.483h26.486l-14.704 75.648H98.009l5.11-26.286H86.264l-5.11 26.286H54.667l14.704-75.648h26.487Zm85.981 0c4.28 0 8.236.469 11.867 1.404 3.63.938 6.678 2.458 9.146 4.565 2.465 2.107 4.21 4.833 5.233 8.177 1.021 3.346 1.072 7.392.149 12.14-.884 4.549-2.729 8.528-5.532 11.939-2.805 3.411-6.866 6.421-12.19 9.03l14.346 28.393h-31.503l-7.22-24.28h-1.003l-4.72 24.28h-26.487l14.704-75.648h33.209Zm-13.235 33.51h2.308c1.137 0 2.253-.066 3.35-.201a10.371 10.371 0 0 0 3.076-.853 6.508 6.508 0 0 0 2.427-1.906c.663-.835 1.132-1.956 1.405-3.361.286-1.47.278-2.642-.02-3.512-.3-.868-.808-1.521-1.526-1.956-.718-.435-1.601-.718-2.644-.853a26.729 26.729 0 0 0-3.372-.201H171.1l-2.496 12.842Zm41.766 5.016a46.046 46.046 0 0 1 6.082-15.551c2.975-4.816 6.583-9.012 10.825-12.591a51.115 51.115 0 0 1 14.189-8.478c5.218-2.073 10.603-3.11 16.155-3.11 6.286 0 12.239 1.038 17.856 3.11l-4.815 28.895c-4.351-5.15-9.233-7.725-14.651-7.725-1.673 0-3.457.318-5.352.953a19.368 19.368 0 0 0-5.362 2.809c-1.679 1.238-3.165 2.776-4.459 4.615-1.295 1.84-2.175 3.963-2.643 6.371-.403 2.074-.363 4.013.123 5.819.485 1.806 1.304 3.361 2.455 4.665s2.57 2.342 4.262 3.11c1.689.77 3.571 1.154 5.645 1.154 3.21 0 6.208-.635 8.998-1.906 2.788-1.27 5.494-2.976 8.118-5.117l-6.301 28.292c-1.243.536-2.751.988-4.528 1.354a87.4 87.4 0 0 1-5.503.953 65.834 65.834 0 0 1-5.525.552 83.442 83.442 0 0 1-4.594.151c-5.418 0-10.259-.988-14.524-2.96-4.266-1.972-7.803-4.681-10.611-8.126-2.809-3.444-4.748-7.49-5.817-12.14-1.07-4.648-1.077-9.682-.024-15.099ZM78.339 129.646c1.443 0 2.766.158 3.968.474 1.201.316 2.204.812 3.009 1.489.804.677 1.373 1.551 1.706 2.622s.35 2.374.052 3.907c-.303 1.557-.947 2.927-1.932 4.111-.986 1.184-2.408 2.205-4.266 3.062l5.022 9.846h-9.102l-3.033-8.763h-.541l-1.703 8.763h-7.646l4.959-25.511h9.507Zm-4.077 11.402h.879c1.038 0 1.941-.181 2.711-.542.769-.36 1.255-1.06 1.457-2.098.206-1.06.016-1.765-.57-2.114s-1.409-.524-2.469-.524h-.98l-1.026 5.278Zm14.245 1.387a15.054 15.054 0 0 1 2.139-5.346 17.059 17.059 0 0 1 3.81-4.195 17.313 17.313 0 0 1 4.962-2.724c1.816-.643 3.672-.964 5.566-.964s3.626.321 5.193.964 2.867 1.552 3.903 2.724c1.035 1.173 1.761 2.571 2.179 4.195.417 1.624.435 3.417.054 5.38-.386 1.985-1.103 3.784-2.149 5.396a16.695 16.695 0 0 1-3.8 4.145c-1.487 1.15-3.137 2.036-4.949 2.656s-3.677.93-5.594.93c-1.895 0-3.622-.31-5.183-.93-1.559-.62-2.861-1.5-3.902-2.64-1.042-1.139-1.772-2.521-2.189-4.145-.418-1.624-.431-3.439-.041-5.447Zm7.917 0c-.175.902-.184 1.731-.026 2.487s.455 1.403.89 1.945c.436.541.986.959 1.651 1.252s1.415.439 2.25.439c.88 0 1.715-.152 2.508-.457a7.33 7.33 0 0 0 3.754-3.214c.44-.756.745-1.573.916-2.453.166-.856.177-1.663.031-2.419-.147-.755-.425-1.415-.834-1.979a4.144 4.144 0 0 0-1.621-1.319c-.672-.315-1.448-.474-2.328-.474s-1.716.158-2.511.474a7.333 7.333 0 0 0-2.151 1.319 7.95 7.95 0 0 0-1.619 1.979 7.682 7.682 0 0 0-.911 2.419Zm22.025 0a15.054 15.054 0 0 1 2.139-5.346 17.059 17.059 0 0 1 3.81-4.195 17.32 17.32 0 0 1 4.961-2.724c1.817-.643 3.673-.964 5.567-.964s3.625.321 5.193.964c1.567.643 2.866 1.552 3.902 2.724 1.035 1.173 1.761 2.571 2.179 4.195s.435 3.417.054 5.38c-.386 1.985-1.102 3.784-2.149 5.396s-2.313 2.994-3.8 4.145a17.053 17.053 0 0 1-4.948 2.656c-1.813.62-3.678.93-5.595.93-1.895 0-3.622-.31-5.182-.93-1.56-.62-2.861-1.5-3.902-2.64-1.042-1.139-1.772-2.521-2.189-4.145-.418-1.624-.431-3.439-.041-5.447Zm7.917 0c-.175.902-.184 1.731-.027 2.487.158.756.455 1.403.891 1.945s.985.959 1.651 1.252c.665.293 1.415.439 2.249.439.88 0 1.716-.152 2.508-.457a7.321 7.321 0 0 0 3.755-3.214c.44-.756.746-1.573.917-2.453.166-.856.176-1.663.03-2.419-.146-.755-.424-1.415-.833-1.979a4.159 4.159 0 0 0-1.621-1.319c-.672-.315-1.447-.474-2.327-.474s-1.717.158-2.511.474a7.32 7.32 0 0 0-2.151 1.319 7.976 7.976 0 0 0-1.62 1.979 7.704 7.704 0 0 0-.91 2.419Zm41.225-12.789-1.237 6.361h-8.323l-.684 3.519h7.545l-1.151 5.921h-7.545l-1.887 9.71h-7.646l4.959-25.511h15.97Zm-1.914 25.511 4.959-25.511h7.646l-4.959 25.511h-7.646Zm23.33-25.511 7.603 15.191 2.547-15.191h7.545l-4.959 25.511h-7.003l-7.54-14.819-2.644 14.819h-7.578l4.959-25.511h7.071Zm18.132 12.891c.395-2.03 1.106-3.862 2.134-5.498a16.394 16.394 0 0 1 3.76-4.195 16.934 16.934 0 0 1 4.938-2.689 17.123 17.123 0 0 1 5.665-.947c1.219 0 2.395.13 3.528.389 1.134.26 2.176.644 3.126 1.15.95.508 1.784 1.15 2.501 1.929s1.266 1.697 1.647 2.758l-7.732 3.045c-.821-1.692-2.269-2.538-4.345-2.538-.902 0-1.759.17-2.568.508s-1.539.807-2.185 1.404-1.188 1.297-1.626 2.098-.748 1.675-.933 2.622c-.18.925-.201 1.788-.063 2.588.136.801.412 1.501.827 2.098a4.32 4.32 0 0 0 1.605 1.404c.656.338 1.412.508 2.269.508 1.24 0 2.34-.288 3.298-.863s1.641-1.336 2.051-2.283l.007-.034h-4.737l1.079-5.549h13.364l-.243 1.252c-.421 2.165-1.109 4.105-2.062 5.819-.953 1.715-2.127 3.169-3.521 4.364a15.128 15.128 0 0 1-4.765 2.758c-1.783.643-3.712.964-5.787.964-1.895 0-3.622-.31-5.182-.93-1.56-.62-2.851-1.494-3.872-2.622-1.022-1.128-1.736-2.498-2.144-4.111-.409-1.612-.42-3.411-.034-5.396Z"/>
</svg>
