<svg xmlns="http://www.w3.org/2000/svg" data-name="Layer 1" viewBox="0 0 1024 1024">
  <path fill="#ffd200" d="M350.475 768h-91.844l32.606 181.425 198.619-77.1L755.181 769.35l3.463-1.35H350.475zM714.038 74.575l-198.613 77.1L250.1 254.65l-6.75 2.625h503.525l-32.837-182.7z"/>
  <path d="M798.975 667.15c-18.45-8.6-33.65-20.4-45.7-35.1-12.1-14.8-20.45-32.3-25-52.4-4.5-20.1-4.55-41.8-.05-65.1 4.6-23.5 13.25-45.6 26.1-66.3 12.7-20.7 28.2-38.8 46.55-54.3 18.2-15.5 38.45-27.7 60.9-36.6 22.45-9 45.7-13.4 69.8-13.4 4.438 0 8.681 1.062 13.062 1.363l17.112-88.037H142.55l-17.937 92.275h50.962l-22.15 114.2h89.6l22.15-114.2h97l-63.15 324.9h-97l23.9-122.8h-89.6l-23.9 122.8H61.456l-18.181 93.55h819.2l17.281-88.912c-6.688.537-13 .962-18.231.962-23.3 0-44.15-4.3-62.55-12.9Zm-123-209.4c-3.85 19.8-12.05 37.3-24.55 52.3-12.7 15.1-30.7 28.1-54.4 39.1l63.9 125.3h-115.9l-38.6-111.6h-6.9l-21.7 111.6h-97.4l63.15-324.9h121.1c18.4 0 35.2 2.1 50.55 6.1 15.3 4 28.1 10.3 38.3 18.9 10.25 8.6 17.55 19.8 21.8 33.4 4.25 13.7 4.45 30.3.65 49.8Z"/>
  <path d="M893.525 438.95c-10 3.7-19.35 8.9-28.1 15.7-8.6 6.9-16.1 15.3-22.65 25.1-6.45 9.7-10.9 20.7-13.25 32.7-2.1 11-2 21.2.25 30.6 2.35 9.5 6.45 17.8 12.45 24.8 6 7 13.4 12.6 22.2 16.6 8.8 4 18.75 6 29.65 6 1.094 0 1.95-.575 3.031-.6L927.3 434.5c-1.406-.075-2.606-.95-4.025-.95-9.8 0-19.65 1.8-29.75 5.4Zm-355.2-11.4h-12.5l-13.05 67.2h11.2c13.2 0 24.75-2.3 34.55-6.9s15.9-13.4 18.5-26.7c2.6-13.5.25-22.5-7.2-26.9-7.5-4.5-18-6.7-31.5-6.7Z"/>
  <path fill="#fff" d="M136.325 551.65h89.6l-23.9 122.8h97l63.15-324.9h-97l-22.15 114.2h-89.6l22.15-114.2h-97.4l-63.15 324.9h97.4l23.9-122.8zm517.2-177.1c-10.2-8.6-23-14.9-38.3-18.9-15.35-4-32.15-6.1-50.55-6.1h-121.1l-63.15 324.9h97.4l21.7-111.6h6.9l38.6 111.6h115.9l-63.9-125.3c23.7-11 41.7-24 54.4-39.1 12.5-15 20.7-32.5 24.55-52.3 3.8-19.5 3.6-36.1-.65-49.8-4.25-13.6-11.55-24.8-21.8-33.4Zm-76.5 86.6c-2.6 13.3-8.7 22.1-18.5 26.7s-21.35 6.9-34.55 6.9h-11.2l13.05-67.2h12.5c13.5 0 24 2.2 31.5 6.7 7.45 4.4 9.8 13.4 7.2 26.9Zm354.55-117.2c-24.1 0-47.35 4.4-69.8 13.4-22.45 8.9-42.7 21.1-60.9 36.6-18.35 15.5-33.85 33.6-46.55 54.3-12.85 20.7-21.5 42.8-26.1 66.3-4.5 23.3-4.45 45 .05 65.1 4.55 20.1 12.9 37.6 25 52.4 12.05 14.7 27.25 26.5 45.7 35.1 18.4 8.6 39.25 12.9 62.55 12.9 5.231 0 11.544-.425 18.231-.962.981-.088 1.662-.05 2.669-.138 7.95-.6 15.85-1.6 23.9-3 8-1.3 15.8-2.9 23.4-4.9 7.5-2.1 14.3-4.3 20.2-6.9l23.15-105.6c-13.2 10.3-26.05 18.3-38.45 23.8-11.475 5-24.162 7.125-37.519 7.5-1.081.025-1.938.6-3.031.6-10.9 0-20.85-2-29.65-6-8.8-4-16.2-9.6-22.2-16.6-6-7-10.1-15.3-12.45-24.8-2.25-9.4-2.35-19.6-.25-30.6 2.35-12 6.8-23 13.25-32.7 6.55-9.8 14.05-18.2 22.65-25.1 8.75-6.8 18.1-12 28.1-15.7 10.1-3.6 19.95-5.4 29.75-5.4 1.419 0 2.619.875 4.025.95 23.581 1.175 44.881 11.5 63.525 32.65l18.15-106.8c-20.731-9.1-42.262-13.525-64.337-15.038-4.381-.3-8.625-1.363-13.062-1.363Z"/>
</svg>
