<svg xmlns="http://www.w3.org/2000/svg" data-name="Layer 1" viewBox="0 0 1024 1024">
  <path fill="#ffd200" d="M515.426 151.669 250.1 254.657l-78.273 30.382 119.415 664.386 198.614-77.094 265.326-102.988 78.272-30.382L714.04 74.575l-198.614 77.094z"/>
  <path d="M142.553 257.275 43.278 768h819.2l99.275-510.725h-819.2z"/>
  <path fill="#fff" d="m265.699 394.783-15.984 82.407h64.647l15.984-82.407h69.924l-45.517 234.333h-69.924l17.202-88.598h-64.647l-17.202 88.598h-70.229l45.517-234.333h70.229Zm280.509 0c13.295 0 25.422 1.522 36.484 4.364 11.011 2.943 20.196 7.51 27.604 13.701 7.409 6.191 12.686 14.208 15.73 24.052 3.045 9.844 3.146 21.82.406 35.926-2.74 14.31-8.626 26.894-17.659 37.753-9.134 10.859-22.124 20.196-39.275 28.01l46.176 90.526h-83.625l-27.807-80.479h-4.973l-15.629 80.479h-70.229l45.517-234.333h87.278ZM508.81 499.517h8.017c9.54 0 17.862-1.624 24.915-4.973 7.053-3.349 11.519-9.743 13.396-19.282 1.878-9.743.203-16.238-5.277-19.384-5.328-3.248-12.838-4.77-22.581-4.77h-9.032l-9.438 48.409Zm155.325 14.31c3.298-17.05 9.692-32.983 18.877-47.902 9.185-14.817 20.348-27.909 33.592-39.174 13.143-11.164 27.706-19.891 43.893-26.387 16.136-6.394 32.882-9.54 50.337-9.54 19.282 0 37.956 3.856 55.919 11.772l-13.193 77.028c-14.31-16.238-30.497-24.255-48.764-24.255-7.003 0-14.157 1.319-21.363 3.856-7.307 2.639-14.005 6.394-20.247 11.367-6.241 4.973-11.671 10.961-16.39 18.065-4.719 7.003-7.916 14.919-9.59 23.545-1.522 7.916-1.421 15.324.152 22.124 1.725 6.8 4.77 12.787 9.032 17.862 4.313 5.074 9.641 9.032 15.933 11.975 6.495 2.842 13.599 4.364 21.414 4.364 10.656 0 20.348-2.03 29.33-5.988 8.931-3.856 18.115-9.54 27.706-17.05l-16.644 76.115c-4.313 1.928-9.235 3.654-14.665 4.973a149.625 149.625 0 0 1-16.796 3.654c-5.886.812-11.62 1.624-17.303 2.131-5.683.507-10.707.812-15.071.812-16.745 0-31.765-3.146-45.06-9.337-13.295-6.191-24.357-14.716-33.034-25.372s-14.665-23.24-17.912-37.753c-3.298-14.513-3.4-30.142-.152-46.887Z"/>
</svg>
