<?xml version="1.0" standalone="no"?>
<!DOCTYPE svg PUBLIC "-//W3C//DTD SVG 20010904//EN"
 "http://www.w3.org/TR/2001/REC-SVG-20010904/DTD/svg10.dtd">
<svg version="1.0" xmlns="http://www.w3.org/2000/svg"
 width="700.000000pt" height="700.000000pt" viewBox="0 0 700.000000 700.000000"
 preserveAspectRatio="xMidYMid meet">
<metadata>
Created by potrace 1.14, written by Peter Selinger 2001-2017
</metadata>
<g transform="translate(0.000000,700.000000) scale(0.100000,-0.100000)"
fill="#000000" stroke="none">
<path d="M637 3503 c-186 -956 -337 -1741 -337 -1745 0 -5 1259 -8 2798 -8
l2798 0 337 1738 c186 955 337 1740 337 1745 0 4 -1259 7 -2798 7 l-2798 0
-337 -1737z m5128 798 c106 -26 155 -47 155 -68 0 -21 -81 -497 -86 -502 -2
-2 -27 18 -56 44 -136 123 -304 144 -473 61 -164 -81 -268 -240 -269 -411 -1
-68 3 -88 27 -137 97 -199 359 -231 603 -73 42 27 70 39 72 32 1 -7 -22 -120
-51 -252 -50 -227 -54 -241 -79 -253 -87 -41 -350 -79 -475 -68 -143 13 -261
57 -369 139 -306 232 -319 716 -28 1097 55 73 185 196 257 243 128 85 279 146
412 167 86 13 267 4 360 -19z m-4002 -273 c-29 -150 -53 -276 -53 -280 0 -5
99 -8 219 -8 l220 0 10 53 c6 28 29 147 51 262 23 116 43 218 46 228 5 16 25
17 240 17 180 0 234 -3 234 -12 0 -7 -68 -367 -152 -800 l-153 -788 -237 0
c-131 0 -238 4 -238 8 0 4 25 135 55 290 30 156 55 289 55 297 0 13 -33 15
-215 15 -214 0 -216 0 -223 -22 -5 -13 -33 -150 -62 -305 l-54 -283 -238 0
c-131 0 -238 3 -238 8 -1 4 68 364 152 799 l153 793 241 0 241 0 -54 -272z
m2207 247 c239 -66 349 -222 320 -452 -27 -207 -124 -351 -312 -461 -43 -24
-78 -47 -78 -51 0 -3 69 -141 153 -306 l153 -300 -276 -3 c-151 -1 -280 0
-286 2 -6 2 -53 126 -104 275 -73 215 -96 271 -110 271 -15 0 -25 -41 -71
-275 l-53 -275 -238 0 c-158 0 -238 3 -238 10 0 14 299 1561 305 1578 4 11 76
13 387 9 331 -3 392 -6 448 -22z"/>
<path d="M3545 3911 c-4 -8 -65 -303 -65 -320 0 -2 39 -1 88 1 128 7 186 40
217 127 39 112 6 170 -106 190 -80 13 -126 14 -134 2z"/>
</g>
</svg>
